SplineFontDB: 3.2
FontName: LucidaTypewriter20
FullName: Lucida Typewriter 20
FamilyName: Lucida Typewriter 20
Weight: Book
Copyright: Copyright Bigelow & Holmes 1986, 1985.
UComments: "2020-2-13: Created with FontForge (http://fontforge.org)"
Version: 001.000
ItalicAngle: 0
UnderlinePosition: -100
UnderlineWidth: 50
Ascent: 900
Descent: 100
InvalidEm: 0
LayerCount: 2
Layer: 0 0 "Back" 1
Layer: 1 0 "Fore" 0
XUID: [1021 61 920013503 7321584]
StyleMap: 0x0040
FSType: 0
OS2Version: 0
OS2_WeightWidthSlopeOnly: 0
OS2_UseTypoMetrics: 1
CreationTime: 1581634488
ModificationTime: 1581634493
PfmFamily: 48
TTFWeight: 400
TTFWidth: 5
LineGap: 90
VLineGap: 90
Panose: 2 0 6 9 0 0 0 0 0 0
OS2TypoAscent: 0
OS2TypoAOffset: 1
OS2TypoDescent: 0
OS2TypoDOffset: 1
OS2TypoLinegap: 90
OS2WinAscent: 0
OS2WinAOffset: 1
OS2WinDescent: 0
OS2WinDOffset: 1
HheadAscent: 0
HheadAOffset: 1
HheadDescent: 0
HheadDOffset: 1
OS2SubXSize: 650
OS2SubYSize: 700
OS2SubXOff: 0
OS2SubYOff: 140
OS2SupXSize: 650
OS2SupYSize: 700
OS2SupXOff: 0
OS2SupYOff: 480
OS2StrikeYSize: 49
OS2StrikeYPos: 258
OS2Vendor: 'PfEd'
DEI: 91125
Encoding: UnicodeBmp
UnicodeInterp: none
NameList: AGL For New Fonts
DisplaySize: 20
AntiAlias: 1
FitToEm: 0
BeginChars: 65536 873

StartChar: char0
Encoding: 0 0 0
Width: 900
VWidth: 0
Flags: HW
LayerCount: 2
Back
Fore
SplineSet
50 600 m 1
 100 600 l 1
 100 650 l 1
 50 650 l 1
 50 600 l 1025
150 600 m 1
 200 600 l 1
 200 650 l 1
 150 650 l 1
 150 600 l 1025
250 600 m 1
 300 600 l 1
 300 650 l 1
 250 650 l 1
 250 600 l 1025
350 600 m 1
 400 600 l 1
 400 650 l 1
 350 650 l 1
 350 600 l 1025
450 600 m 1
 500 600 l 1
 500 650 l 1
 450 650 l 1
 450 600 l 1025
50 500 m 1
 100 500 l 1
 100 550 l 1
 50 550 l 1
 50 500 l 1025
450 500 m 1
 500 500 l 1
 500 550 l 1
 450 550 l 1
 450 500 l 1025
50 400 m 1
 100 400 l 1
 100 450 l 1
 50 450 l 1
 50 400 l 1025
450 400 m 1
 500 400 l 1
 500 450 l 1
 450 450 l 1
 450 400 l 1025
50 300 m 1
 100 300 l 1
 100 350 l 1
 50 350 l 1
 50 300 l 1025
450 300 m 1
 500 300 l 1
 500 350 l 1
 450 350 l 1
 450 300 l 1025
50 200 m 1
 100 200 l 1
 100 250 l 1
 50 250 l 1
 50 200 l 1025
450 200 m 1
 500 200 l 1
 500 250 l 1
 450 250 l 1
 450 200 l 1025
50 100 m 1
 100 100 l 1
 100 150 l 1
 50 150 l 1
 50 100 l 1025
450 100 m 1
 500 100 l 1
 500 150 l 1
 450 150 l 1
 450 100 l 1025
50 0 m 1
 100 0 l 1
 100 50 l 1
 50 50 l 1
 50 0 l 1025
150 0 m 1
 200 0 l 1
 200 50 l 1
 150 50 l 1
 150 0 l 1025
250 0 m 1
 300 0 l 1
 300 50 l 1
 250 50 l 1
 250 0 l 1025
350 0 m 1
 400 0 l 1
 400 50 l 1
 350 50 l 1
 350 0 l 1025
450 0 m 1
 500 0 l 1
 500 50 l 1
 450 50 l 1
 450 0 l 1
EndSplineSet
EndChar

StartChar: exclam
Encoding: 33 33 2
Width: 900
VWidth: 0
Flags: HW
LayerCount: 2
Back
Fore
SplineSet
250 650 m 1
 350 650 l 1
 350 700 l 1
 250 700 l 1
 250 650 l 1025
250 600 m 1
 350 600 l 1
 350 650 l 1
 250 650 l 1
 250 600 l 1025
250 550 m 1
 350 550 l 1
 350 600 l 1
 250 600 l 1
 250 550 l 1025
250 500 m 1
 350 500 l 1
 350 550 l 1
 250 550 l 1
 250 500 l 1025
250 450 m 1
 350 450 l 1
 350 500 l 1
 250 500 l 1
 250 450 l 1025
250 400 m 1
 350 400 l 1
 350 450 l 1
 250 450 l 1
 250 400 l 1025
250 350 m 1
 300 350 l 1
 300 400 l 1
 250 400 l 1
 250 350 l 1025
250 300 m 1
 300 300 l 1
 300 350 l 1
 250 350 l 1
 250 300 l 1025
250 250 m 1
 300 250 l 1
 300 300 l 1
 250 300 l 1
 250 250 l 1025
250 200 m 1
 300 200 l 1
 300 250 l 1
 250 250 l 1
 250 200 l 1025
250 50 m 1
 300 50 l 1
 300 100 l 1
 250 100 l 1
 250 50 l 1025
250 0 m 1
 300 0 l 1
 300 50 l 1
 250 50 l 1
 250 0 l 1
EndSplineSet
EndChar

StartChar: quotedbl
Encoding: 34 34 3
Width: 900
VWidth: 0
Flags: HW
LayerCount: 2
Back
Fore
SplineSet
150 650 m 1
 250 650 l 1
 250 700 l 1
 150 700 l 1
 150 650 l 1025
350 650 m 1
 450 650 l 1
 450 700 l 1
 350 700 l 1
 350 650 l 1025
150 600 m 1
 250 600 l 1
 250 650 l 1
 150 650 l 1
 150 600 l 1025
350 600 m 1
 450 600 l 1
 450 650 l 1
 350 650 l 1
 350 600 l 1025
150 550 m 1
 200 550 l 1
 200 600 l 1
 150 600 l 1
 150 550 l 1025
400 550 m 1
 450 550 l 1
 450 600 l 1
 400 600 l 1
 400 550 l 1025
150 500 m 1
 200 500 l 1
 200 550 l 1
 150 550 l 1
 150 500 l 1025
400 500 m 1
 450 500 l 1
 450 550 l 1
 400 550 l 1
 400 500 l 1
EndSplineSet
EndChar

StartChar: numbersign
Encoding: 35 35 4
Width: 900
VWidth: 0
Flags: HW
LayerCount: 2
Back
Fore
SplineSet
300 650 m 1
 350 650 l 1
 350 700 l 1
 300 700 l 1
 300 650 l 1025
450 650 m 1
 550 650 l 1
 550 700 l 1
 450 700 l 1
 450 650 l 1025
250 600 m 1
 350 600 l 1
 350 650 l 1
 250 650 l 1
 250 600 l 1025
450 600 m 1
 500 600 l 1
 500 650 l 1
 450 650 l 1
 450 600 l 1025
250 550 m 1
 300 550 l 1
 300 600 l 1
 250 600 l 1
 250 550 l 1025
450 550 m 1
 500 550 l 1
 500 600 l 1
 450 600 l 1
 450 550 l 1025
250 500 m 1
 300 500 l 1
 300 550 l 1
 250 550 l 1
 250 500 l 1025
450 500 m 1
 500 500 l 1
 500 550 l 1
 450 550 l 1
 450 500 l 1025
100 450 m 1
 600 450 l 1
 600 500 l 1
 100 500 l 1
 100 450 l 1025
200 400 m 1
 250 400 l 1
 250 450 l 1
 200 450 l 1
 200 400 l 1025
400 400 m 1
 450 400 l 1
 450 450 l 1
 400 450 l 1
 400 400 l 1025
200 350 m 1
 250 350 l 1
 250 400 l 1
 200 400 l 1
 200 350 l 1025
400 350 m 1
 450 350 l 1
 450 400 l 1
 400 400 l 1
 400 350 l 1025
200 300 m 1
 250 300 l 1
 250 350 l 1
 200 350 l 1
 200 300 l 1025
400 300 m 1
 450 300 l 1
 450 350 l 1
 400 350 l 1
 400 300 l 1025
50 250 m 1
 550 250 l 1
 550 300 l 1
 50 300 l 1
 50 250 l 1025
150 200 m 1
 200 200 l 1
 200 250 l 1
 150 250 l 1
 150 200 l 1025
350 200 m 1
 400 200 l 1
 400 250 l 1
 350 250 l 1
 350 200 l 1025
150 150 m 1
 200 150 l 1
 200 200 l 1
 150 200 l 1
 150 150 l 1025
350 150 m 1
 400 150 l 1
 400 200 l 1
 350 200 l 1
 350 150 l 1025
150 100 m 1
 200 100 l 1
 200 150 l 1
 150 150 l 1
 150 100 l 1025
350 100 m 1
 400 100 l 1
 400 150 l 1
 350 150 l 1
 350 100 l 1025
150 50 m 1
 200 50 l 1
 200 100 l 1
 150 100 l 1
 150 50 l 1025
300 50 m 1
 350 50 l 1
 350 100 l 1
 300 100 l 1
 300 50 l 1025
100 0 m 1
 150 0 l 1
 150 50 l 1
 100 50 l 1
 100 0 l 1025
300 0 m 1
 350 0 l 1
 350 50 l 1
 300 50 l 1
 300 0 l 1
EndSplineSet
EndChar

StartChar: dollar
Encoding: 36 36 5
Width: 900
VWidth: 0
Flags: HW
LayerCount: 2
Back
Fore
SplineSet
300 750 m 1
 350 750 l 1
 350 800 l 1
 300 800 l 1
 300 750 l 1025
300 700 m 1
 350 700 l 1
 350 750 l 1
 300 750 l 1
 300 700 l 1025
200 650 m 1
 500 650 l 1
 500 700 l 1
 200 700 l 1
 200 650 l 1025
150 600 m 1
 250 600 l 1
 250 650 l 1
 150 650 l 1
 150 600 l 1025
300 600 m 1
 350 600 l 1
 350 650 l 1
 300 650 l 1
 300 600 l 1025
450 600 m 1
 500 600 l 1
 500 650 l 1
 450 650 l 1
 450 600 l 1025
150 550 m 1
 250 550 l 1
 250 600 l 1
 150 600 l 1
 150 550 l 1025
300 550 m 1
 350 550 l 1
 350 600 l 1
 300 600 l 1
 300 550 l 1025
150 500 m 1
 250 500 l 1
 250 550 l 1
 150 550 l 1
 150 500 l 1025
300 500 m 1
 350 500 l 1
 350 550 l 1
 300 550 l 1
 300 500 l 1025
150 450 m 1
 250 450 l 1
 250 500 l 1
 150 500 l 1
 150 450 l 1025
300 450 m 1
 350 450 l 1
 350 500 l 1
 300 500 l 1
 300 450 l 1025
200 400 m 1
 350 400 l 1
 350 450 l 1
 200 450 l 1
 200 400 l 1025
250 350 m 1
 400 350 l 1
 400 400 l 1
 250 400 l 1
 250 350 l 1025
300 300 m 1
 450 300 l 1
 450 350 l 1
 300 350 l 1
 300 300 l 1025
300 250 m 1
 500 250 l 1
 500 300 l 1
 300 300 l 1
 300 250 l 1025
300 200 m 1
 350 200 l 1
 350 250 l 1
 300 250 l 1
 300 200 l 1025
400 200 m 1
 500 200 l 1
 500 250 l 1
 400 250 l 1
 400 200 l 1025
300 150 m 1
 350 150 l 1
 350 200 l 1
 300 200 l 1
 300 150 l 1025
400 150 m 1
 500 150 l 1
 500 200 l 1
 400 200 l 1
 400 150 l 1025
300 100 m 1
 350 100 l 1
 350 150 l 1
 300 150 l 1
 300 100 l 1025
400 100 m 1
 500 100 l 1
 500 150 l 1
 400 150 l 1
 400 100 l 1025
150 50 m 1
 250 50 l 1
 250 100 l 1
 150 100 l 1
 150 50 l 1025
300 50 m 1
 450 50 l 1
 450 100 l 1
 300 100 l 1
 300 50 l 1025
150 0 m 1
 450 0 l 1
 450 50 l 1
 150 50 l 1
 150 0 l 1025
300 -50 m 1
 350 -50 l 1
 350 0 l 1
 300 0 l 1
 300 -50 l 1025
300 -100 m 1
 350 -100 l 1
 350 -50 l 1
 300 -50 l 1
 300 -100 l 1
EndSplineSet
EndChar

StartChar: percent
Encoding: 37 37 6
Width: 900
VWidth: 0
Flags: HW
LayerCount: 2
Back
Fore
SplineSet
50 650 m 1
 250 650 l 1
 250 700 l 1
 50 700 l 1
 50 650 l 1025
500 650 m 1
 600 650 l 1
 600 700 l 1
 500 700 l 1
 500 650 l 1025
0 600 m 1
 100 600 l 1
 100 650 l 1
 0 650 l 1
 0 600 l 1025
200 600 m 1
 300 600 l 1
 300 650 l 1
 200 650 l 1
 200 600 l 1025
450 600 m 1
 550 600 l 1
 550 650 l 1
 450 650 l 1
 450 600 l 1025
0 550 m 1
 50 550 l 1
 50 600 l 1
 0 600 l 1
 0 550 l 1025
250 550 m 1
 300 550 l 1
 300 600 l 1
 250 600 l 1
 250 550 l 1025
450 550 m 1
 500 550 l 1
 500 600 l 1
 450 600 l 1
 450 550 l 1025
0 500 m 1
 50 500 l 1
 50 550 l 1
 0 550 l 1
 0 500 l 1025
250 500 m 1
 300 500 l 1
 300 550 l 1
 250 550 l 1
 250 500 l 1025
400 500 m 1
 450 500 l 1
 450 550 l 1
 400 550 l 1
 400 500 l 1025
0 450 m 1
 100 450 l 1
 100 500 l 1
 0 500 l 1
 0 450 l 1025
200 450 m 1
 300 450 l 1
 300 500 l 1
 200 500 l 1
 200 450 l 1025
350 450 m 1
 450 450 l 1
 450 500 l 1
 350 500 l 1
 350 450 l 1025
50 400 m 1
 250 400 l 1
 250 450 l 1
 50 450 l 1
 50 400 l 1025
300 400 m 1
 400 400 l 1
 400 450 l 1
 300 450 l 1
 300 400 l 1025
300 350 m 1
 350 350 l 1
 350 400 l 1
 300 400 l 1
 300 350 l 1025
250 300 m 1
 300 300 l 1
 300 350 l 1
 250 350 l 1
 250 300 l 1025
350 300 m 1
 550 300 l 1
 550 350 l 1
 350 350 l 1
 350 300 l 1025
200 250 m 1
 250 250 l 1
 250 300 l 1
 200 300 l 1
 200 250 l 1025
300 250 m 1
 400 250 l 1
 400 300 l 1
 300 300 l 1
 300 250 l 1025
500 250 m 1
 600 250 l 1
 600 300 l 1
 500 300 l 1
 500 250 l 1025
150 200 m 1
 250 200 l 1
 250 250 l 1
 150 250 l 1
 150 200 l 1025
300 200 m 1
 350 200 l 1
 350 250 l 1
 300 250 l 1
 300 200 l 1025
550 200 m 1
 600 200 l 1
 600 250 l 1
 550 250 l 1
 550 200 l 1025
150 150 m 1
 200 150 l 1
 200 200 l 1
 150 200 l 1
 150 150 l 1025
300 150 m 1
 350 150 l 1
 350 200 l 1
 300 200 l 1
 300 150 l 1025
550 150 m 1
 600 150 l 1
 600 200 l 1
 550 200 l 1
 550 150 l 1025
100 100 m 1
 150 100 l 1
 150 150 l 1
 100 150 l 1
 100 100 l 1025
300 100 m 1
 350 100 l 1
 350 150 l 1
 300 150 l 1
 300 100 l 1025
550 100 m 1
 600 100 l 1
 600 150 l 1
 550 150 l 1
 550 100 l 1025
50 50 m 1
 100 50 l 1
 100 100 l 1
 50 100 l 1
 50 50 l 1025
300 50 m 1
 400 50 l 1
 400 100 l 1
 300 100 l 1
 300 50 l 1025
500 50 m 1
 600 50 l 1
 600 100 l 1
 500 100 l 1
 500 50 l 1025
0 0 m 1
 100 0 l 1
 100 50 l 1
 0 50 l 1
 0 0 l 1025
350 0 m 1
 550 0 l 1
 550 50 l 1
 350 50 l 1
 350 0 l 1
EndSplineSet
EndChar

StartChar: ampersand
Encoding: 38 38 7
Width: 900
VWidth: 0
Flags: HW
LayerCount: 2
Back
Fore
SplineSet
200 650 m 1
 400 650 l 1
 400 700 l 1
 200 700 l 1
 200 650 l 1025
150 600 m 1
 250 600 l 1
 250 650 l 1
 150 650 l 1
 150 600 l 1025
350 600 m 1
 450 600 l 1
 450 650 l 1
 350 650 l 1
 350 600 l 1025
150 550 m 1
 250 550 l 1
 250 600 l 1
 150 600 l 1
 150 550 l 1025
350 550 m 1
 450 550 l 1
 450 600 l 1
 350 600 l 1
 350 550 l 1025
150 500 m 1
 250 500 l 1
 250 550 l 1
 150 550 l 1
 150 500 l 1025
350 500 m 1
 450 500 l 1
 450 550 l 1
 350 550 l 1
 350 500 l 1025
150 450 m 1
 250 450 l 1
 250 500 l 1
 150 500 l 1
 150 450 l 1025
300 450 m 1
 400 450 l 1
 400 500 l 1
 300 500 l 1
 300 450 l 1025
200 400 m 1
 350 400 l 1
 350 450 l 1
 200 450 l 1
 200 400 l 1025
150 350 m 1
 300 350 l 1
 300 400 l 1
 150 400 l 1
 150 350 l 1025
100 300 m 1
 150 300 l 1
 150 350 l 1
 100 350 l 1
 100 300 l 1025
250 300 m 1
 350 300 l 1
 350 350 l 1
 250 350 l 1
 250 300 l 1025
500 300 m 1
 600 300 l 1
 600 350 l 1
 500 350 l 1
 500 300 l 1025
50 250 m 1
 150 250 l 1
 150 300 l 1
 50 300 l 1
 50 250 l 1025
250 250 m 1
 400 250 l 1
 400 300 l 1
 250 300 l 1
 250 250 l 1025
500 250 m 1
 600 250 l 1
 600 300 l 1
 500 300 l 1
 500 250 l 1025
50 200 m 1
 150 200 l 1
 150 250 l 1
 50 250 l 1
 50 200 l 1025
300 200 m 1
 400 200 l 1
 400 250 l 1
 300 250 l 1
 300 200 l 1025
500 200 m 1
 550 200 l 1
 550 250 l 1
 500 250 l 1
 500 200 l 1025
50 150 m 1
 150 150 l 1
 150 200 l 1
 50 200 l 1
 50 150 l 1025
300 150 m 1
 550 150 l 1
 550 200 l 1
 300 200 l 1
 300 150 l 1025
50 100 m 1
 150 100 l 1
 150 150 l 1
 50 150 l 1
 50 100 l 1025
350 100 m 1
 500 100 l 1
 500 150 l 1
 350 150 l 1
 350 100 l 1025
100 50 m 1
 200 50 l 1
 200 100 l 1
 100 100 l 1
 100 50 l 1025
350 50 m 1
 500 50 l 1
 500 100 l 1
 350 100 l 1
 350 50 l 1025
150 0 m 1
 400 0 l 1
 400 50 l 1
 150 50 l 1
 150 0 l 1025
450 0 m 1
 600 0 l 1
 600 50 l 1
 450 50 l 1
 450 0 l 1
EndSplineSet
EndChar

StartChar: quotesingle
Encoding: 39 39 8
Width: 900
VWidth: 0
Flags: HW
LayerCount: 2
Back
Fore
SplineSet
200 650 m 1
 350 650 l 1
 350 700 l 1
 200 700 l 1
 200 650 l 1025
200 600 m 1
 350 600 l 1
 350 650 l 1
 200 650 l 1
 200 600 l 1025
200 550 m 1
 350 550 l 1
 350 600 l 1
 200 600 l 1
 200 550 l 1025
250 500 m 1
 300 500 l 1
 300 550 l 1
 250 550 l 1
 250 500 l 1025
250 450 m 1
 300 450 l 1
 300 500 l 1
 250 500 l 1
 250 450 l 1
EndSplineSet
EndChar

StartChar: parenleft
Encoding: 40 40 9
Width: 900
VWidth: 0
Flags: HW
LayerCount: 2
Back
Fore
SplineSet
350 650 m 1
 500 650 l 1
 500 700 l 1
 350 700 l 1
 350 650 l 1025
300 600 m 1
 450 600 l 1
 450 650 l 1
 300 650 l 1
 300 600 l 1025
250 550 m 1
 350 550 l 1
 350 600 l 1
 250 600 l 1
 250 550 l 1025
200 500 m 1
 300 500 l 1
 300 550 l 1
 200 550 l 1
 200 500 l 1025
200 450 m 1
 300 450 l 1
 300 500 l 1
 200 500 l 1
 200 450 l 1025
150 400 m 1
 250 400 l 1
 250 450 l 1
 150 450 l 1
 150 400 l 1025
150 350 m 1
 250 350 l 1
 250 400 l 1
 150 400 l 1
 150 350 l 1025
150 300 m 1
 250 300 l 1
 250 350 l 1
 150 350 l 1
 150 300 l 1025
150 250 m 1
 250 250 l 1
 250 300 l 1
 150 300 l 1
 150 250 l 1025
150 200 m 1
 250 200 l 1
 250 250 l 1
 150 250 l 1
 150 200 l 1025
150 150 m 1
 250 150 l 1
 250 200 l 1
 150 200 l 1
 150 150 l 1025
200 100 m 1
 250 100 l 1
 250 150 l 1
 200 150 l 1
 200 100 l 1025
200 50 m 1
 300 50 l 1
 300 100 l 1
 200 100 l 1
 200 50 l 1025
250 0 m 1
 300 0 l 1
 300 50 l 1
 250 50 l 1
 250 0 l 1025
250 -50 m 1
 350 -50 l 1
 350 0 l 1
 250 0 l 1
 250 -50 l 1025
300 -100 m 1
 450 -100 l 1
 450 -50 l 1
 300 -50 l 1
 300 -100 l 1025
400 -150 m 1
 500 -150 l 1
 500 -100 l 1
 400 -100 l 1
 400 -150 l 1
EndSplineSet
EndChar

StartChar: parenright
Encoding: 41 41 10
Width: 900
VWidth: 0
Flags: HW
LayerCount: 2
Back
Fore
SplineSet
100 650 m 1
 200 650 l 1
 200 700 l 1
 100 700 l 1
 100 650 l 1025
150 600 m 1
 300 600 l 1
 300 650 l 1
 150 650 l 1
 150 600 l 1025
250 550 m 1
 350 550 l 1
 350 600 l 1
 250 600 l 1
 250 550 l 1025
300 500 m 1
 400 500 l 1
 400 550 l 1
 300 550 l 1
 300 500 l 1025
300 450 m 1
 400 450 l 1
 400 500 l 1
 300 500 l 1
 300 450 l 1025
350 400 m 1
 450 400 l 1
 450 450 l 1
 350 450 l 1
 350 400 l 1025
350 350 m 1
 450 350 l 1
 450 400 l 1
 350 400 l 1
 350 350 l 1025
350 300 m 1
 450 300 l 1
 450 350 l 1
 350 350 l 1
 350 300 l 1025
350 250 m 1
 450 250 l 1
 450 300 l 1
 350 300 l 1
 350 250 l 1025
350 200 m 1
 450 200 l 1
 450 250 l 1
 350 250 l 1
 350 200 l 1025
350 150 m 1
 450 150 l 1
 450 200 l 1
 350 200 l 1
 350 150 l 1025
350 100 m 1
 450 100 l 1
 450 150 l 1
 350 150 l 1
 350 100 l 1025
300 50 m 1
 400 50 l 1
 400 100 l 1
 300 100 l 1
 300 50 l 1025
300 0 m 1
 400 0 l 1
 400 50 l 1
 300 50 l 1
 300 0 l 1025
250 -50 m 1
 350 -50 l 1
 350 0 l 1
 250 0 l 1
 250 -50 l 1025
150 -100 m 1
 300 -100 l 1
 300 -50 l 1
 150 -50 l 1
 150 -100 l 1025
100 -150 m 1
 200 -150 l 1
 200 -100 l 1
 100 -100 l 1
 100 -150 l 1
EndSplineSet
EndChar

StartChar: asterisk
Encoding: 42 42 11
Width: 900
VWidth: 0
Flags: HW
LayerCount: 2
Back
Fore
SplineSet
250 650 m 1
 300 650 l 1
 300 700 l 1
 250 700 l 1
 250 650 l 1025
250 600 m 1
 300 600 l 1
 300 650 l 1
 250 650 l 1
 250 600 l 1025
50 550 m 1
 150 550 l 1
 150 600 l 1
 50 600 l 1
 50 550 l 1025
250 550 m 1
 300 550 l 1
 300 600 l 1
 250 600 l 1
 250 550 l 1025
400 550 m 1
 500 550 l 1
 500 600 l 1
 400 600 l 1
 400 550 l 1025
50 500 m 1
 250 500 l 1
 250 550 l 1
 50 550 l 1
 50 500 l 1025
300 500 m 1
 500 500 l 1
 500 550 l 1
 300 550 l 1
 300 500 l 1025
150 400 m 1
 250 400 l 1
 250 450 l 1
 150 450 l 1
 150 400 l 1025
300 400 m 1
 400 400 l 1
 400 450 l 1
 300 450 l 1
 300 400 l 1025
100 350 m 1
 250 350 l 1
 250 400 l 1
 100 400 l 1
 100 350 l 1025
300 350 m 1
 400 350 l 1
 400 400 l 1
 300 400 l 1
 300 350 l 1025
150 300 m 1
 200 300 l 1
 200 350 l 1
 150 350 l 1
 150 300 l 1025
350 300 m 1
 450 300 l 1
 450 350 l 1
 350 350 l 1
 350 300 l 1
EndSplineSet
EndChar

StartChar: plus
Encoding: 43 43 12
Width: 900
VWidth: 0
Flags: HW
LayerCount: 2
Back
Fore
SplineSet
250 500 m 1
 300 500 l 1
 300 550 l 1
 250 550 l 1
 250 500 l 1025
250 450 m 1
 300 450 l 1
 300 500 l 1
 250 500 l 1
 250 450 l 1025
250 400 m 1
 300 400 l 1
 300 450 l 1
 250 450 l 1
 250 400 l 1025
250 350 m 1
 300 350 l 1
 300 400 l 1
 250 400 l 1
 250 350 l 1025
250 300 m 1
 300 300 l 1
 300 350 l 1
 250 350 l 1
 250 300 l 1025
50 250 m 1
 500 250 l 1
 500 300 l 1
 50 300 l 1
 50 250 l 1025
250 200 m 1
 300 200 l 1
 300 250 l 1
 250 250 l 1
 250 200 l 1025
250 150 m 1
 300 150 l 1
 300 200 l 1
 250 200 l 1
 250 150 l 1025
250 100 m 1
 300 100 l 1
 300 150 l 1
 250 150 l 1
 250 100 l 1025
250 50 m 1
 300 50 l 1
 300 100 l 1
 250 100 l 1
 250 50 l 1025
250 0 m 1
 300 0 l 1
 300 50 l 1
 250 50 l 1
 250 0 l 1
EndSplineSet
EndChar

StartChar: comma
Encoding: 44 44 13
Width: 900
VWidth: 0
Flags: HW
LayerCount: 2
Back
Fore
SplineSet
200 100 m 1
 350 100 l 1
 350 150 l 1
 200 150 l 1
 200 100 l 1025
200 50 m 1
 350 50 l 1
 350 100 l 1
 200 100 l 1
 200 50 l 1025
200 0 m 1
 350 0 l 1
 350 50 l 1
 200 50 l 1
 200 0 l 1025
300 -50 m 1
 350 -50 l 1
 350 0 l 1
 300 0 l 1
 300 -50 l 1025
250 -100 m 1
 350 -100 l 1
 350 -50 l 1
 250 -50 l 1
 250 -100 l 1025
200 -150 m 1
 300 -150 l 1
 300 -100 l 1
 200 -100 l 1
 200 -150 l 1
EndSplineSet
EndChar

StartChar: hyphen
Encoding: 45 45 14
Width: 900
VWidth: 0
Flags: HW
LayerCount: 2
Back
Fore
SplineSet
50 200 m 1
 550 200 l 1
 550 250 l 1
 50 250 l 1
 50 200 l 1
EndSplineSet
EndChar

StartChar: period
Encoding: 46 46 15
Width: 900
VWidth: 0
Flags: HW
LayerCount: 2
Back
Fore
SplineSet
200 100 m 1
 350 100 l 1
 350 150 l 1
 200 150 l 1
 200 100 l 1025
200 50 m 1
 350 50 l 1
 350 100 l 1
 200 100 l 1
 200 50 l 1025
200 0 m 1
 350 0 l 1
 350 50 l 1
 200 50 l 1
 200 0 l 1
EndSplineSet
EndChar

StartChar: slash
Encoding: 47 47 16
Width: 900
VWidth: 0
Flags: HW
LayerCount: 2
Back
Fore
SplineSet
450 650 m 1
 550 650 l 1
 550 700 l 1
 450 700 l 1
 450 650 l 1025
450 600 m 1
 500 600 l 1
 500 650 l 1
 450 650 l 1
 450 600 l 1025
400 550 m 1
 450 550 l 1
 450 600 l 1
 400 600 l 1
 400 550 l 1025
400 500 m 1
 450 500 l 1
 450 550 l 1
 400 550 l 1
 400 500 l 1025
350 450 m 1
 400 450 l 1
 400 500 l 1
 350 500 l 1
 350 450 l 1025
350 400 m 1
 400 400 l 1
 400 450 l 1
 350 450 l 1
 350 400 l 1025
300 350 m 1
 350 350 l 1
 350 400 l 1
 300 400 l 1
 300 350 l 1025
250 300 m 1
 350 300 l 1
 350 350 l 1
 250 350 l 1
 250 300 l 1025
250 250 m 1
 300 250 l 1
 300 300 l 1
 250 300 l 1
 250 250 l 1025
200 200 m 1
 300 200 l 1
 300 250 l 1
 200 250 l 1
 200 200 l 1025
200 150 m 1
 250 150 l 1
 250 200 l 1
 200 200 l 1
 200 150 l 1025
150 100 m 1
 200 100 l 1
 200 150 l 1
 150 150 l 1
 150 100 l 1025
150 50 m 1
 200 50 l 1
 200 100 l 1
 150 100 l 1
 150 50 l 1025
100 0 m 1
 150 0 l 1
 150 50 l 1
 100 50 l 1
 100 0 l 1025
100 -50 m 1
 150 -50 l 1
 150 0 l 1
 100 0 l 1
 100 -50 l 1025
50 -100 m 1
 100 -100 l 1
 100 -50 l 1
 50 -50 l 1
 50 -100 l 1025
0 -150 m 1
 100 -150 l 1
 100 -100 l 1
 0 -100 l 1
 0 -150 l 1
EndSplineSet
EndChar

StartChar: zero
Encoding: 48 48 17
Width: 900
VWidth: 0
Flags: HW
LayerCount: 2
Back
Fore
SplineSet
200 650 m 1
 400 650 l 1
 400 700 l 1
 200 700 l 1
 200 650 l 1025
150 600 m 1
 200 600 l 1
 200 650 l 1
 150 650 l 1
 150 600 l 1025
350 600 m 1
 450 600 l 1
 450 650 l 1
 350 650 l 1
 350 600 l 1025
100 550 m 1
 200 550 l 1
 200 600 l 1
 100 600 l 1
 100 550 l 1025
400 550 m 1
 500 550 l 1
 500 600 l 1
 400 600 l 1
 400 550 l 1025
100 500 m 1
 150 500 l 1
 150 550 l 1
 100 550 l 1
 100 500 l 1025
450 500 m 1
 500 500 l 1
 500 550 l 1
 450 550 l 1
 450 500 l 1025
50 450 m 1
 150 450 l 1
 150 500 l 1
 50 500 l 1
 50 450 l 1025
450 450 m 1
 550 450 l 1
 550 500 l 1
 450 500 l 1
 450 450 l 1025
50 400 m 1
 150 400 l 1
 150 450 l 1
 50 450 l 1
 50 400 l 1025
450 400 m 1
 550 400 l 1
 550 450 l 1
 450 450 l 1
 450 400 l 1025
50 350 m 1
 150 350 l 1
 150 400 l 1
 50 400 l 1
 50 350 l 1025
450 350 m 1
 550 350 l 1
 550 400 l 1
 450 400 l 1
 450 350 l 1025
50 300 m 1
 150 300 l 1
 150 350 l 1
 50 350 l 1
 50 300 l 1025
450 300 m 1
 550 300 l 1
 550 350 l 1
 450 350 l 1
 450 300 l 1025
50 250 m 1
 150 250 l 1
 150 300 l 1
 50 300 l 1
 50 250 l 1025
450 250 m 1
 550 250 l 1
 550 300 l 1
 450 300 l 1
 450 250 l 1025
50 200 m 1
 150 200 l 1
 150 250 l 1
 50 250 l 1
 50 200 l 1025
450 200 m 1
 550 200 l 1
 550 250 l 1
 450 250 l 1
 450 200 l 1025
100 150 m 1
 150 150 l 1
 150 200 l 1
 100 200 l 1
 100 150 l 1025
450 150 m 1
 500 150 l 1
 500 200 l 1
 450 200 l 1
 450 150 l 1025
100 100 m 1
 200 100 l 1
 200 150 l 1
 100 150 l 1
 100 100 l 1025
400 100 m 1
 500 100 l 1
 500 150 l 1
 400 150 l 1
 400 100 l 1025
150 50 m 1
 200 50 l 1
 200 100 l 1
 150 100 l 1
 150 50 l 1025
400 50 m 1
 450 50 l 1
 450 100 l 1
 400 100 l 1
 400 50 l 1025
200 0 m 1
 400 0 l 1
 400 50 l 1
 200 50 l 1
 200 0 l 1
EndSplineSet
EndChar

StartChar: one
Encoding: 49 49 18
Width: 900
VWidth: 0
Flags: HW
LayerCount: 2
Back
Fore
SplineSet
350 650 m 1
 400 650 l 1
 400 700 l 1
 350 700 l 1
 350 650 l 1025
150 600 m 1
 400 600 l 1
 400 650 l 1
 150 650 l 1
 150 600 l 1025
100 550 m 1
 150 550 l 1
 150 600 l 1
 100 600 l 1
 100 550 l 1025
300 550 m 1
 400 550 l 1
 400 600 l 1
 300 600 l 1
 300 550 l 1025
300 500 m 1
 400 500 l 1
 400 550 l 1
 300 550 l 1
 300 500 l 1025
300 450 m 1
 400 450 l 1
 400 500 l 1
 300 500 l 1
 300 450 l 1025
300 400 m 1
 400 400 l 1
 400 450 l 1
 300 450 l 1
 300 400 l 1025
300 350 m 1
 400 350 l 1
 400 400 l 1
 300 400 l 1
 300 350 l 1025
300 300 m 1
 400 300 l 1
 400 350 l 1
 300 350 l 1
 300 300 l 1025
300 250 m 1
 400 250 l 1
 400 300 l 1
 300 300 l 1
 300 250 l 1025
300 200 m 1
 400 200 l 1
 400 250 l 1
 300 250 l 1
 300 200 l 1025
300 150 m 1
 400 150 l 1
 400 200 l 1
 300 200 l 1
 300 150 l 1025
300 100 m 1
 400 100 l 1
 400 150 l 1
 300 150 l 1
 300 100 l 1025
300 50 m 1
 400 50 l 1
 400 100 l 1
 300 100 l 1
 300 50 l 1025
100 0 m 1
 600 0 l 1
 600 50 l 1
 100 50 l 1
 100 0 l 1
EndSplineSet
EndChar

StartChar: two
Encoding: 50 50 19
Width: 900
VWidth: 0
Flags: HW
LayerCount: 2
Back
Fore
SplineSet
150 650 m 1
 400 650 l 1
 400 700 l 1
 150 700 l 1
 150 650 l 1025
100 600 m 1
 150 600 l 1
 150 650 l 1
 100 650 l 1
 100 600 l 1025
350 600 m 1
 450 600 l 1
 450 650 l 1
 350 650 l 1
 350 600 l 1025
400 550 m 1
 500 550 l 1
 500 600 l 1
 400 600 l 1
 400 550 l 1025
400 500 m 1
 500 500 l 1
 500 550 l 1
 400 550 l 1
 400 500 l 1025
400 450 m 1
 500 450 l 1
 500 500 l 1
 400 500 l 1
 400 450 l 1025
400 400 m 1
 500 400 l 1
 500 450 l 1
 400 450 l 1
 400 400 l 1025
350 350 m 1
 450 350 l 1
 450 400 l 1
 350 400 l 1
 350 350 l 1025
300 300 m 1
 400 300 l 1
 400 350 l 1
 300 350 l 1
 300 300 l 1025
250 250 m 1
 350 250 l 1
 350 300 l 1
 250 300 l 1
 250 250 l 1025
200 200 m 1
 300 200 l 1
 300 250 l 1
 200 250 l 1
 200 200 l 1025
150 150 m 1
 250 150 l 1
 250 200 l 1
 150 200 l 1
 150 150 l 1025
150 100 m 1
 250 100 l 1
 250 150 l 1
 150 150 l 1
 150 100 l 1025
100 50 m 1
 200 50 l 1
 200 100 l 1
 100 100 l 1
 100 50 l 1025
100 0 m 1
 500 0 l 1
 500 50 l 1
 100 50 l 1
 100 0 l 1
EndSplineSet
EndChar

StartChar: three
Encoding: 51 51 20
Width: 900
VWidth: 0
Flags: HW
LayerCount: 2
Back
Fore
SplineSet
100 650 m 1
 400 650 l 1
 400 700 l 1
 100 700 l 1
 100 650 l 1025
100 600 m 1
 150 600 l 1
 150 650 l 1
 100 650 l 1
 100 600 l 1025
350 600 m 1
 500 600 l 1
 500 650 l 1
 350 650 l 1
 350 600 l 1025
400 550 m 1
 500 550 l 1
 500 600 l 1
 400 600 l 1
 400 550 l 1025
400 500 m 1
 500 500 l 1
 500 550 l 1
 400 550 l 1
 400 500 l 1025
400 450 m 1
 500 450 l 1
 500 500 l 1
 400 500 l 1
 400 450 l 1025
350 400 m 1
 450 400 l 1
 450 450 l 1
 350 450 l 1
 350 400 l 1025
150 350 m 1
 350 350 l 1
 350 400 l 1
 150 400 l 1
 150 350 l 1025
300 300 m 1
 450 300 l 1
 450 350 l 1
 300 350 l 1
 300 300 l 1025
400 250 m 1
 500 250 l 1
 500 300 l 1
 400 300 l 1
 400 250 l 1025
400 200 m 1
 500 200 l 1
 500 250 l 1
 400 250 l 1
 400 200 l 1025
400 150 m 1
 500 150 l 1
 500 200 l 1
 400 200 l 1
 400 150 l 1025
400 100 m 1
 500 100 l 1
 500 150 l 1
 400 150 l 1
 400 100 l 1025
100 50 m 1
 150 50 l 1
 150 100 l 1
 100 100 l 1
 100 50 l 1025
350 50 m 1
 450 50 l 1
 450 100 l 1
 350 100 l 1
 350 50 l 1025
100 0 m 1
 400 0 l 1
 400 50 l 1
 100 50 l 1
 100 0 l 1
EndSplineSet
EndChar

StartChar: four
Encoding: 52 52 21
Width: 900
VWidth: 0
Flags: HW
LayerCount: 2
Back
Fore
SplineSet
350 650 m 1
 450 650 l 1
 450 700 l 1
 350 700 l 1
 350 650 l 1025
300 600 m 1
 450 600 l 1
 450 650 l 1
 300 650 l 1
 300 600 l 1025
300 550 m 1
 450 550 l 1
 450 600 l 1
 300 600 l 1
 300 550 l 1025
250 500 m 1
 300 500 l 1
 300 550 l 1
 250 550 l 1
 250 500 l 1025
350 500 m 1
 450 500 l 1
 450 550 l 1
 350 550 l 1
 350 500 l 1025
200 450 m 1
 250 450 l 1
 250 500 l 1
 200 500 l 1
 200 450 l 1025
350 450 m 1
 450 450 l 1
 450 500 l 1
 350 500 l 1
 350 450 l 1025
150 400 m 1
 250 400 l 1
 250 450 l 1
 150 450 l 1
 150 400 l 1025
350 400 m 1
 450 400 l 1
 450 450 l 1
 350 450 l 1
 350 400 l 1025
150 350 m 1
 200 350 l 1
 200 400 l 1
 150 400 l 1
 150 350 l 1025
350 350 m 1
 450 350 l 1
 450 400 l 1
 350 400 l 1
 350 350 l 1025
100 300 m 1
 150 300 l 1
 150 350 l 1
 100 350 l 1
 100 300 l 1025
350 300 m 1
 450 300 l 1
 450 350 l 1
 350 350 l 1
 350 300 l 1025
50 250 m 1
 150 250 l 1
 150 300 l 1
 50 300 l 1
 50 250 l 1025
350 250 m 1
 450 250 l 1
 450 300 l 1
 350 300 l 1
 350 250 l 1025
50 200 m 1
 550 200 l 1
 550 250 l 1
 50 250 l 1
 50 200 l 1025
350 150 m 1
 450 150 l 1
 450 200 l 1
 350 200 l 1
 350 150 l 1025
350 100 m 1
 450 100 l 1
 450 150 l 1
 350 150 l 1
 350 100 l 1025
350 50 m 1
 450 50 l 1
 450 100 l 1
 350 100 l 1
 350 50 l 1025
350 0 m 1
 450 0 l 1
 450 50 l 1
 350 50 l 1
 350 0 l 1
EndSplineSet
EndChar

StartChar: five
Encoding: 53 53 22
Width: 900
VWidth: 0
Flags: HW
LayerCount: 2
Back
Fore
SplineSet
150 650 m 1
 500 650 l 1
 500 700 l 1
 150 700 l 1
 150 650 l 1025
150 600 m 1
 200 600 l 1
 200 650 l 1
 150 650 l 1
 150 600 l 1025
150 550 m 1
 200 550 l 1
 200 600 l 1
 150 600 l 1
 150 550 l 1025
150 500 m 1
 200 500 l 1
 200 550 l 1
 150 550 l 1
 150 500 l 1025
150 450 m 1
 200 450 l 1
 200 500 l 1
 150 500 l 1
 150 450 l 1025
150 400 m 1
 350 400 l 1
 350 450 l 1
 150 450 l 1
 150 400 l 1025
300 350 m 1
 450 350 l 1
 450 400 l 1
 300 400 l 1
 300 350 l 1025
350 300 m 1
 450 300 l 1
 450 350 l 1
 350 350 l 1
 350 300 l 1025
400 250 m 1
 500 250 l 1
 500 300 l 1
 400 300 l 1
 400 250 l 1025
400 200 m 1
 500 200 l 1
 500 250 l 1
 400 250 l 1
 400 200 l 1025
400 150 m 1
 500 150 l 1
 500 200 l 1
 400 200 l 1
 400 150 l 1025
400 100 m 1
 500 100 l 1
 500 150 l 1
 400 150 l 1
 400 100 l 1025
150 50 m 1
 200 50 l 1
 200 100 l 1
 150 100 l 1
 150 50 l 1025
350 50 m 1
 450 50 l 1
 450 100 l 1
 350 100 l 1
 350 50 l 1025
150 0 m 1
 400 0 l 1
 400 50 l 1
 150 50 l 1
 150 0 l 1
EndSplineSet
EndChar

StartChar: six
Encoding: 54 54 23
Width: 900
VWidth: 0
Flags: HW
LayerCount: 2
Back
Fore
SplineSet
250 650 m 1
 500 650 l 1
 500 700 l 1
 250 700 l 1
 250 650 l 1025
200 600 m 1
 300 600 l 1
 300 650 l 1
 200 650 l 1
 200 600 l 1025
450 600 m 1
 500 600 l 1
 500 650 l 1
 450 650 l 1
 450 600 l 1025
150 550 m 1
 250 550 l 1
 250 600 l 1
 150 600 l 1
 150 550 l 1025
150 500 m 1
 200 500 l 1
 200 550 l 1
 150 550 l 1
 150 500 l 1025
100 450 m 1
 200 450 l 1
 200 500 l 1
 100 500 l 1
 100 450 l 1025
100 400 m 1
 200 400 l 1
 200 450 l 1
 100 450 l 1
 100 400 l 1025
250 400 m 1
 450 400 l 1
 450 450 l 1
 250 450 l 1
 250 400 l 1025
100 350 m 1
 250 350 l 1
 250 400 l 1
 100 400 l 1
 100 350 l 1025
400 350 m 1
 500 350 l 1
 500 400 l 1
 400 400 l 1
 400 350 l 1025
100 300 m 1
 200 300 l 1
 200 350 l 1
 100 350 l 1
 100 300 l 1025
450 300 m 1
 550 300 l 1
 550 350 l 1
 450 350 l 1
 450 300 l 1025
100 250 m 1
 200 250 l 1
 200 300 l 1
 100 300 l 1
 100 250 l 1025
450 250 m 1
 550 250 l 1
 550 300 l 1
 450 300 l 1
 450 250 l 1025
100 200 m 1
 200 200 l 1
 200 250 l 1
 100 250 l 1
 100 200 l 1025
450 200 m 1
 550 200 l 1
 550 250 l 1
 450 250 l 1
 450 200 l 1025
100 150 m 1
 200 150 l 1
 200 200 l 1
 100 200 l 1
 100 150 l 1025
450 150 m 1
 550 150 l 1
 550 200 l 1
 450 200 l 1
 450 150 l 1025
150 100 m 1
 200 100 l 1
 200 150 l 1
 150 150 l 1
 150 100 l 1025
450 100 m 1
 550 100 l 1
 550 150 l 1
 450 150 l 1
 450 100 l 1025
150 50 m 1
 250 50 l 1
 250 100 l 1
 150 100 l 1
 150 50 l 1025
400 50 m 1
 500 50 l 1
 500 100 l 1
 400 100 l 1
 400 50 l 1025
250 0 m 1
 450 0 l 1
 450 50 l 1
 250 50 l 1
 250 0 l 1
EndSplineSet
EndChar

StartChar: seven
Encoding: 55 55 24
Width: 900
VWidth: 0
Flags: HW
LayerCount: 2
Back
Fore
SplineSet
100 650 m 1
 550 650 l 1
 550 700 l 1
 100 700 l 1
 100 650 l 1025
100 600 m 1
 550 600 l 1
 550 650 l 1
 100 650 l 1
 100 600 l 1025
450 550 m 1
 500 550 l 1
 500 600 l 1
 450 600 l 1
 450 550 l 1025
400 500 m 1
 500 500 l 1
 500 550 l 1
 400 550 l 1
 400 500 l 1025
400 450 m 1
 450 450 l 1
 450 500 l 1
 400 500 l 1
 400 450 l 1025
350 400 m 1
 400 400 l 1
 400 450 l 1
 350 450 l 1
 350 400 l 1025
350 350 m 1
 400 350 l 1
 400 400 l 1
 350 400 l 1
 350 350 l 1025
300 300 m 1
 350 300 l 1
 350 350 l 1
 300 350 l 1
 300 300 l 1025
250 250 m 1
 350 250 l 1
 350 300 l 1
 250 300 l 1
 250 250 l 1025
250 200 m 1
 300 200 l 1
 300 250 l 1
 250 250 l 1
 250 200 l 1025
200 150 m 1
 300 150 l 1
 300 200 l 1
 200 200 l 1
 200 150 l 1025
200 100 m 1
 300 100 l 1
 300 150 l 1
 200 150 l 1
 200 100 l 1025
150 50 m 1
 250 50 l 1
 250 100 l 1
 150 100 l 1
 150 50 l 1025
150 0 m 1
 250 0 l 1
 250 50 l 1
 150 50 l 1
 150 0 l 1
EndSplineSet
EndChar

StartChar: eight
Encoding: 56 56 25
Width: 900
VWidth: 0
Flags: HW
LayerCount: 2
Back
Fore
SplineSet
250 650 m 1
 450 650 l 1
 450 700 l 1
 250 700 l 1
 250 650 l 1025
200 600 m 1
 300 600 l 1
 300 650 l 1
 200 650 l 1
 200 600 l 1025
400 600 m 1
 500 600 l 1
 500 650 l 1
 400 650 l 1
 400 600 l 1025
150 550 m 1
 250 550 l 1
 250 600 l 1
 150 600 l 1
 150 550 l 1025
450 550 m 1
 500 550 l 1
 500 600 l 1
 450 600 l 1
 450 550 l 1025
150 500 m 1
 250 500 l 1
 250 550 l 1
 150 550 l 1
 150 500 l 1025
450 500 m 1
 500 500 l 1
 500 550 l 1
 450 550 l 1
 450 500 l 1025
150 450 m 1
 300 450 l 1
 300 500 l 1
 150 500 l 1
 150 450 l 1025
400 450 m 1
 500 450 l 1
 500 500 l 1
 400 500 l 1
 400 450 l 1025
200 400 m 1
 450 400 l 1
 450 450 l 1
 200 450 l 1
 200 400 l 1025
250 350 m 1
 400 350 l 1
 400 400 l 1
 250 400 l 1
 250 350 l 1025
200 300 m 1
 250 300 l 1
 250 350 l 1
 200 350 l 1
 200 300 l 1025
300 300 m 1
 500 300 l 1
 500 350 l 1
 300 350 l 1
 300 300 l 1025
150 250 m 1
 200 250 l 1
 200 300 l 1
 150 300 l 1
 150 250 l 1025
400 250 m 1
 550 250 l 1
 550 300 l 1
 400 300 l 1
 400 250 l 1025
100 200 m 1
 200 200 l 1
 200 250 l 1
 100 250 l 1
 100 200 l 1025
450 200 m 1
 550 200 l 1
 550 250 l 1
 450 250 l 1
 450 200 l 1025
100 150 m 1
 200 150 l 1
 200 200 l 1
 100 200 l 1
 100 150 l 1025
450 150 m 1
 550 150 l 1
 550 200 l 1
 450 200 l 1
 450 150 l 1025
100 100 m 1
 200 100 l 1
 200 150 l 1
 100 150 l 1
 100 100 l 1025
450 100 m 1
 550 100 l 1
 550 150 l 1
 450 150 l 1
 450 100 l 1025
150 50 m 1
 250 50 l 1
 250 100 l 1
 150 100 l 1
 150 50 l 1025
400 50 m 1
 500 50 l 1
 500 100 l 1
 400 100 l 1
 400 50 l 1025
200 0 m 1
 450 0 l 1
 450 50 l 1
 200 50 l 1
 200 0 l 1
EndSplineSet
EndChar

StartChar: nine
Encoding: 57 57 26
Width: 900
VWidth: 0
Flags: HW
LayerCount: 2
Back
Fore
SplineSet
200 650 m 1
 400 650 l 1
 400 700 l 1
 200 700 l 1
 200 650 l 1025
150 600 m 1
 250 600 l 1
 250 650 l 1
 150 650 l 1
 150 600 l 1025
400 600 m 1
 500 600 l 1
 500 650 l 1
 400 650 l 1
 400 600 l 1025
100 550 m 1
 200 550 l 1
 200 600 l 1
 100 600 l 1
 100 550 l 1025
450 550 m 1
 500 550 l 1
 500 600 l 1
 450 600 l 1
 450 550 l 1025
100 500 m 1
 200 500 l 1
 200 550 l 1
 100 550 l 1
 100 500 l 1025
450 500 m 1
 550 500 l 1
 550 550 l 1
 450 550 l 1
 450 500 l 1025
100 450 m 1
 200 450 l 1
 200 500 l 1
 100 500 l 1
 100 450 l 1025
450 450 m 1
 550 450 l 1
 550 500 l 1
 450 500 l 1
 450 450 l 1025
100 400 m 1
 200 400 l 1
 200 450 l 1
 100 450 l 1
 100 400 l 1025
450 400 m 1
 550 400 l 1
 550 450 l 1
 450 450 l 1
 450 400 l 1025
100 350 m 1
 200 350 l 1
 200 400 l 1
 100 400 l 1
 100 350 l 1025
450 350 m 1
 550 350 l 1
 550 400 l 1
 450 400 l 1
 450 350 l 1025
150 300 m 1
 250 300 l 1
 250 350 l 1
 150 350 l 1
 150 300 l 1025
400 300 m 1
 550 300 l 1
 550 350 l 1
 400 350 l 1
 400 300 l 1025
200 250 m 1
 400 250 l 1
 400 300 l 1
 200 300 l 1
 200 250 l 1025
450 250 m 1
 550 250 l 1
 550 300 l 1
 450 300 l 1
 450 250 l 1025
450 200 m 1
 550 200 l 1
 550 250 l 1
 450 250 l 1
 450 200 l 1025
450 150 m 1
 500 150 l 1
 500 200 l 1
 450 200 l 1
 450 150 l 1025
400 100 m 1
 500 100 l 1
 500 150 l 1
 400 150 l 1
 400 100 l 1025
150 50 m 1
 200 50 l 1
 200 100 l 1
 150 100 l 1
 150 50 l 1025
350 50 m 1
 450 50 l 1
 450 100 l 1
 350 100 l 1
 350 50 l 1025
150 0 m 1
 400 0 l 1
 400 50 l 1
 150 50 l 1
 150 0 l 1
EndSplineSet
EndChar

StartChar: colon
Encoding: 58 58 27
Width: 900
VWidth: 0
Flags: HW
LayerCount: 2
Back
Fore
SplineSet
200 500 m 1
 350 500 l 1
 350 550 l 1
 200 550 l 1
 200 500 l 1025
200 450 m 1
 350 450 l 1
 350 500 l 1
 200 500 l 1
 200 450 l 1025
200 400 m 1
 350 400 l 1
 350 450 l 1
 200 450 l 1
 200 400 l 1025
200 100 m 1
 350 100 l 1
 350 150 l 1
 200 150 l 1
 200 100 l 1025
200 50 m 1
 350 50 l 1
 350 100 l 1
 200 100 l 1
 200 50 l 1025
200 0 m 1
 350 0 l 1
 350 50 l 1
 200 50 l 1
 200 0 l 1
EndSplineSet
EndChar

StartChar: semicolon
Encoding: 59 59 28
Width: 900
VWidth: 0
Flags: HW
LayerCount: 2
Back
Fore
SplineSet
200 500 m 1
 350 500 l 1
 350 550 l 1
 200 550 l 1
 200 500 l 1025
200 450 m 1
 350 450 l 1
 350 500 l 1
 200 500 l 1
 200 450 l 1025
200 400 m 1
 350 400 l 1
 350 450 l 1
 200 450 l 1
 200 400 l 1025
200 100 m 1
 350 100 l 1
 350 150 l 1
 200 150 l 1
 200 100 l 1025
200 50 m 1
 350 50 l 1
 350 100 l 1
 200 100 l 1
 200 50 l 1025
200 0 m 1
 350 0 l 1
 350 50 l 1
 200 50 l 1
 200 0 l 1025
300 -50 m 1
 350 -50 l 1
 350 0 l 1
 300 0 l 1
 300 -50 l 1025
250 -100 m 1
 350 -100 l 1
 350 -50 l 1
 250 -50 l 1
 250 -100 l 1025
200 -150 m 1
 300 -150 l 1
 300 -100 l 1
 200 -100 l 1
 200 -150 l 1
EndSplineSet
EndChar

StartChar: less
Encoding: 60 60 29
Width: 900
VWidth: 0
Flags: HW
LayerCount: 2
Back
Fore
SplineSet
400 500 m 1
 450 500 l 1
 450 550 l 1
 400 550 l 1
 400 500 l 1025
350 450 m 1
 450 450 l 1
 450 500 l 1
 350 500 l 1
 350 450 l 1025
250 400 m 1
 350 400 l 1
 350 450 l 1
 250 450 l 1
 250 400 l 1025
150 350 m 1
 250 350 l 1
 250 400 l 1
 150 400 l 1
 150 350 l 1025
50 300 m 1
 150 300 l 1
 150 350 l 1
 50 350 l 1
 50 300 l 1025
0 250 m 1
 100 250 l 1
 100 300 l 1
 0 300 l 1
 0 250 l 1025
50 200 m 1
 150 200 l 1
 150 250 l 1
 50 250 l 1
 50 200 l 1025
150 150 m 1
 250 150 l 1
 250 200 l 1
 150 200 l 1
 150 150 l 1025
250 100 m 1
 350 100 l 1
 350 150 l 1
 250 150 l 1
 250 100 l 1025
350 50 m 1
 450 50 l 1
 450 100 l 1
 350 100 l 1
 350 50 l 1025
400 0 m 1
 450 0 l 1
 450 50 l 1
 400 50 l 1
 400 0 l 1
EndSplineSet
EndChar

StartChar: equal
Encoding: 61 61 30
Width: 900
VWidth: 0
Flags: HW
LayerCount: 2
Back
Fore
SplineSet
50 350 m 1
 550 350 l 1
 550 400 l 1
 50 400 l 1
 50 350 l 1025
50 150 m 1
 550 150 l 1
 550 200 l 1
 50 200 l 1
 50 150 l 1
EndSplineSet
EndChar

StartChar: greater
Encoding: 62 62 31
Width: 900
VWidth: 0
Flags: HW
LayerCount: 2
Back
Fore
SplineSet
50 500 m 1
 100 500 l 1
 100 550 l 1
 50 550 l 1
 50 500 l 1025
50 450 m 1
 150 450 l 1
 150 500 l 1
 50 500 l 1
 50 450 l 1025
150 400 m 1
 250 400 l 1
 250 450 l 1
 150 450 l 1
 150 400 l 1025
250 350 m 1
 350 350 l 1
 350 400 l 1
 250 400 l 1
 250 350 l 1025
350 300 m 1
 450 300 l 1
 450 350 l 1
 350 350 l 1
 350 300 l 1025
400 250 m 1
 500 250 l 1
 500 300 l 1
 400 300 l 1
 400 250 l 1025
350 200 m 1
 450 200 l 1
 450 250 l 1
 350 250 l 1
 350 200 l 1025
250 150 m 1
 350 150 l 1
 350 200 l 1
 250 200 l 1
 250 150 l 1025
150 100 m 1
 250 100 l 1
 250 150 l 1
 150 150 l 1
 150 100 l 1025
50 50 m 1
 150 50 l 1
 150 100 l 1
 50 100 l 1
 50 50 l 1025
50 0 m 1
 100 0 l 1
 100 50 l 1
 50 50 l 1
 50 0 l 1
EndSplineSet
EndChar

StartChar: question
Encoding: 63 63 32
Width: 900
VWidth: 0
Flags: HW
LayerCount: 2
Back
Fore
SplineSet
100 650 m 1
 450 650 l 1
 450 700 l 1
 100 700 l 1
 100 650 l 1025
100 600 m 1
 150 600 l 1
 150 650 l 1
 100 650 l 1
 100 600 l 1025
400 600 m 1
 500 600 l 1
 500 650 l 1
 400 650 l 1
 400 600 l 1025
100 550 m 1
 150 550 l 1
 150 600 l 1
 100 600 l 1
 100 550 l 1025
450 550 m 1
 550 550 l 1
 550 600 l 1
 450 600 l 1
 450 550 l 1025
450 500 m 1
 550 500 l 1
 550 550 l 1
 450 550 l 1
 450 500 l 1025
450 450 m 1
 500 450 l 1
 500 500 l 1
 450 500 l 1
 450 450 l 1025
400 400 m 1
 450 400 l 1
 450 450 l 1
 400 450 l 1
 400 400 l 1025
350 350 m 1
 400 350 l 1
 400 400 l 1
 350 400 l 1
 350 350 l 1025
300 300 m 1
 350 300 l 1
 350 350 l 1
 300 350 l 1
 300 300 l 1025
250 250 m 1
 350 250 l 1
 350 300 l 1
 250 300 l 1
 250 250 l 1025
250 200 m 1
 350 200 l 1
 350 250 l 1
 250 250 l 1
 250 200 l 1025
250 50 m 1
 350 50 l 1
 350 100 l 1
 250 100 l 1
 250 50 l 1025
250 0 m 1
 350 0 l 1
 350 50 l 1
 250 50 l 1
 250 0 l 1
EndSplineSet
EndChar

StartChar: at
Encoding: 64 64 33
Width: 900
VWidth: 0
Flags: HW
LayerCount: 2
Back
Fore
SplineSet
250 650 m 1
 500 650 l 1
 500 700 l 1
 250 700 l 1
 250 650 l 1025
150 600 m 1
 250 600 l 1
 250 650 l 1
 150 650 l 1
 150 600 l 1025
450 600 m 1
 550 600 l 1
 550 650 l 1
 450 650 l 1
 450 600 l 1025
100 550 m 1
 200 550 l 1
 200 600 l 1
 100 600 l 1
 100 550 l 1025
500 550 m 1
 550 550 l 1
 550 600 l 1
 500 600 l 1
 500 550 l 1025
100 500 m 1
 150 500 l 1
 150 550 l 1
 100 550 l 1
 100 500 l 1025
350 500 m 1
 550 500 l 1
 550 550 l 1
 350 550 l 1
 350 500 l 1025
50 450 m 1
 100 450 l 1
 100 500 l 1
 50 500 l 1
 50 450 l 1025
300 450 m 1
 350 450 l 1
 350 500 l 1
 300 500 l 1
 300 450 l 1025
500 450 m 1
 550 450 l 1
 550 500 l 1
 500 500 l 1
 500 450 l 1025
50 400 m 1
 100 400 l 1
 100 450 l 1
 50 450 l 1
 50 400 l 1025
250 400 m 1
 300 400 l 1
 300 450 l 1
 250 450 l 1
 250 400 l 1025
500 400 m 1
 550 400 l 1
 550 450 l 1
 500 450 l 1
 500 400 l 1025
50 350 m 1
 100 350 l 1
 100 400 l 1
 50 400 l 1
 50 350 l 1025
250 350 m 1
 300 350 l 1
 300 400 l 1
 250 400 l 1
 250 350 l 1025
500 350 m 1
 550 350 l 1
 550 400 l 1
 500 400 l 1
 500 350 l 1025
50 300 m 1
 100 300 l 1
 100 350 l 1
 50 350 l 1
 50 300 l 1025
250 300 m 1
 300 300 l 1
 300 350 l 1
 250 350 l 1
 250 300 l 1025
450 300 m 1
 550 300 l 1
 550 350 l 1
 450 350 l 1
 450 300 l 1025
50 250 m 1
 100 250 l 1
 100 300 l 1
 50 300 l 1
 50 250 l 1025
250 250 m 1
 300 250 l 1
 300 300 l 1
 250 300 l 1
 250 250 l 1025
450 250 m 1
 550 250 l 1
 550 300 l 1
 450 300 l 1
 450 250 l 1025
50 200 m 1
 100 200 l 1
 100 250 l 1
 50 250 l 1
 50 200 l 1025
250 200 m 1
 300 200 l 1
 300 250 l 1
 250 250 l 1
 250 200 l 1025
400 200 m 1
 550 200 l 1
 550 250 l 1
 400 250 l 1
 400 200 l 1025
100 150 m 1
 150 150 l 1
 150 200 l 1
 100 200 l 1
 100 150 l 1025
300 150 m 1
 450 150 l 1
 450 200 l 1
 300 200 l 1
 300 150 l 1025
500 150 m 1
 600 150 l 1
 600 200 l 1
 500 200 l 1
 500 150 l 1025
100 100 m 1
 150 100 l 1
 150 150 l 1
 100 150 l 1
 100 100 l 1025
150 50 m 1
 250 50 l 1
 250 100 l 1
 150 100 l 1
 150 50 l 1025
450 50 m 1
 500 50 l 1
 500 100 l 1
 450 100 l 1
 450 50 l 1025
200 0 m 1
 450 0 l 1
 450 50 l 1
 200 50 l 1
 200 0 l 1
EndSplineSet
EndChar

StartChar: A
Encoding: 65 65 34
Width: 900
VWidth: 0
Flags: HW
LayerCount: 2
Back
Fore
SplineSet
250 650 m 1
 350 650 l 1
 350 700 l 1
 250 700 l 1
 250 650 l 1025
250 600 m 1
 400 600 l 1
 400 650 l 1
 250 650 l 1
 250 600 l 1025
200 550 m 1
 250 550 l 1
 250 600 l 1
 200 600 l 1
 200 550 l 1025
300 550 m 1
 400 550 l 1
 400 600 l 1
 300 600 l 1
 300 550 l 1025
200 500 m 1
 250 500 l 1
 250 550 l 1
 200 550 l 1
 200 500 l 1025
300 500 m 1
 400 500 l 1
 400 550 l 1
 300 550 l 1
 300 500 l 1025
200 450 m 1
 250 450 l 1
 250 500 l 1
 200 500 l 1
 200 450 l 1025
350 450 m 1
 450 450 l 1
 450 500 l 1
 350 500 l 1
 350 450 l 1025
150 400 m 1
 200 400 l 1
 200 450 l 1
 150 450 l 1
 150 400 l 1025
350 400 m 1
 450 400 l 1
 450 450 l 1
 350 450 l 1
 350 400 l 1025
150 350 m 1
 200 350 l 1
 200 400 l 1
 150 400 l 1
 150 350 l 1025
350 350 m 1
 450 350 l 1
 450 400 l 1
 350 400 l 1
 350 350 l 1025
150 300 m 1
 200 300 l 1
 200 350 l 1
 150 350 l 1
 150 300 l 1025
400 300 m 1
 500 300 l 1
 500 350 l 1
 400 350 l 1
 400 300 l 1025
100 250 m 1
 150 250 l 1
 150 300 l 1
 100 300 l 1
 100 250 l 1025
400 250 m 1
 500 250 l 1
 500 300 l 1
 400 300 l 1
 400 250 l 1025
100 200 m 1
 500 200 l 1
 500 250 l 1
 100 250 l 1
 100 200 l 1025
100 150 m 1
 150 150 l 1
 150 200 l 1
 100 200 l 1
 100 150 l 1025
450 150 m 1
 550 150 l 1
 550 200 l 1
 450 200 l 1
 450 150 l 1025
50 100 m 1
 100 100 l 1
 100 150 l 1
 50 150 l 1
 50 100 l 1025
450 100 m 1
 550 100 l 1
 550 150 l 1
 450 150 l 1
 450 100 l 1025
50 50 m 1
 100 50 l 1
 100 100 l 1
 50 100 l 1
 50 50 l 1025
450 50 m 1
 600 50 l 1
 600 100 l 1
 450 100 l 1
 450 50 l 1025
0 0 m 1
 100 0 l 1
 100 50 l 1
 0 50 l 1
 0 0 l 1025
500 0 m 1
 600 0 l 1
 600 50 l 1
 500 50 l 1
 500 0 l 1
EndSplineSet
EndChar

StartChar: B
Encoding: 66 66 35
Width: 900
VWidth: 0
Flags: HW
LayerCount: 2
Back
Fore
SplineSet
100 650 m 1
 450 650 l 1
 450 700 l 1
 100 700 l 1
 100 650 l 1025
100 600 m 1
 200 600 l 1
 200 650 l 1
 100 650 l 1
 100 600 l 1025
350 600 m 1
 500 600 l 1
 500 650 l 1
 350 650 l 1
 350 600 l 1025
100 550 m 1
 200 550 l 1
 200 600 l 1
 100 600 l 1
 100 550 l 1025
400 550 m 1
 500 550 l 1
 500 600 l 1
 400 600 l 1
 400 550 l 1025
100 500 m 1
 200 500 l 1
 200 550 l 1
 100 550 l 1
 100 500 l 1025
400 500 m 1
 500 500 l 1
 500 550 l 1
 400 550 l 1
 400 500 l 1025
100 450 m 1
 200 450 l 1
 200 500 l 1
 100 500 l 1
 100 450 l 1025
400 450 m 1
 500 450 l 1
 500 500 l 1
 400 500 l 1
 400 450 l 1025
100 400 m 1
 200 400 l 1
 200 450 l 1
 100 450 l 1
 100 400 l 1025
350 400 m 1
 450 400 l 1
 450 450 l 1
 350 450 l 1
 350 400 l 1025
100 350 m 1
 400 350 l 1
 400 400 l 1
 100 400 l 1
 100 350 l 1025
100 300 m 1
 200 300 l 1
 200 350 l 1
 100 350 l 1
 100 300 l 1025
350 300 m 1
 450 300 l 1
 450 350 l 1
 350 350 l 1
 350 300 l 1025
100 250 m 1
 200 250 l 1
 200 300 l 1
 100 300 l 1
 100 250 l 1025
400 250 m 1
 500 250 l 1
 500 300 l 1
 400 300 l 1
 400 250 l 1025
100 200 m 1
 200 200 l 1
 200 250 l 1
 100 250 l 1
 100 200 l 1025
450 200 m 1
 550 200 l 1
 550 250 l 1
 450 250 l 1
 450 200 l 1025
100 150 m 1
 200 150 l 1
 200 200 l 1
 100 200 l 1
 100 150 l 1025
450 150 m 1
 550 150 l 1
 550 200 l 1
 450 200 l 1
 450 150 l 1025
100 100 m 1
 200 100 l 1
 200 150 l 1
 100 150 l 1
 100 100 l 1025
450 100 m 1
 550 100 l 1
 550 150 l 1
 450 150 l 1
 450 100 l 1025
100 50 m 1
 200 50 l 1
 200 100 l 1
 100 100 l 1
 100 50 l 1025
400 50 m 1
 500 50 l 1
 500 100 l 1
 400 100 l 1
 400 50 l 1025
100 0 m 1
 450 0 l 1
 450 50 l 1
 100 50 l 1
 100 0 l 1
EndSplineSet
EndChar

StartChar: C
Encoding: 67 67 36
Width: 900
VWidth: 0
Flags: HW
LayerCount: 2
Back
Fore
SplineSet
250 650 m 1
 550 650 l 1
 550 700 l 1
 250 700 l 1
 250 650 l 1025
150 600 m 1
 300 600 l 1
 300 650 l 1
 150 650 l 1
 150 600 l 1025
500 600 m 1
 550 600 l 1
 550 650 l 1
 500 650 l 1
 500 600 l 1025
100 550 m 1
 200 550 l 1
 200 600 l 1
 100 600 l 1
 100 550 l 1025
100 500 m 1
 200 500 l 1
 200 550 l 1
 100 550 l 1
 100 500 l 1025
50 450 m 1
 150 450 l 1
 150 500 l 1
 50 500 l 1
 50 450 l 1025
50 400 m 1
 150 400 l 1
 150 450 l 1
 50 450 l 1
 50 400 l 1025
50 350 m 1
 150 350 l 1
 150 400 l 1
 50 400 l 1
 50 350 l 1025
50 300 m 1
 150 300 l 1
 150 350 l 1
 50 350 l 1
 50 300 l 1025
50 250 m 1
 150 250 l 1
 150 300 l 1
 50 300 l 1
 50 250 l 1025
50 200 m 1
 150 200 l 1
 150 250 l 1
 50 250 l 1
 50 200 l 1025
100 150 m 1
 200 150 l 1
 200 200 l 1
 100 200 l 1
 100 150 l 1025
100 100 m 1
 200 100 l 1
 200 150 l 1
 100 150 l 1
 100 100 l 1025
150 50 m 1
 300 50 l 1
 300 100 l 1
 150 100 l 1
 150 50 l 1025
500 50 m 1
 550 50 l 1
 550 100 l 1
 500 100 l 1
 500 50 l 1025
250 0 m 1
 550 0 l 1
 550 50 l 1
 250 50 l 1
 250 0 l 1
EndSplineSet
EndChar

StartChar: D
Encoding: 68 68 37
Width: 900
VWidth: 0
Flags: HW
LayerCount: 2
Back
Fore
SplineSet
50 650 m 1
 400 650 l 1
 400 700 l 1
 50 700 l 1
 50 650 l 1025
50 600 m 1
 150 600 l 1
 150 650 l 1
 50 650 l 1
 50 600 l 1025
350 600 m 1
 450 600 l 1
 450 650 l 1
 350 650 l 1
 350 600 l 1025
50 550 m 1
 150 550 l 1
 150 600 l 1
 50 600 l 1
 50 550 l 1025
400 550 m 1
 500 550 l 1
 500 600 l 1
 400 600 l 1
 400 550 l 1025
50 500 m 1
 150 500 l 1
 150 550 l 1
 50 550 l 1
 50 500 l 1025
450 500 m 1
 550 500 l 1
 550 550 l 1
 450 550 l 1
 450 500 l 1025
50 450 m 1
 150 450 l 1
 150 500 l 1
 50 500 l 1
 50 450 l 1025
450 450 m 1
 550 450 l 1
 550 500 l 1
 450 500 l 1
 450 450 l 1025
50 400 m 1
 150 400 l 1
 150 450 l 1
 50 450 l 1
 50 400 l 1025
450 400 m 1
 550 400 l 1
 550 450 l 1
 450 450 l 1
 450 400 l 1025
50 350 m 1
 150 350 l 1
 150 400 l 1
 50 400 l 1
 50 350 l 1025
450 350 m 1
 550 350 l 1
 550 400 l 1
 450 400 l 1
 450 350 l 1025
50 300 m 1
 150 300 l 1
 150 350 l 1
 50 350 l 1
 50 300 l 1025
450 300 m 1
 550 300 l 1
 550 350 l 1
 450 350 l 1
 450 300 l 1025
50 250 m 1
 150 250 l 1
 150 300 l 1
 50 300 l 1
 50 250 l 1025
450 250 m 1
 550 250 l 1
 550 300 l 1
 450 300 l 1
 450 250 l 1025
50 200 m 1
 150 200 l 1
 150 250 l 1
 50 250 l 1
 50 200 l 1025
450 200 m 1
 550 200 l 1
 550 250 l 1
 450 250 l 1
 450 200 l 1025
50 150 m 1
 150 150 l 1
 150 200 l 1
 50 200 l 1
 50 150 l 1025
400 150 m 1
 500 150 l 1
 500 200 l 1
 400 200 l 1
 400 150 l 1025
50 100 m 1
 150 100 l 1
 150 150 l 1
 50 150 l 1
 50 100 l 1025
400 100 m 1
 500 100 l 1
 500 150 l 1
 400 150 l 1
 400 100 l 1025
50 50 m 1
 150 50 l 1
 150 100 l 1
 50 100 l 1
 50 50 l 1025
350 50 m 1
 450 50 l 1
 450 100 l 1
 350 100 l 1
 350 50 l 1025
50 0 m 1
 400 0 l 1
 400 50 l 1
 50 50 l 1
 50 0 l 1
EndSplineSet
EndChar

StartChar: E
Encoding: 69 69 38
Width: 900
VWidth: 0
Flags: HW
LayerCount: 2
Back
Fore
SplineSet
100 650 m 1
 550 650 l 1
 550 700 l 1
 100 700 l 1
 100 650 l 1025
100 600 m 1
 200 600 l 1
 200 650 l 1
 100 650 l 1
 100 600 l 1025
100 550 m 1
 200 550 l 1
 200 600 l 1
 100 600 l 1
 100 550 l 1025
100 500 m 1
 200 500 l 1
 200 550 l 1
 100 550 l 1
 100 500 l 1025
100 450 m 1
 200 450 l 1
 200 500 l 1
 100 500 l 1
 100 450 l 1025
100 400 m 1
 200 400 l 1
 200 450 l 1
 100 450 l 1
 100 400 l 1025
100 350 m 1
 500 350 l 1
 500 400 l 1
 100 400 l 1
 100 350 l 1025
100 300 m 1
 200 300 l 1
 200 350 l 1
 100 350 l 1
 100 300 l 1025
100 250 m 1
 200 250 l 1
 200 300 l 1
 100 300 l 1
 100 250 l 1025
100 200 m 1
 200 200 l 1
 200 250 l 1
 100 250 l 1
 100 200 l 1025
100 150 m 1
 200 150 l 1
 200 200 l 1
 100 200 l 1
 100 150 l 1025
100 100 m 1
 200 100 l 1
 200 150 l 1
 100 150 l 1
 100 100 l 1025
100 50 m 1
 200 50 l 1
 200 100 l 1
 100 100 l 1
 100 50 l 1025
100 0 m 1
 550 0 l 1
 550 50 l 1
 100 50 l 1
 100 0 l 1
EndSplineSet
EndChar

StartChar: F
Encoding: 70 70 39
Width: 900
VWidth: 0
Flags: HW
LayerCount: 2
Back
Fore
SplineSet
100 650 m 1
 550 650 l 1
 550 700 l 1
 100 700 l 1
 100 650 l 1025
100 600 m 1
 200 600 l 1
 200 650 l 1
 100 650 l 1
 100 600 l 1025
100 550 m 1
 200 550 l 1
 200 600 l 1
 100 600 l 1
 100 550 l 1025
100 500 m 1
 200 500 l 1
 200 550 l 1
 100 550 l 1
 100 500 l 1025
100 450 m 1
 200 450 l 1
 200 500 l 1
 100 500 l 1
 100 450 l 1025
100 400 m 1
 200 400 l 1
 200 450 l 1
 100 450 l 1
 100 400 l 1025
100 350 m 1
 500 350 l 1
 500 400 l 1
 100 400 l 1
 100 350 l 1025
100 300 m 1
 200 300 l 1
 200 350 l 1
 100 350 l 1
 100 300 l 1025
100 250 m 1
 200 250 l 1
 200 300 l 1
 100 300 l 1
 100 250 l 1025
100 200 m 1
 200 200 l 1
 200 250 l 1
 100 250 l 1
 100 200 l 1025
100 150 m 1
 200 150 l 1
 200 200 l 1
 100 200 l 1
 100 150 l 1025
100 100 m 1
 200 100 l 1
 200 150 l 1
 100 150 l 1
 100 100 l 1025
100 50 m 1
 200 50 l 1
 200 100 l 1
 100 100 l 1
 100 50 l 1025
100 0 m 1
 200 0 l 1
 200 50 l 1
 100 50 l 1
 100 0 l 1
EndSplineSet
EndChar

StartChar: G
Encoding: 71 71 40
Width: 900
VWidth: 0
Flags: HW
LayerCount: 2
Back
Fore
SplineSet
250 650 m 1
 550 650 l 1
 550 700 l 1
 250 700 l 1
 250 650 l 1025
150 600 m 1
 250 600 l 1
 250 650 l 1
 150 650 l 1
 150 600 l 1025
500 600 m 1
 550 600 l 1
 550 650 l 1
 500 650 l 1
 500 600 l 1025
100 550 m 1
 200 550 l 1
 200 600 l 1
 100 600 l 1
 100 550 l 1025
100 500 m 1
 200 500 l 1
 200 550 l 1
 100 550 l 1
 100 500 l 1025
50 450 m 1
 150 450 l 1
 150 500 l 1
 50 500 l 1
 50 450 l 1025
50 400 m 1
 150 400 l 1
 150 450 l 1
 50 450 l 1
 50 400 l 1025
50 350 m 1
 150 350 l 1
 150 400 l 1
 50 400 l 1
 50 350 l 1025
50 300 m 1
 150 300 l 1
 150 350 l 1
 50 350 l 1
 50 300 l 1025
50 250 m 1
 150 250 l 1
 150 300 l 1
 50 300 l 1
 50 250 l 1025
450 250 m 1
 550 250 l 1
 550 300 l 1
 450 300 l 1
 450 250 l 1025
50 200 m 1
 150 200 l 1
 150 250 l 1
 50 250 l 1
 50 200 l 1025
450 200 m 1
 550 200 l 1
 550 250 l 1
 450 250 l 1
 450 200 l 1025
100 150 m 1
 200 150 l 1
 200 200 l 1
 100 200 l 1
 100 150 l 1025
450 150 m 1
 550 150 l 1
 550 200 l 1
 450 200 l 1
 450 150 l 1025
100 100 m 1
 200 100 l 1
 200 150 l 1
 100 150 l 1
 100 100 l 1025
450 100 m 1
 550 100 l 1
 550 150 l 1
 450 150 l 1
 450 100 l 1025
150 50 m 1
 300 50 l 1
 300 100 l 1
 150 100 l 1
 150 50 l 1025
450 50 m 1
 550 50 l 1
 550 100 l 1
 450 100 l 1
 450 50 l 1025
250 0 m 1
 550 0 l 1
 550 50 l 1
 250 50 l 1
 250 0 l 1
EndSplineSet
EndChar

StartChar: H
Encoding: 72 72 41
Width: 900
VWidth: 0
Flags: HW
LayerCount: 2
Back
Fore
SplineSet
50 650 m 1
 150 650 l 1
 150 700 l 1
 50 700 l 1
 50 650 l 1025
400 650 m 1
 500 650 l 1
 500 700 l 1
 400 700 l 1
 400 650 l 1025
50 600 m 1
 150 600 l 1
 150 650 l 1
 50 650 l 1
 50 600 l 1025
400 600 m 1
 500 600 l 1
 500 650 l 1
 400 650 l 1
 400 600 l 1025
50 550 m 1
 150 550 l 1
 150 600 l 1
 50 600 l 1
 50 550 l 1025
400 550 m 1
 500 550 l 1
 500 600 l 1
 400 600 l 1
 400 550 l 1025
50 500 m 1
 150 500 l 1
 150 550 l 1
 50 550 l 1
 50 500 l 1025
400 500 m 1
 500 500 l 1
 500 550 l 1
 400 550 l 1
 400 500 l 1025
50 450 m 1
 150 450 l 1
 150 500 l 1
 50 500 l 1
 50 450 l 1025
400 450 m 1
 500 450 l 1
 500 500 l 1
 400 500 l 1
 400 450 l 1025
50 400 m 1
 150 400 l 1
 150 450 l 1
 50 450 l 1
 50 400 l 1025
400 400 m 1
 500 400 l 1
 500 450 l 1
 400 450 l 1
 400 400 l 1025
50 350 m 1
 500 350 l 1
 500 400 l 1
 50 400 l 1
 50 350 l 1025
50 300 m 1
 150 300 l 1
 150 350 l 1
 50 350 l 1
 50 300 l 1025
400 300 m 1
 500 300 l 1
 500 350 l 1
 400 350 l 1
 400 300 l 1025
50 250 m 1
 150 250 l 1
 150 300 l 1
 50 300 l 1
 50 250 l 1025
400 250 m 1
 500 250 l 1
 500 300 l 1
 400 300 l 1
 400 250 l 1025
50 200 m 1
 150 200 l 1
 150 250 l 1
 50 250 l 1
 50 200 l 1025
400 200 m 1
 500 200 l 1
 500 250 l 1
 400 250 l 1
 400 200 l 1025
50 150 m 1
 150 150 l 1
 150 200 l 1
 50 200 l 1
 50 150 l 1025
400 150 m 1
 500 150 l 1
 500 200 l 1
 400 200 l 1
 400 150 l 1025
50 100 m 1
 150 100 l 1
 150 150 l 1
 50 150 l 1
 50 100 l 1025
400 100 m 1
 500 100 l 1
 500 150 l 1
 400 150 l 1
 400 100 l 1025
50 50 m 1
 150 50 l 1
 150 100 l 1
 50 100 l 1
 50 50 l 1025
400 50 m 1
 500 50 l 1
 500 100 l 1
 400 100 l 1
 400 50 l 1025
50 0 m 1
 150 0 l 1
 150 50 l 1
 50 50 l 1
 50 0 l 1025
400 0 m 1
 500 0 l 1
 500 50 l 1
 400 50 l 1
 400 0 l 1
EndSplineSet
EndChar

StartChar: I
Encoding: 73 73 42
Width: 900
VWidth: 0
Flags: HW
LayerCount: 2
Back
Fore
SplineSet
100 650 m 1
 500 650 l 1
 500 700 l 1
 100 700 l 1
 100 650 l 1025
250 600 m 1
 350 600 l 1
 350 650 l 1
 250 650 l 1
 250 600 l 1025
250 550 m 1
 350 550 l 1
 350 600 l 1
 250 600 l 1
 250 550 l 1025
250 500 m 1
 350 500 l 1
 350 550 l 1
 250 550 l 1
 250 500 l 1025
250 450 m 1
 350 450 l 1
 350 500 l 1
 250 500 l 1
 250 450 l 1025
250 400 m 1
 350 400 l 1
 350 450 l 1
 250 450 l 1
 250 400 l 1025
250 350 m 1
 350 350 l 1
 350 400 l 1
 250 400 l 1
 250 350 l 1025
250 300 m 1
 350 300 l 1
 350 350 l 1
 250 350 l 1
 250 300 l 1025
250 250 m 1
 350 250 l 1
 350 300 l 1
 250 300 l 1
 250 250 l 1025
250 200 m 1
 350 200 l 1
 350 250 l 1
 250 250 l 1
 250 200 l 1025
250 150 m 1
 350 150 l 1
 350 200 l 1
 250 200 l 1
 250 150 l 1025
250 100 m 1
 350 100 l 1
 350 150 l 1
 250 150 l 1
 250 100 l 1025
250 50 m 1
 350 50 l 1
 350 100 l 1
 250 100 l 1
 250 50 l 1025
100 0 m 1
 500 0 l 1
 500 50 l 1
 100 50 l 1
 100 0 l 1
EndSplineSet
EndChar

StartChar: J
Encoding: 74 74 43
Width: 900
VWidth: 0
Flags: HW
LayerCount: 2
Back
Fore
SplineSet
150 650 m 1
 450 650 l 1
 450 700 l 1
 150 700 l 1
 150 650 l 1025
350 600 m 1
 450 600 l 1
 450 650 l 1
 350 650 l 1
 350 600 l 1025
350 550 m 1
 450 550 l 1
 450 600 l 1
 350 600 l 1
 350 550 l 1025
350 500 m 1
 450 500 l 1
 450 550 l 1
 350 550 l 1
 350 500 l 1025
350 450 m 1
 450 450 l 1
 450 500 l 1
 350 500 l 1
 350 450 l 1025
350 400 m 1
 450 400 l 1
 450 450 l 1
 350 450 l 1
 350 400 l 1025
350 350 m 1
 450 350 l 1
 450 400 l 1
 350 400 l 1
 350 350 l 1025
350 300 m 1
 450 300 l 1
 450 350 l 1
 350 350 l 1
 350 300 l 1025
350 250 m 1
 450 250 l 1
 450 300 l 1
 350 300 l 1
 350 250 l 1025
350 200 m 1
 450 200 l 1
 450 250 l 1
 350 250 l 1
 350 200 l 1025
350 150 m 1
 450 150 l 1
 450 200 l 1
 350 200 l 1
 350 150 l 1025
350 100 m 1
 450 100 l 1
 450 150 l 1
 350 150 l 1
 350 100 l 1025
100 50 m 1
 150 50 l 1
 150 100 l 1
 100 100 l 1
 100 50 l 1025
300 50 m 1
 400 50 l 1
 400 100 l 1
 300 100 l 1
 300 50 l 1025
100 0 m 1
 350 0 l 1
 350 50 l 1
 100 50 l 1
 100 0 l 1
EndSplineSet
EndChar

StartChar: K
Encoding: 75 75 44
Width: 900
VWidth: 0
Flags: HW
LayerCount: 2
Back
Fore
SplineSet
100 650 m 1
 200 650 l 1
 200 700 l 1
 100 700 l 1
 100 650 l 1025
450 650 m 1
 550 650 l 1
 550 700 l 1
 450 700 l 1
 450 650 l 1025
100 600 m 1
 200 600 l 1
 200 650 l 1
 100 650 l 1
 100 600 l 1025
400 600 m 1
 500 600 l 1
 500 650 l 1
 400 650 l 1
 400 600 l 1025
100 550 m 1
 200 550 l 1
 200 600 l 1
 100 600 l 1
 100 550 l 1025
400 550 m 1
 450 550 l 1
 450 600 l 1
 400 600 l 1
 400 550 l 1025
100 500 m 1
 200 500 l 1
 200 550 l 1
 100 550 l 1
 100 500 l 1025
350 500 m 1
 400 500 l 1
 400 550 l 1
 350 550 l 1
 350 500 l 1025
100 450 m 1
 200 450 l 1
 200 500 l 1
 100 500 l 1
 100 450 l 1025
300 450 m 1
 350 450 l 1
 350 500 l 1
 300 500 l 1
 300 450 l 1025
100 400 m 1
 200 400 l 1
 200 450 l 1
 100 450 l 1
 100 400 l 1025
250 400 m 1
 350 400 l 1
 350 450 l 1
 250 450 l 1
 250 400 l 1025
100 350 m 1
 200 350 l 1
 200 400 l 1
 100 400 l 1
 100 350 l 1025
250 350 m 1
 300 350 l 1
 300 400 l 1
 250 400 l 1
 250 350 l 1025
100 300 m 1
 350 300 l 1
 350 350 l 1
 100 350 l 1
 100 300 l 1025
100 250 m 1
 200 250 l 1
 200 300 l 1
 100 300 l 1
 100 250 l 1025
250 250 m 1
 400 250 l 1
 400 300 l 1
 250 300 l 1
 250 250 l 1025
100 200 m 1
 200 200 l 1
 200 250 l 1
 100 250 l 1
 100 200 l 1025
300 200 m 1
 450 200 l 1
 450 250 l 1
 300 250 l 1
 300 200 l 1025
100 150 m 1
 200 150 l 1
 200 200 l 1
 100 200 l 1
 100 150 l 1025
350 150 m 1
 450 150 l 1
 450 200 l 1
 350 200 l 1
 350 150 l 1025
100 100 m 1
 200 100 l 1
 200 150 l 1
 100 150 l 1
 100 100 l 1025
400 100 m 1
 500 100 l 1
 500 150 l 1
 400 150 l 1
 400 100 l 1025
100 50 m 1
 200 50 l 1
 200 100 l 1
 100 100 l 1
 100 50 l 1025
400 50 m 1
 550 50 l 1
 550 100 l 1
 400 100 l 1
 400 50 l 1025
100 0 m 1
 200 0 l 1
 200 50 l 1
 100 50 l 1
 100 0 l 1025
450 0 m 1
 600 0 l 1
 600 50 l 1
 450 50 l 1
 450 0 l 1
EndSplineSet
EndChar

StartChar: L
Encoding: 76 76 45
Width: 900
VWidth: 0
Flags: HW
LayerCount: 2
Back
Fore
SplineSet
100 650 m 1
 200 650 l 1
 200 700 l 1
 100 700 l 1
 100 650 l 1025
100 600 m 1
 200 600 l 1
 200 650 l 1
 100 650 l 1
 100 600 l 1025
100 550 m 1
 200 550 l 1
 200 600 l 1
 100 600 l 1
 100 550 l 1025
100 500 m 1
 200 500 l 1
 200 550 l 1
 100 550 l 1
 100 500 l 1025
100 450 m 1
 200 450 l 1
 200 500 l 1
 100 500 l 1
 100 450 l 1025
100 400 m 1
 200 400 l 1
 200 450 l 1
 100 450 l 1
 100 400 l 1025
100 350 m 1
 200 350 l 1
 200 400 l 1
 100 400 l 1
 100 350 l 1025
100 300 m 1
 200 300 l 1
 200 350 l 1
 100 350 l 1
 100 300 l 1025
100 250 m 1
 200 250 l 1
 200 300 l 1
 100 300 l 1
 100 250 l 1025
100 200 m 1
 200 200 l 1
 200 250 l 1
 100 250 l 1
 100 200 l 1025
100 150 m 1
 200 150 l 1
 200 200 l 1
 100 200 l 1
 100 150 l 1025
100 100 m 1
 200 100 l 1
 200 150 l 1
 100 150 l 1
 100 100 l 1025
100 50 m 1
 200 50 l 1
 200 100 l 1
 100 100 l 1
 100 50 l 1025
100 0 m 1
 550 0 l 1
 550 50 l 1
 100 50 l 1
 100 0 l 1
EndSplineSet
EndChar

StartChar: M
Encoding: 77 77 46
Width: 900
VWidth: 0
Flags: HW
LayerCount: 2
Back
Fore
SplineSet
50 650 m 1
 150 650 l 1
 150 700 l 1
 50 700 l 1
 50 650 l 1025
450 650 m 1
 550 650 l 1
 550 700 l 1
 450 700 l 1
 450 650 l 1025
50 600 m 1
 150 600 l 1
 150 650 l 1
 50 650 l 1
 50 600 l 1025
450 600 m 1
 550 600 l 1
 550 650 l 1
 450 650 l 1
 450 600 l 1025
50 550 m 1
 200 550 l 1
 200 600 l 1
 50 600 l 1
 50 550 l 1025
400 550 m 1
 550 550 l 1
 550 600 l 1
 400 600 l 1
 400 550 l 1025
50 500 m 1
 100 500 l 1
 100 550 l 1
 50 550 l 1
 50 500 l 1025
150 500 m 1
 200 500 l 1
 200 550 l 1
 150 550 l 1
 150 500 l 1025
400 500 m 1
 450 500 l 1
 450 550 l 1
 400 550 l 1
 400 500 l 1025
500 500 m 1
 550 500 l 1
 550 550 l 1
 500 550 l 1
 500 500 l 1025
50 450 m 1
 100 450 l 1
 100 500 l 1
 50 500 l 1
 50 450 l 1025
150 450 m 1
 200 450 l 1
 200 500 l 1
 150 500 l 1
 150 450 l 1025
400 450 m 1
 450 450 l 1
 450 500 l 1
 400 500 l 1
 400 450 l 1025
500 450 m 1
 550 450 l 1
 550 500 l 1
 500 500 l 1
 500 450 l 1025
50 400 m 1
 100 400 l 1
 100 450 l 1
 50 450 l 1
 50 400 l 1025
150 400 m 1
 200 400 l 1
 200 450 l 1
 150 450 l 1
 150 400 l 1025
400 400 m 1
 450 400 l 1
 450 450 l 1
 400 450 l 1
 400 400 l 1025
500 400 m 1
 550 400 l 1
 550 450 l 1
 500 450 l 1
 500 400 l 1025
50 350 m 1
 100 350 l 1
 100 400 l 1
 50 400 l 1
 50 350 l 1025
200 350 m 1
 250 350 l 1
 250 400 l 1
 200 400 l 1
 200 350 l 1025
350 350 m 1
 400 350 l 1
 400 400 l 1
 350 400 l 1
 350 350 l 1025
500 350 m 1
 550 350 l 1
 550 400 l 1
 500 400 l 1
 500 350 l 1025
50 300 m 1
 100 300 l 1
 100 350 l 1
 50 350 l 1
 50 300 l 1025
200 300 m 1
 250 300 l 1
 250 350 l 1
 200 350 l 1
 200 300 l 1025
350 300 m 1
 400 300 l 1
 400 350 l 1
 350 350 l 1
 350 300 l 1025
500 300 m 1
 550 300 l 1
 550 350 l 1
 500 350 l 1
 500 300 l 1025
50 250 m 1
 100 250 l 1
 100 300 l 1
 50 300 l 1
 50 250 l 1025
200 250 m 1
 250 250 l 1
 250 300 l 1
 200 300 l 1
 200 250 l 1025
350 250 m 1
 400 250 l 1
 400 300 l 1
 350 300 l 1
 350 250 l 1025
500 250 m 1
 550 250 l 1
 550 300 l 1
 500 300 l 1
 500 250 l 1025
50 200 m 1
 100 200 l 1
 100 250 l 1
 50 250 l 1
 50 200 l 1025
200 200 m 1
 250 200 l 1
 250 250 l 1
 200 250 l 1
 200 200 l 1025
350 200 m 1
 400 200 l 1
 400 250 l 1
 350 250 l 1
 350 200 l 1025
500 200 m 1
 550 200 l 1
 550 250 l 1
 500 250 l 1
 500 200 l 1025
50 150 m 1
 100 150 l 1
 100 200 l 1
 50 200 l 1
 50 150 l 1025
250 150 m 1
 350 150 l 1
 350 200 l 1
 250 200 l 1
 250 150 l 1025
500 150 m 1
 550 150 l 1
 550 200 l 1
 500 200 l 1
 500 150 l 1025
50 100 m 1
 100 100 l 1
 100 150 l 1
 50 150 l 1
 50 100 l 1025
250 100 m 1
 350 100 l 1
 350 150 l 1
 250 150 l 1
 250 100 l 1025
500 100 m 1
 550 100 l 1
 550 150 l 1
 500 150 l 1
 500 100 l 1025
50 50 m 1
 100 50 l 1
 100 100 l 1
 50 100 l 1
 50 50 l 1025
250 50 m 1
 350 50 l 1
 350 100 l 1
 250 100 l 1
 250 50 l 1025
500 50 m 1
 550 50 l 1
 550 100 l 1
 500 100 l 1
 500 50 l 1025
50 0 m 1
 100 0 l 1
 100 50 l 1
 50 50 l 1
 50 0 l 1025
500 0 m 1
 550 0 l 1
 550 50 l 1
 500 50 l 1
 500 0 l 1
EndSplineSet
EndChar

StartChar: N
Encoding: 78 78 47
Width: 900
VWidth: 0
Flags: HW
LayerCount: 2
Back
Fore
SplineSet
50 650 m 1
 150 650 l 1
 150 700 l 1
 50 700 l 1
 50 650 l 1025
450 650 m 1
 500 650 l 1
 500 700 l 1
 450 700 l 1
 450 650 l 1025
50 600 m 1
 200 600 l 1
 200 650 l 1
 50 650 l 1
 50 600 l 1025
450 600 m 1
 500 600 l 1
 500 650 l 1
 450 650 l 1
 450 600 l 1025
50 550 m 1
 200 550 l 1
 200 600 l 1
 50 600 l 1
 50 550 l 1025
450 550 m 1
 500 550 l 1
 500 600 l 1
 450 600 l 1
 450 550 l 1025
50 500 m 1
 250 500 l 1
 250 550 l 1
 50 550 l 1
 50 500 l 1025
450 500 m 1
 500 500 l 1
 500 550 l 1
 450 550 l 1
 450 500 l 1025
50 450 m 1
 100 450 l 1
 100 500 l 1
 50 500 l 1
 50 450 l 1025
150 450 m 1
 250 450 l 1
 250 500 l 1
 150 500 l 1
 150 450 l 1025
450 450 m 1
 500 450 l 1
 500 500 l 1
 450 500 l 1
 450 450 l 1025
50 400 m 1
 100 400 l 1
 100 450 l 1
 50 450 l 1
 50 400 l 1025
200 400 m 1
 300 400 l 1
 300 450 l 1
 200 450 l 1
 200 400 l 1025
450 400 m 1
 500 400 l 1
 500 450 l 1
 450 450 l 1
 450 400 l 1025
50 350 m 1
 100 350 l 1
 100 400 l 1
 50 400 l 1
 50 350 l 1025
200 350 m 1
 300 350 l 1
 300 400 l 1
 200 400 l 1
 200 350 l 1025
450 350 m 1
 500 350 l 1
 500 400 l 1
 450 400 l 1
 450 350 l 1025
50 300 m 1
 100 300 l 1
 100 350 l 1
 50 350 l 1
 50 300 l 1025
250 300 m 1
 350 300 l 1
 350 350 l 1
 250 350 l 1
 250 300 l 1025
450 300 m 1
 500 300 l 1
 500 350 l 1
 450 350 l 1
 450 300 l 1025
50 250 m 1
 100 250 l 1
 100 300 l 1
 50 300 l 1
 50 250 l 1025
250 250 m 1
 400 250 l 1
 400 300 l 1
 250 300 l 1
 250 250 l 1025
450 250 m 1
 500 250 l 1
 500 300 l 1
 450 300 l 1
 450 250 l 1025
50 200 m 1
 100 200 l 1
 100 250 l 1
 50 250 l 1
 50 200 l 1025
300 200 m 1
 400 200 l 1
 400 250 l 1
 300 250 l 1
 300 200 l 1025
450 200 m 1
 500 200 l 1
 500 250 l 1
 450 250 l 1
 450 200 l 1025
50 150 m 1
 100 150 l 1
 100 200 l 1
 50 200 l 1
 50 150 l 1025
300 150 m 1
 500 150 l 1
 500 200 l 1
 300 200 l 1
 300 150 l 1025
50 100 m 1
 100 100 l 1
 100 150 l 1
 50 150 l 1
 50 100 l 1025
350 100 m 1
 500 100 l 1
 500 150 l 1
 350 150 l 1
 350 100 l 1025
50 50 m 1
 100 50 l 1
 100 100 l 1
 50 100 l 1
 50 50 l 1025
400 50 m 1
 500 50 l 1
 500 100 l 1
 400 100 l 1
 400 50 l 1025
50 0 m 1
 100 0 l 1
 100 50 l 1
 50 50 l 1
 50 0 l 1025
400 0 m 1
 500 0 l 1
 500 50 l 1
 400 50 l 1
 400 0 l 1
EndSplineSet
EndChar

StartChar: O
Encoding: 79 79 48
Width: 900
VWidth: 0
Flags: HW
LayerCount: 2
Back
Fore
SplineSet
150 650 m 1
 400 650 l 1
 400 700 l 1
 150 700 l 1
 150 650 l 1025
100 600 m 1
 200 600 l 1
 200 650 l 1
 100 650 l 1
 100 600 l 1025
350 600 m 1
 450 600 l 1
 450 650 l 1
 350 650 l 1
 350 600 l 1025
50 550 m 1
 150 550 l 1
 150 600 l 1
 50 600 l 1
 50 550 l 1025
400 550 m 1
 500 550 l 1
 500 600 l 1
 400 600 l 1
 400 550 l 1025
50 500 m 1
 150 500 l 1
 150 550 l 1
 50 550 l 1
 50 500 l 1025
400 500 m 1
 500 500 l 1
 500 550 l 1
 400 550 l 1
 400 500 l 1025
0 450 m 1
 100 450 l 1
 100 500 l 1
 0 500 l 1
 0 450 l 1025
450 450 m 1
 550 450 l 1
 550 500 l 1
 450 500 l 1
 450 450 l 1025
0 400 m 1
 100 400 l 1
 100 450 l 1
 0 450 l 1
 0 400 l 1025
450 400 m 1
 550 400 l 1
 550 450 l 1
 450 450 l 1
 450 400 l 1025
0 350 m 1
 100 350 l 1
 100 400 l 1
 0 400 l 1
 0 350 l 1025
450 350 m 1
 550 350 l 1
 550 400 l 1
 450 400 l 1
 450 350 l 1025
0 300 m 1
 100 300 l 1
 100 350 l 1
 0 350 l 1
 0 300 l 1025
450 300 m 1
 550 300 l 1
 550 350 l 1
 450 350 l 1
 450 300 l 1025
0 250 m 1
 100 250 l 1
 100 300 l 1
 0 300 l 1
 0 250 l 1025
450 250 m 1
 550 250 l 1
 550 300 l 1
 450 300 l 1
 450 250 l 1025
0 200 m 1
 100 200 l 1
 100 250 l 1
 0 250 l 1
 0 200 l 1025
450 200 m 1
 550 200 l 1
 550 250 l 1
 450 250 l 1
 450 200 l 1025
50 150 m 1
 150 150 l 1
 150 200 l 1
 50 200 l 1
 50 150 l 1025
400 150 m 1
 500 150 l 1
 500 200 l 1
 400 200 l 1
 400 150 l 1025
50 100 m 1
 150 100 l 1
 150 150 l 1
 50 150 l 1
 50 100 l 1025
400 100 m 1
 500 100 l 1
 500 150 l 1
 400 150 l 1
 400 100 l 1025
100 50 m 1
 200 50 l 1
 200 100 l 1
 100 100 l 1
 100 50 l 1025
350 50 m 1
 450 50 l 1
 450 100 l 1
 350 100 l 1
 350 50 l 1025
150 0 m 1
 400 0 l 1
 400 50 l 1
 150 50 l 1
 150 0 l 1
EndSplineSet
EndChar

StartChar: P
Encoding: 80 80 49
Width: 900
VWidth: 0
Flags: HW
LayerCount: 2
Back
Fore
SplineSet
100 650 m 1
 450 650 l 1
 450 700 l 1
 100 700 l 1
 100 650 l 1025
100 600 m 1
 200 600 l 1
 200 650 l 1
 100 650 l 1
 100 600 l 1025
400 600 m 1
 550 600 l 1
 550 650 l 1
 400 650 l 1
 400 600 l 1025
100 550 m 1
 200 550 l 1
 200 600 l 1
 100 600 l 1
 100 550 l 1025
450 550 m 1
 550 550 l 1
 550 600 l 1
 450 600 l 1
 450 550 l 1025
100 500 m 1
 200 500 l 1
 200 550 l 1
 100 550 l 1
 100 500 l 1025
450 500 m 1
 550 500 l 1
 550 550 l 1
 450 550 l 1
 450 500 l 1025
100 450 m 1
 200 450 l 1
 200 500 l 1
 100 500 l 1
 100 450 l 1025
450 450 m 1
 550 450 l 1
 550 500 l 1
 450 500 l 1
 450 450 l 1025
100 400 m 1
 200 400 l 1
 200 450 l 1
 100 450 l 1
 100 400 l 1025
450 400 m 1
 550 400 l 1
 550 450 l 1
 450 450 l 1
 450 400 l 1025
100 350 m 1
 200 350 l 1
 200 400 l 1
 100 400 l 1
 100 350 l 1025
400 350 m 1
 500 350 l 1
 500 400 l 1
 400 400 l 1
 400 350 l 1025
100 300 m 1
 400 300 l 1
 400 350 l 1
 100 350 l 1
 100 300 l 1025
100 250 m 1
 200 250 l 1
 200 300 l 1
 100 300 l 1
 100 250 l 1025
100 200 m 1
 200 200 l 1
 200 250 l 1
 100 250 l 1
 100 200 l 1025
100 150 m 1
 200 150 l 1
 200 200 l 1
 100 200 l 1
 100 150 l 1025
100 100 m 1
 200 100 l 1
 200 150 l 1
 100 150 l 1
 100 100 l 1025
100 50 m 1
 200 50 l 1
 200 100 l 1
 100 100 l 1
 100 50 l 1025
100 0 m 1
 200 0 l 1
 200 50 l 1
 100 50 l 1
 100 0 l 1
EndSplineSet
EndChar

StartChar: Q
Encoding: 81 81 50
Width: 900
VWidth: 0
Flags: HW
LayerCount: 2
Back
Fore
SplineSet
150 650 m 1
 400 650 l 1
 400 700 l 1
 150 700 l 1
 150 650 l 1025
100 600 m 1
 200 600 l 1
 200 650 l 1
 100 650 l 1
 100 600 l 1025
350 600 m 1
 450 600 l 1
 450 650 l 1
 350 650 l 1
 350 600 l 1025
50 550 m 1
 150 550 l 1
 150 600 l 1
 50 600 l 1
 50 550 l 1025
400 550 m 1
 500 550 l 1
 500 600 l 1
 400 600 l 1
 400 550 l 1025
50 500 m 1
 150 500 l 1
 150 550 l 1
 50 550 l 1
 50 500 l 1025
400 500 m 1
 500 500 l 1
 500 550 l 1
 400 550 l 1
 400 500 l 1025
0 450 m 1
 100 450 l 1
 100 500 l 1
 0 500 l 1
 0 450 l 1025
450 450 m 1
 550 450 l 1
 550 500 l 1
 450 500 l 1
 450 450 l 1025
0 400 m 1
 100 400 l 1
 100 450 l 1
 0 450 l 1
 0 400 l 1025
450 400 m 1
 550 400 l 1
 550 450 l 1
 450 450 l 1
 450 400 l 1025
0 350 m 1
 100 350 l 1
 100 400 l 1
 0 400 l 1
 0 350 l 1025
450 350 m 1
 550 350 l 1
 550 400 l 1
 450 400 l 1
 450 350 l 1025
0 300 m 1
 100 300 l 1
 100 350 l 1
 0 350 l 1
 0 300 l 1025
450 300 m 1
 550 300 l 1
 550 350 l 1
 450 350 l 1
 450 300 l 1025
0 250 m 1
 100 250 l 1
 100 300 l 1
 0 300 l 1
 0 250 l 1025
450 250 m 1
 550 250 l 1
 550 300 l 1
 450 300 l 1
 450 250 l 1025
0 200 m 1
 100 200 l 1
 100 250 l 1
 0 250 l 1
 0 200 l 1025
450 200 m 1
 550 200 l 1
 550 250 l 1
 450 250 l 1
 450 200 l 1025
50 150 m 1
 150 150 l 1
 150 200 l 1
 50 200 l 1
 50 150 l 1025
400 150 m 1
 550 150 l 1
 550 200 l 1
 400 200 l 1
 400 150 l 1025
50 100 m 1
 150 100 l 1
 150 150 l 1
 50 150 l 1
 50 100 l 1025
400 100 m 1
 500 100 l 1
 500 150 l 1
 400 150 l 1
 400 100 l 1025
100 50 m 1
 200 50 l 1
 200 100 l 1
 100 100 l 1
 100 50 l 1025
350 50 m 1
 500 50 l 1
 500 100 l 1
 350 100 l 1
 350 50 l 1025
150 0 m 1
 450 0 l 1
 450 50 l 1
 150 50 l 1
 150 0 l 1025
350 -50 m 1
 450 -50 l 1
 450 0 l 1
 350 0 l 1
 350 -50 l 1025
400 -100 m 1
 600 -100 l 1
 600 -50 l 1
 400 -50 l 1
 400 -100 l 1025
500 -150 m 1
 550 -150 l 1
 550 -100 l 1
 500 -100 l 1
 500 -150 l 1
EndSplineSet
EndChar

StartChar: R
Encoding: 82 82 51
Width: 900
VWidth: 0
Flags: HW
LayerCount: 2
Back
Fore
SplineSet
100 650 m 1
 400 650 l 1
 400 700 l 1
 100 700 l 1
 100 650 l 1025
100 600 m 1
 200 600 l 1
 200 650 l 1
 100 650 l 1
 100 600 l 1025
350 600 m 1
 500 600 l 1
 500 650 l 1
 350 650 l 1
 350 600 l 1025
100 550 m 1
 200 550 l 1
 200 600 l 1
 100 600 l 1
 100 550 l 1025
400 550 m 1
 500 550 l 1
 500 600 l 1
 400 600 l 1
 400 550 l 1025
100 500 m 1
 200 500 l 1
 200 550 l 1
 100 550 l 1
 100 500 l 1025
400 500 m 1
 500 500 l 1
 500 550 l 1
 400 550 l 1
 400 500 l 1025
100 450 m 1
 200 450 l 1
 200 500 l 1
 100 500 l 1
 100 450 l 1025
400 450 m 1
 500 450 l 1
 500 500 l 1
 400 500 l 1
 400 450 l 1025
100 400 m 1
 200 400 l 1
 200 450 l 1
 100 450 l 1
 100 400 l 1025
350 400 m 1
 500 400 l 1
 500 450 l 1
 350 450 l 1
 350 400 l 1025
100 350 m 1
 450 350 l 1
 450 400 l 1
 100 400 l 1
 100 350 l 1025
100 300 m 1
 200 300 l 1
 200 350 l 1
 100 350 l 1
 100 300 l 1025
300 300 m 1
 400 300 l 1
 400 350 l 1
 300 350 l 1
 300 300 l 1025
100 250 m 1
 200 250 l 1
 200 300 l 1
 100 300 l 1
 100 250 l 1025
300 250 m 1
 400 250 l 1
 400 300 l 1
 300 300 l 1
 300 250 l 1025
100 200 m 1
 200 200 l 1
 200 250 l 1
 100 250 l 1
 100 200 l 1025
350 200 m 1
 450 200 l 1
 450 250 l 1
 350 250 l 1
 350 200 l 1025
100 150 m 1
 200 150 l 1
 200 200 l 1
 100 200 l 1
 100 150 l 1025
350 150 m 1
 500 150 l 1
 500 200 l 1
 350 200 l 1
 350 150 l 1025
100 100 m 1
 200 100 l 1
 200 150 l 1
 100 150 l 1
 100 100 l 1025
400 100 m 1
 500 100 l 1
 500 150 l 1
 400 150 l 1
 400 100 l 1025
100 50 m 1
 200 50 l 1
 200 100 l 1
 100 100 l 1
 100 50 l 1025
450 50 m 1
 550 50 l 1
 550 100 l 1
 450 100 l 1
 450 50 l 1025
100 0 m 1
 200 0 l 1
 200 50 l 1
 100 50 l 1
 100 0 l 1025
450 0 m 1
 600 0 l 1
 600 50 l 1
 450 50 l 1
 450 0 l 1
EndSplineSet
EndChar

StartChar: S
Encoding: 83 83 52
Width: 900
VWidth: 0
Flags: HW
LayerCount: 2
Back
Fore
SplineSet
200 650 m 1
 500 650 l 1
 500 700 l 1
 200 700 l 1
 200 650 l 1025
150 600 m 1
 250 600 l 1
 250 650 l 1
 150 650 l 1
 150 600 l 1025
450 600 m 1
 500 600 l 1
 500 650 l 1
 450 650 l 1
 450 600 l 1025
100 550 m 1
 200 550 l 1
 200 600 l 1
 100 600 l 1
 100 550 l 1025
100 500 m 1
 200 500 l 1
 200 550 l 1
 100 550 l 1
 100 500 l 1025
100 450 m 1
 250 450 l 1
 250 500 l 1
 100 500 l 1
 100 450 l 1025
150 400 m 1
 300 400 l 1
 300 450 l 1
 150 450 l 1
 150 400 l 1025
200 350 m 1
 400 350 l 1
 400 400 l 1
 200 400 l 1
 200 350 l 1025
300 300 m 1
 500 300 l 1
 500 350 l 1
 300 350 l 1
 300 300 l 1025
400 250 m 1
 550 250 l 1
 550 300 l 1
 400 300 l 1
 400 250 l 1025
450 200 m 1
 550 200 l 1
 550 250 l 1
 450 250 l 1
 450 200 l 1025
450 150 m 1
 550 150 l 1
 550 200 l 1
 450 200 l 1
 450 150 l 1025
450 100 m 1
 550 100 l 1
 550 150 l 1
 450 150 l 1
 450 100 l 1025
100 50 m 1
 150 50 l 1
 150 100 l 1
 100 100 l 1
 100 50 l 1025
400 50 m 1
 500 50 l 1
 500 100 l 1
 400 100 l 1
 400 50 l 1025
150 0 m 1
 450 0 l 1
 450 50 l 1
 150 50 l 1
 150 0 l 1
EndSplineSet
EndChar

StartChar: T
Encoding: 84 84 53
Width: 900
VWidth: 0
Flags: HW
LayerCount: 2
Back
Fore
SplineSet
0 650 m 1
 600 650 l 1
 600 700 l 1
 0 700 l 1
 0 650 l 1025
250 600 m 1
 350 600 l 1
 350 650 l 1
 250 650 l 1
 250 600 l 1025
250 550 m 1
 350 550 l 1
 350 600 l 1
 250 600 l 1
 250 550 l 1025
250 500 m 1
 350 500 l 1
 350 550 l 1
 250 550 l 1
 250 500 l 1025
250 450 m 1
 350 450 l 1
 350 500 l 1
 250 500 l 1
 250 450 l 1025
250 400 m 1
 350 400 l 1
 350 450 l 1
 250 450 l 1
 250 400 l 1025
250 350 m 1
 350 350 l 1
 350 400 l 1
 250 400 l 1
 250 350 l 1025
250 300 m 1
 350 300 l 1
 350 350 l 1
 250 350 l 1
 250 300 l 1025
250 250 m 1
 350 250 l 1
 350 300 l 1
 250 300 l 1
 250 250 l 1025
250 200 m 1
 350 200 l 1
 350 250 l 1
 250 250 l 1
 250 200 l 1025
250 150 m 1
 350 150 l 1
 350 200 l 1
 250 200 l 1
 250 150 l 1025
250 100 m 1
 350 100 l 1
 350 150 l 1
 250 150 l 1
 250 100 l 1025
250 50 m 1
 350 50 l 1
 350 100 l 1
 250 100 l 1
 250 50 l 1025
250 0 m 1
 350 0 l 1
 350 50 l 1
 250 50 l 1
 250 0 l 1
EndSplineSet
EndChar

StartChar: U
Encoding: 85 85 54
Width: 900
VWidth: 0
Flags: HW
LayerCount: 2
Back
Fore
SplineSet
100 650 m 1
 200 650 l 1
 200 700 l 1
 100 700 l 1
 100 650 l 1025
500 650 m 1
 550 650 l 1
 550 700 l 1
 500 700 l 1
 500 650 l 1025
100 600 m 1
 200 600 l 1
 200 650 l 1
 100 650 l 1
 100 600 l 1025
500 600 m 1
 550 600 l 1
 550 650 l 1
 500 650 l 1
 500 600 l 1025
100 550 m 1
 200 550 l 1
 200 600 l 1
 100 600 l 1
 100 550 l 1025
500 550 m 1
 550 550 l 1
 550 600 l 1
 500 600 l 1
 500 550 l 1025
100 500 m 1
 200 500 l 1
 200 550 l 1
 100 550 l 1
 100 500 l 1025
500 500 m 1
 550 500 l 1
 550 550 l 1
 500 550 l 1
 500 500 l 1025
100 450 m 1
 200 450 l 1
 200 500 l 1
 100 500 l 1
 100 450 l 1025
500 450 m 1
 550 450 l 1
 550 500 l 1
 500 500 l 1
 500 450 l 1025
100 400 m 1
 200 400 l 1
 200 450 l 1
 100 450 l 1
 100 400 l 1025
500 400 m 1
 550 400 l 1
 550 450 l 1
 500 450 l 1
 500 400 l 1025
100 350 m 1
 200 350 l 1
 200 400 l 1
 100 400 l 1
 100 350 l 1025
500 350 m 1
 550 350 l 1
 550 400 l 1
 500 400 l 1
 500 350 l 1025
100 300 m 1
 200 300 l 1
 200 350 l 1
 100 350 l 1
 100 300 l 1025
500 300 m 1
 550 300 l 1
 550 350 l 1
 500 350 l 1
 500 300 l 1025
100 250 m 1
 200 250 l 1
 200 300 l 1
 100 300 l 1
 100 250 l 1025
500 250 m 1
 550 250 l 1
 550 300 l 1
 500 300 l 1
 500 250 l 1025
100 200 m 1
 200 200 l 1
 200 250 l 1
 100 250 l 1
 100 200 l 1025
500 200 m 1
 550 200 l 1
 550 250 l 1
 500 250 l 1
 500 200 l 1025
100 150 m 1
 200 150 l 1
 200 200 l 1
 100 200 l 1
 100 150 l 1025
500 150 m 1
 550 150 l 1
 550 200 l 1
 500 200 l 1
 500 150 l 1025
100 100 m 1
 200 100 l 1
 200 150 l 1
 100 150 l 1
 100 100 l 1025
500 100 m 1
 550 100 l 1
 550 150 l 1
 500 150 l 1
 500 100 l 1025
150 50 m 1
 250 50 l 1
 250 100 l 1
 150 100 l 1
 150 50 l 1025
450 50 m 1
 500 50 l 1
 500 100 l 1
 450 100 l 1
 450 50 l 1025
200 0 m 1
 450 0 l 1
 450 50 l 1
 200 50 l 1
 200 0 l 1
EndSplineSet
EndChar

StartChar: V
Encoding: 86 86 55
Width: 900
VWidth: 0
Flags: HW
LayerCount: 2
Back
Fore
SplineSet
0 650 m 1
 100 650 l 1
 100 700 l 1
 0 700 l 1
 0 650 l 1025
500 650 m 1
 600 650 l 1
 600 700 l 1
 500 700 l 1
 500 650 l 1025
50 600 m 1
 150 600 l 1
 150 650 l 1
 50 650 l 1
 50 600 l 1025
500 600 m 1
 550 600 l 1
 550 650 l 1
 500 650 l 1
 500 600 l 1025
50 550 m 1
 150 550 l 1
 150 600 l 1
 50 600 l 1
 50 550 l 1025
500 550 m 1
 550 550 l 1
 550 600 l 1
 500 600 l 1
 500 550 l 1025
50 500 m 1
 150 500 l 1
 150 550 l 1
 50 550 l 1
 50 500 l 1025
450 500 m 1
 500 500 l 1
 500 550 l 1
 450 550 l 1
 450 500 l 1025
100 450 m 1
 200 450 l 1
 200 500 l 1
 100 500 l 1
 100 450 l 1025
450 450 m 1
 500 450 l 1
 500 500 l 1
 450 500 l 1
 450 450 l 1025
100 400 m 1
 200 400 l 1
 200 450 l 1
 100 450 l 1
 100 400 l 1025
450 400 m 1
 500 400 l 1
 500 450 l 1
 450 450 l 1
 450 400 l 1025
100 350 m 1
 200 350 l 1
 200 400 l 1
 100 400 l 1
 100 350 l 1025
400 350 m 1
 450 350 l 1
 450 400 l 1
 400 400 l 1
 400 350 l 1025
150 300 m 1
 250 300 l 1
 250 350 l 1
 150 350 l 1
 150 300 l 1025
400 300 m 1
 450 300 l 1
 450 350 l 1
 400 350 l 1
 400 300 l 1025
150 250 m 1
 250 250 l 1
 250 300 l 1
 150 300 l 1
 150 250 l 1025
400 250 m 1
 450 250 l 1
 450 300 l 1
 400 300 l 1
 400 250 l 1025
150 200 m 1
 250 200 l 1
 250 250 l 1
 150 250 l 1
 150 200 l 1025
350 200 m 1
 400 200 l 1
 400 250 l 1
 350 250 l 1
 350 200 l 1025
200 150 m 1
 300 150 l 1
 300 200 l 1
 200 200 l 1
 200 150 l 1025
350 150 m 1
 400 150 l 1
 400 200 l 1
 350 200 l 1
 350 150 l 1025
200 100 m 1
 400 100 l 1
 400 150 l 1
 200 150 l 1
 200 100 l 1025
200 50 m 1
 350 50 l 1
 350 100 l 1
 200 100 l 1
 200 50 l 1025
250 0 m 1
 350 0 l 1
 350 50 l 1
 250 50 l 1
 250 0 l 1
EndSplineSet
EndChar

StartChar: W
Encoding: 87 87 56
Width: 900
VWidth: 0
Flags: HW
LayerCount: 2
Back
Fore
SplineSet
0 650 m 1
 50 650 l 1
 50 700 l 1
 0 700 l 1
 0 650 l 1025
550 650 m 1
 600 650 l 1
 600 700 l 1
 550 700 l 1
 550 650 l 1025
0 600 m 1
 50 600 l 1
 50 650 l 1
 0 650 l 1
 0 600 l 1025
250 600 m 1
 350 600 l 1
 350 650 l 1
 250 650 l 1
 250 600 l 1025
550 600 m 1
 600 600 l 1
 600 650 l 1
 550 650 l 1
 550 600 l 1025
0 550 m 1
 50 550 l 1
 50 600 l 1
 0 600 l 1
 0 550 l 1025
250 550 m 1
 350 550 l 1
 350 600 l 1
 250 600 l 1
 250 550 l 1025
550 550 m 1
 600 550 l 1
 600 600 l 1
 550 600 l 1
 550 550 l 1025
0 500 m 1
 100 500 l 1
 100 550 l 1
 0 550 l 1
 0 500 l 1025
200 500 m 1
 350 500 l 1
 350 550 l 1
 200 550 l 1
 200 500 l 1025
500 500 m 1
 600 500 l 1
 600 550 l 1
 500 550 l 1
 500 500 l 1025
0 450 m 1
 100 450 l 1
 100 500 l 1
 0 500 l 1
 0 450 l 1025
200 450 m 1
 250 450 l 1
 250 500 l 1
 200 500 l 1
 200 450 l 1025
300 450 m 1
 400 450 l 1
 400 500 l 1
 300 500 l 1
 300 450 l 1025
500 450 m 1
 550 450 l 1
 550 500 l 1
 500 500 l 1
 500 450 l 1025
0 400 m 1
 100 400 l 1
 100 450 l 1
 0 450 l 1
 0 400 l 1025
200 400 m 1
 250 400 l 1
 250 450 l 1
 200 450 l 1
 200 400 l 1025
300 400 m 1
 400 400 l 1
 400 450 l 1
 300 450 l 1
 300 400 l 1025
500 400 m 1
 550 400 l 1
 550 450 l 1
 500 450 l 1
 500 400 l 1025
0 350 m 1
 100 350 l 1
 100 400 l 1
 0 400 l 1
 0 350 l 1025
200 350 m 1
 250 350 l 1
 250 400 l 1
 200 400 l 1
 200 350 l 1025
300 350 m 1
 400 350 l 1
 400 400 l 1
 300 400 l 1
 300 350 l 1025
500 350 m 1
 550 350 l 1
 550 400 l 1
 500 400 l 1
 500 350 l 1025
50 300 m 1
 100 300 l 1
 100 350 l 1
 50 350 l 1
 50 300 l 1025
200 300 m 1
 250 300 l 1
 250 350 l 1
 200 350 l 1
 200 300 l 1025
300 300 m 1
 400 300 l 1
 400 350 l 1
 300 350 l 1
 300 300 l 1025
500 300 m 1
 550 300 l 1
 550 350 l 1
 500 350 l 1
 500 300 l 1025
50 250 m 1
 100 250 l 1
 100 300 l 1
 50 300 l 1
 50 250 l 1025
150 250 m 1
 200 250 l 1
 200 300 l 1
 150 300 l 1
 150 250 l 1025
350 250 m 1
 400 250 l 1
 400 300 l 1
 350 300 l 1
 350 250 l 1025
450 250 m 1
 550 250 l 1
 550 300 l 1
 450 300 l 1
 450 250 l 1025
50 200 m 1
 100 200 l 1
 100 250 l 1
 50 250 l 1
 50 200 l 1025
150 200 m 1
 200 200 l 1
 200 250 l 1
 150 250 l 1
 150 200 l 1025
350 200 m 1
 550 200 l 1
 550 250 l 1
 350 250 l 1
 350 200 l 1025
50 150 m 1
 200 150 l 1
 200 200 l 1
 50 200 l 1
 50 150 l 1025
350 150 m 1
 550 150 l 1
 550 200 l 1
 350 200 l 1
 350 150 l 1025
50 100 m 1
 200 100 l 1
 200 150 l 1
 50 150 l 1
 50 100 l 1025
350 100 m 1
 500 100 l 1
 500 150 l 1
 350 150 l 1
 350 100 l 1025
50 50 m 1
 150 50 l 1
 150 100 l 1
 50 100 l 1
 50 50 l 1025
400 50 m 1
 500 50 l 1
 500 100 l 1
 400 100 l 1
 400 50 l 1025
50 0 m 1
 150 0 l 1
 150 50 l 1
 50 50 l 1
 50 0 l 1025
400 0 m 1
 500 0 l 1
 500 50 l 1
 400 50 l 1
 400 0 l 1
EndSplineSet
EndChar

StartChar: X
Encoding: 88 88 57
Width: 900
VWidth: 0
Flags: HW
LayerCount: 2
Back
Fore
SplineSet
0 650 m 1
 150 650 l 1
 150 700 l 1
 0 700 l 1
 0 650 l 1025
500 650 m 1
 550 650 l 1
 550 700 l 1
 500 700 l 1
 500 650 l 1025
50 600 m 1
 200 600 l 1
 200 650 l 1
 50 650 l 1
 50 600 l 1025
450 600 m 1
 500 600 l 1
 500 650 l 1
 450 650 l 1
 450 600 l 1025
100 550 m 1
 200 550 l 1
 200 600 l 1
 100 600 l 1
 100 550 l 1025
400 550 m 1
 500 550 l 1
 500 600 l 1
 400 600 l 1
 400 550 l 1025
150 500 m 1
 250 500 l 1
 250 550 l 1
 150 550 l 1
 150 500 l 1025
400 500 m 1
 450 500 l 1
 450 550 l 1
 400 550 l 1
 400 500 l 1025
150 450 m 1
 300 450 l 1
 300 500 l 1
 150 500 l 1
 150 450 l 1025
350 450 m 1
 400 450 l 1
 400 500 l 1
 350 500 l 1
 350 450 l 1025
200 400 m 1
 400 400 l 1
 400 450 l 1
 200 450 l 1
 200 400 l 1025
250 350 m 1
 350 350 l 1
 350 400 l 1
 250 400 l 1
 250 350 l 1025
250 300 m 1
 400 300 l 1
 400 350 l 1
 250 350 l 1
 250 300 l 1025
200 250 m 1
 250 250 l 1
 250 300 l 1
 200 300 l 1
 200 250 l 1025
300 250 m 1
 400 250 l 1
 400 300 l 1
 300 300 l 1
 300 250 l 1025
150 200 m 1
 250 200 l 1
 250 250 l 1
 150 250 l 1
 150 200 l 1025
350 200 m 1
 450 200 l 1
 450 250 l 1
 350 250 l 1
 350 200 l 1025
150 150 m 1
 200 150 l 1
 200 200 l 1
 150 200 l 1
 150 150 l 1025
350 150 m 1
 500 150 l 1
 500 200 l 1
 350 200 l 1
 350 150 l 1025
100 100 m 1
 150 100 l 1
 150 150 l 1
 100 150 l 1
 100 100 l 1025
400 100 m 1
 500 100 l 1
 500 150 l 1
 400 150 l 1
 400 100 l 1025
50 50 m 1
 150 50 l 1
 150 100 l 1
 50 100 l 1
 50 50 l 1025
450 50 m 1
 550 50 l 1
 550 100 l 1
 450 100 l 1
 450 50 l 1025
0 0 m 1
 100 0 l 1
 100 50 l 1
 0 50 l 1
 0 0 l 1025
450 0 m 1
 600 0 l 1
 600 50 l 1
 450 50 l 1
 450 0 l 1
EndSplineSet
EndChar

StartChar: Y
Encoding: 89 89 58
Width: 900
VWidth: 0
Flags: HW
LayerCount: 2
Back
Fore
SplineSet
0 650 m 1
 150 650 l 1
 150 700 l 1
 0 700 l 1
 0 650 l 1025
500 650 m 1
 600 650 l 1
 600 700 l 1
 500 700 l 1
 500 650 l 1025
50 600 m 1
 150 600 l 1
 150 650 l 1
 50 650 l 1
 50 600 l 1025
500 600 m 1
 550 600 l 1
 550 650 l 1
 500 650 l 1
 500 600 l 1025
50 550 m 1
 200 550 l 1
 200 600 l 1
 50 600 l 1
 50 550 l 1025
450 550 m 1
 500 550 l 1
 500 600 l 1
 450 600 l 1
 450 550 l 1025
100 500 m 1
 200 500 l 1
 200 550 l 1
 100 550 l 1
 100 500 l 1025
400 500 m 1
 450 500 l 1
 450 550 l 1
 400 550 l 1
 400 500 l 1025
150 450 m 1
 250 450 l 1
 250 500 l 1
 150 500 l 1
 150 450 l 1025
400 450 m 1
 450 450 l 1
 450 500 l 1
 400 500 l 1
 400 450 l 1025
150 400 m 1
 300 400 l 1
 300 450 l 1
 150 450 l 1
 150 400 l 1025
350 400 m 1
 400 400 l 1
 400 450 l 1
 350 450 l 1
 350 400 l 1025
200 350 m 1
 400 350 l 1
 400 400 l 1
 200 400 l 1
 200 350 l 1025
250 300 m 1
 350 300 l 1
 350 350 l 1
 250 350 l 1
 250 300 l 1025
250 250 m 1
 350 250 l 1
 350 300 l 1
 250 300 l 1
 250 250 l 1025
250 200 m 1
 350 200 l 1
 350 250 l 1
 250 250 l 1
 250 200 l 1025
250 150 m 1
 350 150 l 1
 350 200 l 1
 250 200 l 1
 250 150 l 1025
250 100 m 1
 350 100 l 1
 350 150 l 1
 250 150 l 1
 250 100 l 1025
250 50 m 1
 350 50 l 1
 350 100 l 1
 250 100 l 1
 250 50 l 1025
250 0 m 1
 350 0 l 1
 350 50 l 1
 250 50 l 1
 250 0 l 1
EndSplineSet
EndChar

StartChar: Z
Encoding: 90 90 59
Width: 900
VWidth: 0
Flags: HW
LayerCount: 2
Back
Fore
SplineSet
50 650 m 1
 550 650 l 1
 550 700 l 1
 50 700 l 1
 50 650 l 1025
400 600 m 1
 550 600 l 1
 550 650 l 1
 400 650 l 1
 400 600 l 1025
400 550 m 1
 500 550 l 1
 500 600 l 1
 400 600 l 1
 400 550 l 1025
350 500 m 1
 500 500 l 1
 500 550 l 1
 350 550 l 1
 350 500 l 1025
300 450 m 1
 450 450 l 1
 450 500 l 1
 300 500 l 1
 300 450 l 1025
300 400 m 1
 400 400 l 1
 400 450 l 1
 300 450 l 1
 300 400 l 1025
250 350 m 1
 400 350 l 1
 400 400 l 1
 250 400 l 1
 250 350 l 1025
200 300 m 1
 350 300 l 1
 350 350 l 1
 200 350 l 1
 200 300 l 1025
200 250 m 1
 300 250 l 1
 300 300 l 1
 200 300 l 1
 200 250 l 1025
150 200 m 1
 250 200 l 1
 250 250 l 1
 150 250 l 1
 150 200 l 1025
100 150 m 1
 250 150 l 1
 250 200 l 1
 100 200 l 1
 100 150 l 1025
100 100 m 1
 200 100 l 1
 200 150 l 1
 100 150 l 1
 100 100 l 1025
50 50 m 1
 150 50 l 1
 150 100 l 1
 50 100 l 1
 50 50 l 1025
50 0 m 1
 550 0 l 1
 550 50 l 1
 50 50 l 1
 50 0 l 1
EndSplineSet
EndChar

StartChar: bracketleft
Encoding: 91 91 60
Width: 900
VWidth: 0
Flags: HW
LayerCount: 2
Back
Fore
SplineSet
250 650 m 1
 500 650 l 1
 500 700 l 1
 250 700 l 1
 250 650 l 1025
250 600 m 1
 300 600 l 1
 300 650 l 1
 250 650 l 1
 250 600 l 1025
250 550 m 1
 300 550 l 1
 300 600 l 1
 250 600 l 1
 250 550 l 1025
250 500 m 1
 300 500 l 1
 300 550 l 1
 250 550 l 1
 250 500 l 1025
250 450 m 1
 300 450 l 1
 300 500 l 1
 250 500 l 1
 250 450 l 1025
250 400 m 1
 300 400 l 1
 300 450 l 1
 250 450 l 1
 250 400 l 1025
250 350 m 1
 300 350 l 1
 300 400 l 1
 250 400 l 1
 250 350 l 1025
250 300 m 1
 300 300 l 1
 300 350 l 1
 250 350 l 1
 250 300 l 1025
250 250 m 1
 300 250 l 1
 300 300 l 1
 250 300 l 1
 250 250 l 1025
250 200 m 1
 300 200 l 1
 300 250 l 1
 250 250 l 1
 250 200 l 1025
250 150 m 1
 300 150 l 1
 300 200 l 1
 250 200 l 1
 250 150 l 1025
250 100 m 1
 300 100 l 1
 300 150 l 1
 250 150 l 1
 250 100 l 1025
250 50 m 1
 300 50 l 1
 300 100 l 1
 250 100 l 1
 250 50 l 1025
250 0 m 1
 300 0 l 1
 300 50 l 1
 250 50 l 1
 250 0 l 1025
250 -50 m 1
 300 -50 l 1
 300 0 l 1
 250 0 l 1
 250 -50 l 1025
250 -100 m 1
 300 -100 l 1
 300 -50 l 1
 250 -50 l 1
 250 -100 l 1025
250 -150 m 1
 500 -150 l 1
 500 -100 l 1
 250 -100 l 1
 250 -150 l 1
EndSplineSet
EndChar

StartChar: backslash
Encoding: 92 92 61
Width: 900
VWidth: 0
Flags: HW
LayerCount: 2
Back
Fore
SplineSet
0 650 m 1
 100 650 l 1
 100 700 l 1
 0 700 l 1
 0 650 l 1025
50 600 m 1
 100 600 l 1
 100 650 l 1
 50 650 l 1
 50 600 l 1025
100 550 m 1
 150 550 l 1
 150 600 l 1
 100 600 l 1
 100 550 l 1025
100 500 m 1
 150 500 l 1
 150 550 l 1
 100 550 l 1
 100 500 l 1025
150 450 m 1
 200 450 l 1
 200 500 l 1
 150 500 l 1
 150 450 l 1025
150 400 m 1
 200 400 l 1
 200 450 l 1
 150 450 l 1
 150 400 l 1025
200 350 m 1
 250 350 l 1
 250 400 l 1
 200 400 l 1
 200 350 l 1025
200 300 m 1
 300 300 l 1
 300 350 l 1
 200 350 l 1
 200 300 l 1025
250 250 m 1
 300 250 l 1
 300 300 l 1
 250 300 l 1
 250 250 l 1025
250 200 m 1
 350 200 l 1
 350 250 l 1
 250 250 l 1
 250 200 l 1025
300 150 m 1
 350 150 l 1
 350 200 l 1
 300 200 l 1
 300 150 l 1025
350 100 m 1
 400 100 l 1
 400 150 l 1
 350 150 l 1
 350 100 l 1025
350 50 m 1
 400 50 l 1
 400 100 l 1
 350 100 l 1
 350 50 l 1025
400 0 m 1
 450 0 l 1
 450 50 l 1
 400 50 l 1
 400 0 l 1025
400 -50 m 1
 450 -50 l 1
 450 0 l 1
 400 0 l 1
 400 -50 l 1025
450 -100 m 1
 500 -100 l 1
 500 -50 l 1
 450 -50 l 1
 450 -100 l 1025
450 -150 m 1
 550 -150 l 1
 550 -100 l 1
 450 -100 l 1
 450 -150 l 1
EndSplineSet
EndChar

StartChar: bracketright
Encoding: 93 93 62
Width: 900
VWidth: 0
Flags: HW
LayerCount: 2
Back
Fore
SplineSet
100 650 m 1
 350 650 l 1
 350 700 l 1
 100 700 l 1
 100 650 l 1025
300 600 m 1
 350 600 l 1
 350 650 l 1
 300 650 l 1
 300 600 l 1025
300 550 m 1
 350 550 l 1
 350 600 l 1
 300 600 l 1
 300 550 l 1025
300 500 m 1
 350 500 l 1
 350 550 l 1
 300 550 l 1
 300 500 l 1025
300 450 m 1
 350 450 l 1
 350 500 l 1
 300 500 l 1
 300 450 l 1025
300 400 m 1
 350 400 l 1
 350 450 l 1
 300 450 l 1
 300 400 l 1025
300 350 m 1
 350 350 l 1
 350 400 l 1
 300 400 l 1
 300 350 l 1025
300 300 m 1
 350 300 l 1
 350 350 l 1
 300 350 l 1
 300 300 l 1025
300 250 m 1
 350 250 l 1
 350 300 l 1
 300 300 l 1
 300 250 l 1025
300 200 m 1
 350 200 l 1
 350 250 l 1
 300 250 l 1
 300 200 l 1025
300 150 m 1
 350 150 l 1
 350 200 l 1
 300 200 l 1
 300 150 l 1025
300 100 m 1
 350 100 l 1
 350 150 l 1
 300 150 l 1
 300 100 l 1025
300 50 m 1
 350 50 l 1
 350 100 l 1
 300 100 l 1
 300 50 l 1025
300 0 m 1
 350 0 l 1
 350 50 l 1
 300 50 l 1
 300 0 l 1025
300 -50 m 1
 350 -50 l 1
 350 0 l 1
 300 0 l 1
 300 -50 l 1025
300 -100 m 1
 350 -100 l 1
 350 -50 l 1
 300 -50 l 1
 300 -100 l 1025
100 -150 m 1
 350 -150 l 1
 350 -100 l 1
 100 -100 l 1
 100 -150 l 1
EndSplineSet
EndChar

StartChar: asciicircum
Encoding: 94 94 63
Width: 900
VWidth: 0
Flags: HW
LayerCount: 2
Back
Fore
SplineSet
300 600 m 1
 350 600 l 1
 350 650 l 1
 300 650 l 1
 300 600 l 1025
250 550 m 1
 350 550 l 1
 350 600 l 1
 250 600 l 1
 250 550 l 1025
250 500 m 1
 350 500 l 1
 350 550 l 1
 250 550 l 1
 250 500 l 1025
200 450 m 1
 250 450 l 1
 250 500 l 1
 200 500 l 1
 200 450 l 1025
350 450 m 1
 400 450 l 1
 400 500 l 1
 350 500 l 1
 350 450 l 1025
200 400 m 1
 250 400 l 1
 250 450 l 1
 200 450 l 1
 200 400 l 1025
350 400 m 1
 400 400 l 1
 400 450 l 1
 350 450 l 1
 350 400 l 1025
150 350 m 1
 200 350 l 1
 200 400 l 1
 150 400 l 1
 150 350 l 1025
400 350 m 1
 450 350 l 1
 450 400 l 1
 400 400 l 1
 400 350 l 1025
150 300 m 1
 200 300 l 1
 200 350 l 1
 150 350 l 1
 150 300 l 1025
400 300 m 1
 450 300 l 1
 450 350 l 1
 400 350 l 1
 400 300 l 1025
100 250 m 1
 150 250 l 1
 150 300 l 1
 100 300 l 1
 100 250 l 1025
450 250 m 1
 500 250 l 1
 500 300 l 1
 450 300 l 1
 450 250 l 1025
100 200 m 1
 150 200 l 1
 150 250 l 1
 100 250 l 1
 100 200 l 1025
450 200 m 1
 500 200 l 1
 500 250 l 1
 450 250 l 1
 450 200 l 1025
50 150 m 1
 150 150 l 1
 150 200 l 1
 50 200 l 1
 50 150 l 1025
450 150 m 1
 550 150 l 1
 550 200 l 1
 450 200 l 1
 450 150 l 1
EndSplineSet
EndChar

StartChar: underscore
Encoding: 95 95 64
Width: 900
VWidth: 0
Flags: HW
LayerCount: 2
Back
Fore
SplineSet
0 -100 m 1
 600 -100 l 1
 600 -50 l 1
 0 -50 l 1
 0 -100 l 1
EndSplineSet
EndChar

StartChar: grave
Encoding: 96 96 65
Width: 900
VWidth: 0
Flags: HW
LayerCount: 2
Back
Fore
SplineSet
200 650 m 1
 300 650 l 1
 300 700 l 1
 200 700 l 1
 200 650 l 1025
250 600 m 1
 350 600 l 1
 350 650 l 1
 250 650 l 1
 250 600 l 1025
300 550 m 1
 400 550 l 1
 400 600 l 1
 300 600 l 1
 300 550 l 1
EndSplineSet
EndChar

StartChar: a
Encoding: 97 97 66
Width: 900
VWidth: 0
Flags: HW
LayerCount: 2
Back
Fore
SplineSet
100 500 m 1
 400 500 l 1
 400 550 l 1
 100 550 l 1
 100 500 l 1025
100 450 m 1
 150 450 l 1
 150 500 l 1
 100 500 l 1
 100 450 l 1025
350 450 m 1
 450 450 l 1
 450 500 l 1
 350 500 l 1
 350 450 l 1025
350 400 m 1
 450 400 l 1
 450 450 l 1
 350 450 l 1
 350 400 l 1025
350 350 m 1
 450 350 l 1
 450 400 l 1
 350 400 l 1
 350 350 l 1025
350 300 m 1
 450 300 l 1
 450 350 l 1
 350 350 l 1
 350 300 l 1025
150 250 m 1
 450 250 l 1
 450 300 l 1
 150 300 l 1
 150 250 l 1025
100 200 m 1
 200 200 l 1
 200 250 l 1
 100 250 l 1
 100 200 l 1025
350 200 m 1
 450 200 l 1
 450 250 l 1
 350 250 l 1
 350 200 l 1025
50 150 m 1
 150 150 l 1
 150 200 l 1
 50 200 l 1
 50 150 l 1025
350 150 m 1
 450 150 l 1
 450 200 l 1
 350 200 l 1
 350 150 l 1025
50 100 m 1
 150 100 l 1
 150 150 l 1
 50 150 l 1
 50 100 l 1025
350 100 m 1
 450 100 l 1
 450 150 l 1
 350 150 l 1
 350 100 l 1025
50 50 m 1
 150 50 l 1
 150 100 l 1
 50 100 l 1
 50 50 l 1025
300 50 m 1
 450 50 l 1
 450 100 l 1
 300 100 l 1
 300 50 l 1025
100 0 m 1
 350 0 l 1
 350 50 l 1
 100 50 l 1
 100 0 l 1025
400 0 m 1
 550 0 l 1
 550 50 l 1
 400 50 l 1
 400 0 l 1
EndSplineSet
EndChar

StartChar: b
Encoding: 98 98 67
Width: 900
VWidth: 0
Flags: HW
LayerCount: 2
Back
Fore
SplineSet
100 650 m 1
 200 650 l 1
 200 700 l 1
 100 700 l 1
 100 650 l 1025
100 600 m 1
 200 600 l 1
 200 650 l 1
 100 650 l 1
 100 600 l 1025
100 550 m 1
 200 550 l 1
 200 600 l 1
 100 600 l 1
 100 550 l 1025
100 500 m 1
 200 500 l 1
 200 550 l 1
 100 550 l 1
 100 500 l 1025
250 500 m 1
 450 500 l 1
 450 550 l 1
 250 550 l 1
 250 500 l 1025
100 450 m 1
 300 450 l 1
 300 500 l 1
 100 500 l 1
 100 450 l 1025
400 450 m 1
 500 450 l 1
 500 500 l 1
 400 500 l 1
 400 450 l 1025
100 400 m 1
 250 400 l 1
 250 450 l 1
 100 450 l 1
 100 400 l 1025
450 400 m 1
 550 400 l 1
 550 450 l 1
 450 450 l 1
 450 400 l 1025
100 350 m 1
 200 350 l 1
 200 400 l 1
 100 400 l 1
 100 350 l 1025
450 350 m 1
 550 350 l 1
 550 400 l 1
 450 400 l 1
 450 350 l 1025
100 300 m 1
 200 300 l 1
 200 350 l 1
 100 350 l 1
 100 300 l 1025
450 300 m 1
 550 300 l 1
 550 350 l 1
 450 350 l 1
 450 300 l 1025
100 250 m 1
 200 250 l 1
 200 300 l 1
 100 300 l 1
 100 250 l 1025
450 250 m 1
 550 250 l 1
 550 300 l 1
 450 300 l 1
 450 250 l 1025
100 200 m 1
 200 200 l 1
 200 250 l 1
 100 250 l 1
 100 200 l 1025
450 200 m 1
 550 200 l 1
 550 250 l 1
 450 250 l 1
 450 200 l 1025
100 150 m 1
 200 150 l 1
 200 200 l 1
 100 200 l 1
 100 150 l 1025
450 150 m 1
 550 150 l 1
 550 200 l 1
 450 200 l 1
 450 150 l 1025
100 100 m 1
 200 100 l 1
 200 150 l 1
 100 150 l 1
 100 100 l 1025
400 100 m 1
 500 100 l 1
 500 150 l 1
 400 150 l 1
 400 100 l 1025
100 50 m 1
 250 50 l 1
 250 100 l 1
 100 100 l 1
 100 50 l 1025
400 50 m 1
 500 50 l 1
 500 100 l 1
 400 100 l 1
 400 50 l 1025
100 0 m 1
 200 0 l 1
 200 50 l 1
 100 50 l 1
 100 0 l 1025
250 0 m 1
 450 0 l 1
 450 50 l 1
 250 50 l 1
 250 0 l 1
EndSplineSet
EndChar

StartChar: c
Encoding: 99 99 68
Width: 900
VWidth: 0
Flags: HW
LayerCount: 2
Back
Fore
SplineSet
250 500 m 1
 550 500 l 1
 550 550 l 1
 250 550 l 1
 250 500 l 1025
150 450 m 1
 300 450 l 1
 300 500 l 1
 150 500 l 1
 150 450 l 1025
500 450 m 1
 550 450 l 1
 550 500 l 1
 500 500 l 1
 500 450 l 1025
150 400 m 1
 250 400 l 1
 250 450 l 1
 150 450 l 1
 150 400 l 1025
100 350 m 1
 200 350 l 1
 200 400 l 1
 100 400 l 1
 100 350 l 1025
100 300 m 1
 200 300 l 1
 200 350 l 1
 100 350 l 1
 100 300 l 1025
100 250 m 1
 200 250 l 1
 200 300 l 1
 100 300 l 1
 100 250 l 1025
100 200 m 1
 200 200 l 1
 200 250 l 1
 100 250 l 1
 100 200 l 1025
100 150 m 1
 200 150 l 1
 200 200 l 1
 100 200 l 1
 100 150 l 1025
150 100 m 1
 250 100 l 1
 250 150 l 1
 150 150 l 1
 150 100 l 1025
150 50 m 1
 300 50 l 1
 300 100 l 1
 150 100 l 1
 150 50 l 1025
500 50 m 1
 550 50 l 1
 550 100 l 1
 500 100 l 1
 500 50 l 1025
250 0 m 1
 550 0 l 1
 550 50 l 1
 250 50 l 1
 250 0 l 1
EndSplineSet
EndChar

StartChar: d
Encoding: 100 100 69
Width: 900
VWidth: 0
Flags: HW
LayerCount: 2
Back
Fore
SplineSet
400 650 m 1
 500 650 l 1
 500 700 l 1
 400 700 l 1
 400 650 l 1025
400 600 m 1
 500 600 l 1
 500 650 l 1
 400 650 l 1
 400 600 l 1025
400 550 m 1
 500 550 l 1
 500 600 l 1
 400 600 l 1
 400 550 l 1025
150 500 m 1
 350 500 l 1
 350 550 l 1
 150 550 l 1
 150 500 l 1025
400 500 m 1
 500 500 l 1
 500 550 l 1
 400 550 l 1
 400 500 l 1025
100 450 m 1
 200 450 l 1
 200 500 l 1
 100 500 l 1
 100 450 l 1025
350 450 m 1
 500 450 l 1
 500 500 l 1
 350 500 l 1
 350 450 l 1025
100 400 m 1
 200 400 l 1
 200 450 l 1
 100 450 l 1
 100 400 l 1025
400 400 m 1
 500 400 l 1
 500 450 l 1
 400 450 l 1
 400 400 l 1025
50 350 m 1
 150 350 l 1
 150 400 l 1
 50 400 l 1
 50 350 l 1025
400 350 m 1
 500 350 l 1
 500 400 l 1
 400 400 l 1
 400 350 l 1025
50 300 m 1
 150 300 l 1
 150 350 l 1
 50 350 l 1
 50 300 l 1025
400 300 m 1
 500 300 l 1
 500 350 l 1
 400 350 l 1
 400 300 l 1025
50 250 m 1
 150 250 l 1
 150 300 l 1
 50 300 l 1
 50 250 l 1025
400 250 m 1
 500 250 l 1
 500 300 l 1
 400 300 l 1
 400 250 l 1025
50 200 m 1
 150 200 l 1
 150 250 l 1
 50 250 l 1
 50 200 l 1025
400 200 m 1
 500 200 l 1
 500 250 l 1
 400 250 l 1
 400 200 l 1025
50 150 m 1
 150 150 l 1
 150 200 l 1
 50 200 l 1
 50 150 l 1025
400 150 m 1
 500 150 l 1
 500 200 l 1
 400 200 l 1
 400 150 l 1025
50 100 m 1
 150 100 l 1
 150 150 l 1
 50 150 l 1
 50 100 l 1025
350 100 m 1
 500 100 l 1
 500 150 l 1
 350 150 l 1
 350 100 l 1025
100 50 m 1
 200 50 l 1
 200 100 l 1
 100 100 l 1
 100 50 l 1025
300 50 m 1
 500 50 l 1
 500 100 l 1
 300 100 l 1
 300 50 l 1025
150 0 m 1
 350 0 l 1
 350 50 l 1
 150 50 l 1
 150 0 l 1025
400 0 m 1
 500 0 l 1
 500 50 l 1
 400 50 l 1
 400 0 l 1
EndSplineSet
EndChar

StartChar: e
Encoding: 101 101 70
Width: 900
VWidth: 0
Flags: HW
LayerCount: 2
Back
Fore
SplineSet
250 500 m 1
 450 500 l 1
 450 550 l 1
 250 550 l 1
 250 500 l 1025
150 450 m 1
 250 450 l 1
 250 500 l 1
 150 500 l 1
 150 450 l 1025
400 450 m 1
 500 450 l 1
 500 500 l 1
 400 500 l 1
 400 450 l 1025
150 400 m 1
 250 400 l 1
 250 450 l 1
 150 450 l 1
 150 400 l 1025
450 400 m 1
 550 400 l 1
 550 450 l 1
 450 450 l 1
 450 400 l 1025
100 350 m 1
 200 350 l 1
 200 400 l 1
 100 400 l 1
 100 350 l 1025
450 350 m 1
 550 350 l 1
 550 400 l 1
 450 400 l 1
 450 350 l 1025
100 300 m 1
 200 300 l 1
 200 350 l 1
 100 350 l 1
 100 300 l 1025
450 300 m 1
 550 300 l 1
 550 350 l 1
 450 350 l 1
 450 300 l 1025
100 250 m 1
 550 250 l 1
 550 300 l 1
 100 300 l 1
 100 250 l 1025
100 200 m 1
 200 200 l 1
 200 250 l 1
 100 250 l 1
 100 200 l 1025
100 150 m 1
 200 150 l 1
 200 200 l 1
 100 200 l 1
 100 150 l 1025
150 100 m 1
 200 100 l 1
 200 150 l 1
 150 150 l 1
 150 100 l 1025
150 50 m 1
 250 50 l 1
 250 100 l 1
 150 100 l 1
 150 50 l 1025
500 50 m 1
 550 50 l 1
 550 100 l 1
 500 100 l 1
 500 50 l 1025
250 0 m 1
 550 0 l 1
 550 50 l 1
 250 50 l 1
 250 0 l 1
EndSplineSet
EndChar

StartChar: f
Encoding: 102 102 71
Width: 900
VWidth: 0
Flags: HW
LayerCount: 2
Back
Fore
SplineSet
300 750 m 1
 600 750 l 1
 600 800 l 1
 300 800 l 1
 300 750 l 1025
250 700 m 1
 400 700 l 1
 400 750 l 1
 250 750 l 1
 250 700 l 1025
250 650 m 1
 350 650 l 1
 350 700 l 1
 250 700 l 1
 250 650 l 1025
250 600 m 1
 350 600 l 1
 350 650 l 1
 250 650 l 1
 250 600 l 1025
250 550 m 1
 350 550 l 1
 350 600 l 1
 250 600 l 1
 250 550 l 1025
100 500 m 1
 600 500 l 1
 600 550 l 1
 100 550 l 1
 100 500 l 1025
250 450 m 1
 350 450 l 1
 350 500 l 1
 250 500 l 1
 250 450 l 1025
250 400 m 1
 350 400 l 1
 350 450 l 1
 250 450 l 1
 250 400 l 1025
250 350 m 1
 350 350 l 1
 350 400 l 1
 250 400 l 1
 250 350 l 1025
250 300 m 1
 350 300 l 1
 350 350 l 1
 250 350 l 1
 250 300 l 1025
250 250 m 1
 350 250 l 1
 350 300 l 1
 250 300 l 1
 250 250 l 1025
250 200 m 1
 350 200 l 1
 350 250 l 1
 250 250 l 1
 250 200 l 1025
250 150 m 1
 350 150 l 1
 350 200 l 1
 250 200 l 1
 250 150 l 1025
250 100 m 1
 350 100 l 1
 350 150 l 1
 250 150 l 1
 250 100 l 1025
250 50 m 1
 350 50 l 1
 350 100 l 1
 250 100 l 1
 250 50 l 1025
250 0 m 1
 350 0 l 1
 350 50 l 1
 250 50 l 1
 250 0 l 1
EndSplineSet
EndChar

StartChar: g
Encoding: 103 103 72
Width: 900
VWidth: 0
Flags: HW
LayerCount: 2
Back
Fore
SplineSet
200 500 m 1
 400 500 l 1
 400 550 l 1
 200 550 l 1
 200 500 l 1025
450 500 m 1
 500 500 l 1
 500 550 l 1
 450 550 l 1
 450 500 l 1025
100 450 m 1
 200 450 l 1
 200 500 l 1
 100 500 l 1
 100 450 l 1025
350 450 m 1
 500 450 l 1
 500 500 l 1
 350 500 l 1
 350 450 l 1025
100 400 m 1
 200 400 l 1
 200 450 l 1
 100 450 l 1
 100 400 l 1025
400 400 m 1
 500 400 l 1
 500 450 l 1
 400 450 l 1
 400 400 l 1025
50 350 m 1
 150 350 l 1
 150 400 l 1
 50 400 l 1
 50 350 l 1025
400 350 m 1
 500 350 l 1
 500 400 l 1
 400 400 l 1
 400 350 l 1025
50 300 m 1
 150 300 l 1
 150 350 l 1
 50 350 l 1
 50 300 l 1025
400 300 m 1
 500 300 l 1
 500 350 l 1
 400 350 l 1
 400 300 l 1025
50 250 m 1
 150 250 l 1
 150 300 l 1
 50 300 l 1
 50 250 l 1025
400 250 m 1
 500 250 l 1
 500 300 l 1
 400 300 l 1
 400 250 l 1025
50 200 m 1
 150 200 l 1
 150 250 l 1
 50 250 l 1
 50 200 l 1025
400 200 m 1
 500 200 l 1
 500 250 l 1
 400 250 l 1
 400 200 l 1025
50 150 m 1
 150 150 l 1
 150 200 l 1
 50 200 l 1
 50 150 l 1025
400 150 m 1
 500 150 l 1
 500 200 l 1
 400 200 l 1
 400 150 l 1025
50 100 m 1
 150 100 l 1
 150 150 l 1
 50 150 l 1
 50 100 l 1025
350 100 m 1
 500 100 l 1
 500 150 l 1
 350 150 l 1
 350 100 l 1025
100 50 m 1
 200 50 l 1
 200 100 l 1
 100 100 l 1
 100 50 l 1025
300 50 m 1
 500 50 l 1
 500 100 l 1
 300 100 l 1
 300 50 l 1025
150 0 m 1
 350 0 l 1
 350 50 l 1
 150 50 l 1
 150 0 l 1025
400 0 m 1
 500 0 l 1
 500 50 l 1
 400 50 l 1
 400 0 l 1025
400 -50 m 1
 500 -50 l 1
 500 0 l 1
 400 0 l 1
 400 -50 l 1025
400 -100 m 1
 500 -100 l 1
 500 -50 l 1
 400 -50 l 1
 400 -100 l 1025
100 -150 m 1
 150 -150 l 1
 150 -100 l 1
 100 -100 l 1
 100 -150 l 1025
350 -150 m 1
 450 -150 l 1
 450 -100 l 1
 350 -100 l 1
 350 -150 l 1025
100 -200 m 1
 400 -200 l 1
 400 -150 l 1
 100 -150 l 1
 100 -200 l 1
EndSplineSet
EndChar

StartChar: h
Encoding: 104 104 73
Width: 900
VWidth: 0
Flags: HW
LayerCount: 2
Back
Fore
SplineSet
100 650 m 1
 200 650 l 1
 200 700 l 1
 100 700 l 1
 100 650 l 1025
100 600 m 1
 200 600 l 1
 200 650 l 1
 100 650 l 1
 100 600 l 1025
100 550 m 1
 200 550 l 1
 200 600 l 1
 100 600 l 1
 100 550 l 1025
100 500 m 1
 200 500 l 1
 200 550 l 1
 100 550 l 1
 100 500 l 1025
300 500 m 1
 500 500 l 1
 500 550 l 1
 300 550 l 1
 300 500 l 1025
100 450 m 1
 200 450 l 1
 200 500 l 1
 100 500 l 1
 100 450 l 1025
250 450 m 1
 550 450 l 1
 550 500 l 1
 250 500 l 1
 250 450 l 1025
100 400 m 1
 300 400 l 1
 300 450 l 1
 100 450 l 1
 100 400 l 1025
450 400 m 1
 550 400 l 1
 550 450 l 1
 450 450 l 1
 450 400 l 1025
100 350 m 1
 200 350 l 1
 200 400 l 1
 100 400 l 1
 100 350 l 1025
450 350 m 1
 550 350 l 1
 550 400 l 1
 450 400 l 1
 450 350 l 1025
100 300 m 1
 200 300 l 1
 200 350 l 1
 100 350 l 1
 100 300 l 1025
450 300 m 1
 550 300 l 1
 550 350 l 1
 450 350 l 1
 450 300 l 1025
100 250 m 1
 200 250 l 1
 200 300 l 1
 100 300 l 1
 100 250 l 1025
450 250 m 1
 550 250 l 1
 550 300 l 1
 450 300 l 1
 450 250 l 1025
100 200 m 1
 200 200 l 1
 200 250 l 1
 100 250 l 1
 100 200 l 1025
450 200 m 1
 550 200 l 1
 550 250 l 1
 450 250 l 1
 450 200 l 1025
100 150 m 1
 200 150 l 1
 200 200 l 1
 100 200 l 1
 100 150 l 1025
450 150 m 1
 550 150 l 1
 550 200 l 1
 450 200 l 1
 450 150 l 1025
100 100 m 1
 200 100 l 1
 200 150 l 1
 100 150 l 1
 100 100 l 1025
450 100 m 1
 550 100 l 1
 550 150 l 1
 450 150 l 1
 450 100 l 1025
100 50 m 1
 200 50 l 1
 200 100 l 1
 100 100 l 1
 100 50 l 1025
450 50 m 1
 550 50 l 1
 550 100 l 1
 450 100 l 1
 450 50 l 1025
100 0 m 1
 200 0 l 1
 200 50 l 1
 100 50 l 1
 100 0 l 1025
450 0 m 1
 550 0 l 1
 550 50 l 1
 450 50 l 1
 450 0 l 1
EndSplineSet
EndChar

StartChar: i
Encoding: 105 105 74
Width: 900
VWidth: 0
Flags: HW
LayerCount: 2
Back
Fore
SplineSet
300 650 m 1
 400 650 l 1
 400 700 l 1
 300 700 l 1
 300 650 l 1025
300 600 m 1
 400 600 l 1
 400 650 l 1
 300 650 l 1
 300 600 l 1025
100 500 m 1
 400 500 l 1
 400 550 l 1
 100 550 l 1
 100 500 l 1025
300 450 m 1
 400 450 l 1
 400 500 l 1
 300 500 l 1
 300 450 l 1025
300 400 m 1
 400 400 l 1
 400 450 l 1
 300 450 l 1
 300 400 l 1025
300 350 m 1
 400 350 l 1
 400 400 l 1
 300 400 l 1
 300 350 l 1025
300 300 m 1
 400 300 l 1
 400 350 l 1
 300 350 l 1
 300 300 l 1025
300 250 m 1
 400 250 l 1
 400 300 l 1
 300 300 l 1
 300 250 l 1025
300 200 m 1
 400 200 l 1
 400 250 l 1
 300 250 l 1
 300 200 l 1025
300 150 m 1
 400 150 l 1
 400 200 l 1
 300 200 l 1
 300 150 l 1025
300 100 m 1
 400 100 l 1
 400 150 l 1
 300 150 l 1
 300 100 l 1025
300 50 m 1
 400 50 l 1
 400 100 l 1
 300 100 l 1
 300 50 l 1025
300 0 m 1
 400 0 l 1
 400 50 l 1
 300 50 l 1
 300 0 l 1
EndSplineSet
EndChar

StartChar: j
Encoding: 106 106 75
Width: 900
VWidth: 0
Flags: HW
LayerCount: 2
Back
Fore
SplineSet
350 650 m 1
 450 650 l 1
 450 700 l 1
 350 700 l 1
 350 650 l 1025
350 600 m 1
 450 600 l 1
 450 650 l 1
 350 650 l 1
 350 600 l 1025
150 500 m 1
 450 500 l 1
 450 550 l 1
 150 550 l 1
 150 500 l 1025
350 450 m 1
 450 450 l 1
 450 500 l 1
 350 500 l 1
 350 450 l 1025
350 400 m 1
 450 400 l 1
 450 450 l 1
 350 450 l 1
 350 400 l 1025
350 350 m 1
 450 350 l 1
 450 400 l 1
 350 400 l 1
 350 350 l 1025
350 300 m 1
 450 300 l 1
 450 350 l 1
 350 350 l 1
 350 300 l 1025
350 250 m 1
 450 250 l 1
 450 300 l 1
 350 300 l 1
 350 250 l 1025
350 200 m 1
 450 200 l 1
 450 250 l 1
 350 250 l 1
 350 200 l 1025
350 150 m 1
 450 150 l 1
 450 200 l 1
 350 200 l 1
 350 150 l 1025
350 100 m 1
 450 100 l 1
 450 150 l 1
 350 150 l 1
 350 100 l 1025
350 50 m 1
 450 50 l 1
 450 100 l 1
 350 100 l 1
 350 50 l 1025
350 0 m 1
 450 0 l 1
 450 50 l 1
 350 50 l 1
 350 0 l 1025
350 -50 m 1
 450 -50 l 1
 450 0 l 1
 350 0 l 1
 350 -50 l 1025
350 -100 m 1
 450 -100 l 1
 450 -50 l 1
 350 -50 l 1
 350 -100 l 1025
100 -150 m 1
 150 -150 l 1
 150 -100 l 1
 100 -100 l 1
 100 -150 l 1025
300 -150 m 1
 400 -150 l 1
 400 -100 l 1
 300 -100 l 1
 300 -150 l 1025
100 -200 m 1
 350 -200 l 1
 350 -150 l 1
 100 -150 l 1
 100 -200 l 1
EndSplineSet
EndChar

StartChar: k
Encoding: 107 107 76
Width: 900
VWidth: 0
Flags: HW
LayerCount: 2
Back
Fore
SplineSet
100 650 m 1
 200 650 l 1
 200 700 l 1
 100 700 l 1
 100 650 l 1025
100 600 m 1
 200 600 l 1
 200 650 l 1
 100 650 l 1
 100 600 l 1025
100 550 m 1
 200 550 l 1
 200 600 l 1
 100 600 l 1
 100 550 l 1025
100 500 m 1
 200 500 l 1
 200 550 l 1
 100 550 l 1
 100 500 l 1025
450 500 m 1
 500 500 l 1
 500 550 l 1
 450 550 l 1
 450 500 l 1025
100 450 m 1
 200 450 l 1
 200 500 l 1
 100 500 l 1
 100 450 l 1025
400 450 m 1
 450 450 l 1
 450 500 l 1
 400 500 l 1
 400 450 l 1025
100 400 m 1
 200 400 l 1
 200 450 l 1
 100 450 l 1
 100 400 l 1025
350 400 m 1
 400 400 l 1
 400 450 l 1
 350 450 l 1
 350 400 l 1025
100 350 m 1
 200 350 l 1
 200 400 l 1
 100 400 l 1
 100 350 l 1025
300 350 m 1
 350 350 l 1
 350 400 l 1
 300 400 l 1
 300 350 l 1025
100 300 m 1
 200 300 l 1
 200 350 l 1
 100 350 l 1
 100 300 l 1025
250 300 m 1
 300 300 l 1
 300 350 l 1
 250 350 l 1
 250 300 l 1025
100 250 m 1
 350 250 l 1
 350 300 l 1
 100 300 l 1
 100 250 l 1025
100 200 m 1
 200 200 l 1
 200 250 l 1
 100 250 l 1
 100 200 l 1025
250 200 m 1
 400 200 l 1
 400 250 l 1
 250 250 l 1
 250 200 l 1025
100 150 m 1
 200 150 l 1
 200 200 l 1
 100 200 l 1
 100 150 l 1025
300 150 m 1
 450 150 l 1
 450 200 l 1
 300 200 l 1
 300 150 l 1025
100 100 m 1
 200 100 l 1
 200 150 l 1
 100 150 l 1
 100 100 l 1025
350 100 m 1
 500 100 l 1
 500 150 l 1
 350 150 l 1
 350 100 l 1025
100 50 m 1
 200 50 l 1
 200 100 l 1
 100 100 l 1
 100 50 l 1025
400 50 m 1
 550 50 l 1
 550 100 l 1
 400 100 l 1
 400 50 l 1025
100 0 m 1
 200 0 l 1
 200 50 l 1
 100 50 l 1
 100 0 l 1025
450 0 m 1
 600 0 l 1
 600 50 l 1
 450 50 l 1
 450 0 l 1
EndSplineSet
EndChar

StartChar: l
Encoding: 108 108 77
Width: 900
VWidth: 0
Flags: HW
LayerCount: 2
Back
Fore
SplineSet
100 650 m 1
 400 650 l 1
 400 700 l 1
 100 700 l 1
 100 650 l 1025
300 600 m 1
 400 600 l 1
 400 650 l 1
 300 650 l 1
 300 600 l 1025
300 550 m 1
 400 550 l 1
 400 600 l 1
 300 600 l 1
 300 550 l 1025
300 500 m 1
 400 500 l 1
 400 550 l 1
 300 550 l 1
 300 500 l 1025
300 450 m 1
 400 450 l 1
 400 500 l 1
 300 500 l 1
 300 450 l 1025
300 400 m 1
 400 400 l 1
 400 450 l 1
 300 450 l 1
 300 400 l 1025
300 350 m 1
 400 350 l 1
 400 400 l 1
 300 400 l 1
 300 350 l 1025
300 300 m 1
 400 300 l 1
 400 350 l 1
 300 350 l 1
 300 300 l 1025
300 250 m 1
 400 250 l 1
 400 300 l 1
 300 300 l 1
 300 250 l 1025
300 200 m 1
 400 200 l 1
 400 250 l 1
 300 250 l 1
 300 200 l 1025
300 150 m 1
 400 150 l 1
 400 200 l 1
 300 200 l 1
 300 150 l 1025
300 100 m 1
 400 100 l 1
 400 150 l 1
 300 150 l 1
 300 100 l 1025
300 50 m 1
 400 50 l 1
 400 100 l 1
 300 100 l 1
 300 50 l 1025
300 0 m 1
 400 0 l 1
 400 50 l 1
 300 50 l 1
 300 0 l 1
EndSplineSet
EndChar

StartChar: m
Encoding: 109 109 78
Width: 900
VWidth: 0
Flags: HW
LayerCount: 2
Back
Fore
SplineSet
50 500 m 1
 100 500 l 1
 100 550 l 1
 50 550 l 1
 50 500 l 1025
150 500 m 1
 300 500 l 1
 300 550 l 1
 150 550 l 1
 150 500 l 1025
400 500 m 1
 550 500 l 1
 550 550 l 1
 400 550 l 1
 400 500 l 1025
50 450 m 1
 100 450 l 1
 100 500 l 1
 50 500 l 1
 50 450 l 1025
150 450 m 1
 200 450 l 1
 200 500 l 1
 150 500 l 1
 150 450 l 1025
300 450 m 1
 450 450 l 1
 450 500 l 1
 300 500 l 1
 300 450 l 1025
550 450 m 1
 600 450 l 1
 600 500 l 1
 550 500 l 1
 550 450 l 1025
50 400 m 1
 150 400 l 1
 150 450 l 1
 50 450 l 1
 50 400 l 1025
300 400 m 1
 400 400 l 1
 400 450 l 1
 300 450 l 1
 300 400 l 1025
550 400 m 1
 600 400 l 1
 600 450 l 1
 550 450 l 1
 550 400 l 1025
50 350 m 1
 100 350 l 1
 100 400 l 1
 50 400 l 1
 50 350 l 1025
300 350 m 1
 350 350 l 1
 350 400 l 1
 300 400 l 1
 300 350 l 1025
550 350 m 1
 600 350 l 1
 600 400 l 1
 550 400 l 1
 550 350 l 1025
50 300 m 1
 100 300 l 1
 100 350 l 1
 50 350 l 1
 50 300 l 1025
300 300 m 1
 350 300 l 1
 350 350 l 1
 300 350 l 1
 300 300 l 1025
550 300 m 1
 600 300 l 1
 600 350 l 1
 550 350 l 1
 550 300 l 1025
50 250 m 1
 100 250 l 1
 100 300 l 1
 50 300 l 1
 50 250 l 1025
300 250 m 1
 350 250 l 1
 350 300 l 1
 300 300 l 1
 300 250 l 1025
550 250 m 1
 600 250 l 1
 600 300 l 1
 550 300 l 1
 550 250 l 1025
50 200 m 1
 100 200 l 1
 100 250 l 1
 50 250 l 1
 50 200 l 1025
300 200 m 1
 350 200 l 1
 350 250 l 1
 300 250 l 1
 300 200 l 1025
550 200 m 1
 600 200 l 1
 600 250 l 1
 550 250 l 1
 550 200 l 1025
50 150 m 1
 100 150 l 1
 100 200 l 1
 50 200 l 1
 50 150 l 1025
300 150 m 1
 350 150 l 1
 350 200 l 1
 300 200 l 1
 300 150 l 1025
550 150 m 1
 600 150 l 1
 600 200 l 1
 550 200 l 1
 550 150 l 1025
50 100 m 1
 100 100 l 1
 100 150 l 1
 50 150 l 1
 50 100 l 1025
300 100 m 1
 350 100 l 1
 350 150 l 1
 300 150 l 1
 300 100 l 1025
550 100 m 1
 600 100 l 1
 600 150 l 1
 550 150 l 1
 550 100 l 1025
50 50 m 1
 100 50 l 1
 100 100 l 1
 50 100 l 1
 50 50 l 1025
300 50 m 1
 350 50 l 1
 350 100 l 1
 300 100 l 1
 300 50 l 1025
550 50 m 1
 600 50 l 1
 600 100 l 1
 550 100 l 1
 550 50 l 1025
50 0 m 1
 100 0 l 1
 100 50 l 1
 50 50 l 1
 50 0 l 1025
300 0 m 1
 350 0 l 1
 350 50 l 1
 300 50 l 1
 300 0 l 1025
550 0 m 1
 600 0 l 1
 600 50 l 1
 550 50 l 1
 550 0 l 1
EndSplineSet
EndChar

StartChar: n
Encoding: 110 110 79
Width: 900
VWidth: 0
Flags: HW
LayerCount: 2
Back
Fore
SplineSet
100 500 m 1
 200 500 l 1
 200 550 l 1
 100 550 l 1
 100 500 l 1025
300 500 m 1
 500 500 l 1
 500 550 l 1
 300 550 l 1
 300 500 l 1025
100 450 m 1
 200 450 l 1
 200 500 l 1
 100 500 l 1
 100 450 l 1025
250 450 m 1
 550 450 l 1
 550 500 l 1
 250 500 l 1
 250 450 l 1025
100 400 m 1
 300 400 l 1
 300 450 l 1
 100 450 l 1
 100 400 l 1025
450 400 m 1
 550 400 l 1
 550 450 l 1
 450 450 l 1
 450 400 l 1025
100 350 m 1
 200 350 l 1
 200 400 l 1
 100 400 l 1
 100 350 l 1025
450 350 m 1
 550 350 l 1
 550 400 l 1
 450 400 l 1
 450 350 l 1025
100 300 m 1
 200 300 l 1
 200 350 l 1
 100 350 l 1
 100 300 l 1025
450 300 m 1
 550 300 l 1
 550 350 l 1
 450 350 l 1
 450 300 l 1025
100 250 m 1
 200 250 l 1
 200 300 l 1
 100 300 l 1
 100 250 l 1025
450 250 m 1
 550 250 l 1
 550 300 l 1
 450 300 l 1
 450 250 l 1025
100 200 m 1
 200 200 l 1
 200 250 l 1
 100 250 l 1
 100 200 l 1025
450 200 m 1
 550 200 l 1
 550 250 l 1
 450 250 l 1
 450 200 l 1025
100 150 m 1
 200 150 l 1
 200 200 l 1
 100 200 l 1
 100 150 l 1025
450 150 m 1
 550 150 l 1
 550 200 l 1
 450 200 l 1
 450 150 l 1025
100 100 m 1
 200 100 l 1
 200 150 l 1
 100 150 l 1
 100 100 l 1025
450 100 m 1
 550 100 l 1
 550 150 l 1
 450 150 l 1
 450 100 l 1025
100 50 m 1
 200 50 l 1
 200 100 l 1
 100 100 l 1
 100 50 l 1025
450 50 m 1
 550 50 l 1
 550 100 l 1
 450 100 l 1
 450 50 l 1025
100 0 m 1
 200 0 l 1
 200 50 l 1
 100 50 l 1
 100 0 l 1025
450 0 m 1
 550 0 l 1
 550 50 l 1
 450 50 l 1
 450 0 l 1
EndSplineSet
EndChar

StartChar: o
Encoding: 111 111 80
Width: 900
VWidth: 0
Flags: HW
LayerCount: 2
Back
Fore
SplineSet
200 500 m 1
 400 500 l 1
 400 550 l 1
 200 550 l 1
 200 500 l 1025
100 450 m 1
 250 450 l 1
 250 500 l 1
 100 500 l 1
 100 450 l 1025
350 450 m 1
 500 450 l 1
 500 500 l 1
 350 500 l 1
 350 450 l 1025
100 400 m 1
 200 400 l 1
 200 450 l 1
 100 450 l 1
 100 400 l 1025
400 400 m 1
 500 400 l 1
 500 450 l 1
 400 450 l 1
 400 400 l 1025
50 350 m 1
 150 350 l 1
 150 400 l 1
 50 400 l 1
 50 350 l 1025
450 350 m 1
 550 350 l 1
 550 400 l 1
 450 400 l 1
 450 350 l 1025
50 300 m 1
 150 300 l 1
 150 350 l 1
 50 350 l 1
 50 300 l 1025
450 300 m 1
 550 300 l 1
 550 350 l 1
 450 350 l 1
 450 300 l 1025
50 250 m 1
 150 250 l 1
 150 300 l 1
 50 300 l 1
 50 250 l 1025
450 250 m 1
 550 250 l 1
 550 300 l 1
 450 300 l 1
 450 250 l 1025
50 200 m 1
 150 200 l 1
 150 250 l 1
 50 250 l 1
 50 200 l 1025
450 200 m 1
 550 200 l 1
 550 250 l 1
 450 250 l 1
 450 200 l 1025
50 150 m 1
 150 150 l 1
 150 200 l 1
 50 200 l 1
 50 150 l 1025
450 150 m 1
 550 150 l 1
 550 200 l 1
 450 200 l 1
 450 150 l 1025
100 100 m 1
 200 100 l 1
 200 150 l 1
 100 150 l 1
 100 100 l 1025
400 100 m 1
 500 100 l 1
 500 150 l 1
 400 150 l 1
 400 100 l 1025
100 50 m 1
 250 50 l 1
 250 100 l 1
 100 100 l 1
 100 50 l 1025
350 50 m 1
 500 50 l 1
 500 100 l 1
 350 100 l 1
 350 50 l 1025
200 0 m 1
 400 0 l 1
 400 50 l 1
 200 50 l 1
 200 0 l 1
EndSplineSet
EndChar

StartChar: p
Encoding: 112 112 81
Width: 900
VWidth: 0
Flags: HW
LayerCount: 2
Back
Fore
SplineSet
100 500 m 1
 200 500 l 1
 200 550 l 1
 100 550 l 1
 100 500 l 1025
250 500 m 1
 450 500 l 1
 450 550 l 1
 250 550 l 1
 250 500 l 1025
100 450 m 1
 300 450 l 1
 300 500 l 1
 100 500 l 1
 100 450 l 1025
400 450 m 1
 500 450 l 1
 500 500 l 1
 400 500 l 1
 400 450 l 1025
100 400 m 1
 250 400 l 1
 250 450 l 1
 100 450 l 1
 100 400 l 1025
450 400 m 1
 550 400 l 1
 550 450 l 1
 450 450 l 1
 450 400 l 1025
100 350 m 1
 200 350 l 1
 200 400 l 1
 100 400 l 1
 100 350 l 1025
450 350 m 1
 550 350 l 1
 550 400 l 1
 450 400 l 1
 450 350 l 1025
100 300 m 1
 200 300 l 1
 200 350 l 1
 100 350 l 1
 100 300 l 1025
450 300 m 1
 550 300 l 1
 550 350 l 1
 450 350 l 1
 450 300 l 1025
100 250 m 1
 200 250 l 1
 200 300 l 1
 100 300 l 1
 100 250 l 1025
450 250 m 1
 550 250 l 1
 550 300 l 1
 450 300 l 1
 450 250 l 1025
100 200 m 1
 200 200 l 1
 200 250 l 1
 100 250 l 1
 100 200 l 1025
450 200 m 1
 550 200 l 1
 550 250 l 1
 450 250 l 1
 450 200 l 1025
100 150 m 1
 200 150 l 1
 200 200 l 1
 100 200 l 1
 100 150 l 1025
450 150 m 1
 550 150 l 1
 550 200 l 1
 450 200 l 1
 450 150 l 1025
100 100 m 1
 200 100 l 1
 200 150 l 1
 100 150 l 1
 100 100 l 1025
400 100 m 1
 500 100 l 1
 500 150 l 1
 400 150 l 1
 400 100 l 1025
100 50 m 1
 250 50 l 1
 250 100 l 1
 100 100 l 1
 100 50 l 1025
400 50 m 1
 500 50 l 1
 500 100 l 1
 400 100 l 1
 400 50 l 1025
100 0 m 1
 200 0 l 1
 200 50 l 1
 100 50 l 1
 100 0 l 1025
250 0 m 1
 450 0 l 1
 450 50 l 1
 250 50 l 1
 250 0 l 1025
100 -50 m 1
 200 -50 l 1
 200 0 l 1
 100 0 l 1
 100 -50 l 1025
100 -100 m 1
 200 -100 l 1
 200 -50 l 1
 100 -50 l 1
 100 -100 l 1025
100 -150 m 1
 200 -150 l 1
 200 -100 l 1
 100 -100 l 1
 100 -150 l 1025
100 -200 m 1
 200 -200 l 1
 200 -150 l 1
 100 -150 l 1
 100 -200 l 1
EndSplineSet
EndChar

StartChar: q
Encoding: 113 113 82
Width: 900
VWidth: 0
Flags: HW
LayerCount: 2
Back
Fore
SplineSet
150 500 m 1
 350 500 l 1
 350 550 l 1
 150 550 l 1
 150 500 l 1025
400 500 m 1
 500 500 l 1
 500 550 l 1
 400 550 l 1
 400 500 l 1025
100 450 m 1
 200 450 l 1
 200 500 l 1
 100 500 l 1
 100 450 l 1025
350 450 m 1
 500 450 l 1
 500 500 l 1
 350 500 l 1
 350 450 l 1025
100 400 m 1
 200 400 l 1
 200 450 l 1
 100 450 l 1
 100 400 l 1025
400 400 m 1
 500 400 l 1
 500 450 l 1
 400 450 l 1
 400 400 l 1025
50 350 m 1
 150 350 l 1
 150 400 l 1
 50 400 l 1
 50 350 l 1025
400 350 m 1
 500 350 l 1
 500 400 l 1
 400 400 l 1
 400 350 l 1025
50 300 m 1
 150 300 l 1
 150 350 l 1
 50 350 l 1
 50 300 l 1025
400 300 m 1
 500 300 l 1
 500 350 l 1
 400 350 l 1
 400 300 l 1025
50 250 m 1
 150 250 l 1
 150 300 l 1
 50 300 l 1
 50 250 l 1025
400 250 m 1
 500 250 l 1
 500 300 l 1
 400 300 l 1
 400 250 l 1025
50 200 m 1
 150 200 l 1
 150 250 l 1
 50 250 l 1
 50 200 l 1025
400 200 m 1
 500 200 l 1
 500 250 l 1
 400 250 l 1
 400 200 l 1025
50 150 m 1
 150 150 l 1
 150 200 l 1
 50 200 l 1
 50 150 l 1025
400 150 m 1
 500 150 l 1
 500 200 l 1
 400 200 l 1
 400 150 l 1025
50 100 m 1
 150 100 l 1
 150 150 l 1
 50 150 l 1
 50 100 l 1025
350 100 m 1
 500 100 l 1
 500 150 l 1
 350 150 l 1
 350 100 l 1025
100 50 m 1
 200 50 l 1
 200 100 l 1
 100 100 l 1
 100 50 l 1025
300 50 m 1
 500 50 l 1
 500 100 l 1
 300 100 l 1
 300 50 l 1025
150 0 m 1
 350 0 l 1
 350 50 l 1
 150 50 l 1
 150 0 l 1025
400 0 m 1
 500 0 l 1
 500 50 l 1
 400 50 l 1
 400 0 l 1025
400 -50 m 1
 500 -50 l 1
 500 0 l 1
 400 0 l 1
 400 -50 l 1025
400 -100 m 1
 500 -100 l 1
 500 -50 l 1
 400 -50 l 1
 400 -100 l 1025
400 -150 m 1
 500 -150 l 1
 500 -100 l 1
 400 -100 l 1
 400 -150 l 1025
400 -200 m 1
 500 -200 l 1
 500 -150 l 1
 400 -150 l 1
 400 -200 l 1
EndSplineSet
EndChar

StartChar: r
Encoding: 114 114 83
Width: 900
VWidth: 0
Flags: HW
LayerCount: 2
Back
Fore
SplineSet
150 500 m 1
 250 500 l 1
 250 550 l 1
 150 550 l 1
 150 500 l 1025
300 500 m 1
 550 500 l 1
 550 550 l 1
 300 550 l 1
 300 500 l 1025
150 450 m 1
 350 450 l 1
 350 500 l 1
 150 500 l 1
 150 450 l 1025
500 450 m 1
 550 450 l 1
 550 500 l 1
 500 500 l 1
 500 450 l 1025
150 400 m 1
 300 400 l 1
 300 450 l 1
 150 450 l 1
 150 400 l 1025
500 400 m 1
 550 400 l 1
 550 450 l 1
 500 450 l 1
 500 400 l 1025
150 350 m 1
 250 350 l 1
 250 400 l 1
 150 400 l 1
 150 350 l 1025
150 300 m 1
 250 300 l 1
 250 350 l 1
 150 350 l 1
 150 300 l 1025
150 250 m 1
 250 250 l 1
 250 300 l 1
 150 300 l 1
 150 250 l 1025
150 200 m 1
 250 200 l 1
 250 250 l 1
 150 250 l 1
 150 200 l 1025
150 150 m 1
 250 150 l 1
 250 200 l 1
 150 200 l 1
 150 150 l 1025
150 100 m 1
 250 100 l 1
 250 150 l 1
 150 150 l 1
 150 100 l 1025
150 50 m 1
 250 50 l 1
 250 100 l 1
 150 100 l 1
 150 50 l 1025
150 0 m 1
 250 0 l 1
 250 50 l 1
 150 50 l 1
 150 0 l 1
EndSplineSet
EndChar

StartChar: s
Encoding: 115 115 84
Width: 900
VWidth: 0
Flags: HW
LayerCount: 2
Back
Fore
SplineSet
200 500 m 1
 450 500 l 1
 450 550 l 1
 200 550 l 1
 200 500 l 1025
150 450 m 1
 250 450 l 1
 250 500 l 1
 150 500 l 1
 150 450 l 1025
400 450 m 1
 450 450 l 1
 450 500 l 1
 400 500 l 1
 400 450 l 1025
100 400 m 1
 200 400 l 1
 200 450 l 1
 100 450 l 1
 100 400 l 1025
100 350 m 1
 200 350 l 1
 200 400 l 1
 100 400 l 1
 100 350 l 1025
100 300 m 1
 350 300 l 1
 350 350 l 1
 100 350 l 1
 100 300 l 1025
200 250 m 1
 450 250 l 1
 450 300 l 1
 200 300 l 1
 200 250 l 1025
300 200 m 1
 500 200 l 1
 500 250 l 1
 300 250 l 1
 300 200 l 1025
400 150 m 1
 500 150 l 1
 500 200 l 1
 400 200 l 1
 400 150 l 1025
400 100 m 1
 500 100 l 1
 500 150 l 1
 400 150 l 1
 400 100 l 1025
100 50 m 1
 150 50 l 1
 150 100 l 1
 100 100 l 1
 100 50 l 1025
350 50 m 1
 450 50 l 1
 450 100 l 1
 350 100 l 1
 350 50 l 1025
100 0 m 1
 400 0 l 1
 400 50 l 1
 100 50 l 1
 100 0 l 1
EndSplineSet
EndChar

StartChar: t
Encoding: 116 116 85
Width: 900
VWidth: 0
Flags: HW
LayerCount: 2
Back
Fore
SplineSet
200 600 m 1
 300 600 l 1
 300 650 l 1
 200 650 l 1
 200 600 l 1025
200 550 m 1
 300 550 l 1
 300 600 l 1
 200 600 l 1
 200 550 l 1025
50 500 m 1
 550 500 l 1
 550 550 l 1
 50 550 l 1
 50 500 l 1025
200 450 m 1
 300 450 l 1
 300 500 l 1
 200 500 l 1
 200 450 l 1025
200 400 m 1
 300 400 l 1
 300 450 l 1
 200 450 l 1
 200 400 l 1025
200 350 m 1
 300 350 l 1
 300 400 l 1
 200 400 l 1
 200 350 l 1025
200 300 m 1
 300 300 l 1
 300 350 l 1
 200 350 l 1
 200 300 l 1025
200 250 m 1
 300 250 l 1
 300 300 l 1
 200 300 l 1
 200 250 l 1025
200 200 m 1
 300 200 l 1
 300 250 l 1
 200 250 l 1
 200 200 l 1025
200 150 m 1
 300 150 l 1
 300 200 l 1
 200 200 l 1
 200 150 l 1025
200 100 m 1
 300 100 l 1
 300 150 l 1
 200 150 l 1
 200 100 l 1025
200 50 m 1
 350 50 l 1
 350 100 l 1
 200 100 l 1
 200 50 l 1025
250 0 m 1
 550 0 l 1
 550 50 l 1
 250 50 l 1
 250 0 l 1
EndSplineSet
EndChar

StartChar: u
Encoding: 117 117 86
Width: 900
VWidth: 0
Flags: HW
LayerCount: 2
Back
Fore
SplineSet
50 500 m 1
 150 500 l 1
 150 550 l 1
 50 550 l 1
 50 500 l 1025
400 500 m 1
 500 500 l 1
 500 550 l 1
 400 550 l 1
 400 500 l 1025
50 450 m 1
 150 450 l 1
 150 500 l 1
 50 500 l 1
 50 450 l 1025
400 450 m 1
 500 450 l 1
 500 500 l 1
 400 500 l 1
 400 450 l 1025
50 400 m 1
 150 400 l 1
 150 450 l 1
 50 450 l 1
 50 400 l 1025
400 400 m 1
 500 400 l 1
 500 450 l 1
 400 450 l 1
 400 400 l 1025
50 350 m 1
 150 350 l 1
 150 400 l 1
 50 400 l 1
 50 350 l 1025
400 350 m 1
 500 350 l 1
 500 400 l 1
 400 400 l 1
 400 350 l 1025
50 300 m 1
 150 300 l 1
 150 350 l 1
 50 350 l 1
 50 300 l 1025
400 300 m 1
 500 300 l 1
 500 350 l 1
 400 350 l 1
 400 300 l 1025
50 250 m 1
 150 250 l 1
 150 300 l 1
 50 300 l 1
 50 250 l 1025
400 250 m 1
 500 250 l 1
 500 300 l 1
 400 300 l 1
 400 250 l 1025
50 200 m 1
 150 200 l 1
 150 250 l 1
 50 250 l 1
 50 200 l 1025
400 200 m 1
 500 200 l 1
 500 250 l 1
 400 250 l 1
 400 200 l 1025
50 150 m 1
 150 150 l 1
 150 200 l 1
 50 200 l 1
 50 150 l 1025
400 150 m 1
 500 150 l 1
 500 200 l 1
 400 200 l 1
 400 150 l 1025
50 100 m 1
 150 100 l 1
 150 150 l 1
 50 150 l 1
 50 100 l 1025
300 100 m 1
 500 100 l 1
 500 150 l 1
 300 150 l 1
 300 100 l 1025
100 50 m 1
 350 50 l 1
 350 100 l 1
 100 100 l 1
 100 50 l 1025
400 50 m 1
 500 50 l 1
 500 100 l 1
 400 100 l 1
 400 50 l 1025
100 0 m 1
 300 0 l 1
 300 50 l 1
 100 50 l 1
 100 0 l 1025
400 0 m 1
 500 0 l 1
 500 50 l 1
 400 50 l 1
 400 0 l 1
EndSplineSet
EndChar

StartChar: v
Encoding: 118 118 87
Width: 900
VWidth: 0
Flags: HW
LayerCount: 2
Back
Fore
SplineSet
0 500 m 1
 100 500 l 1
 100 550 l 1
 0 550 l 1
 0 500 l 1025
450 500 m 1
 550 500 l 1
 550 550 l 1
 450 550 l 1
 450 500 l 1025
50 450 m 1
 150 450 l 1
 150 500 l 1
 50 500 l 1
 50 450 l 1025
450 450 m 1
 500 450 l 1
 500 500 l 1
 450 500 l 1
 450 450 l 1025
50 400 m 1
 150 400 l 1
 150 450 l 1
 50 450 l 1
 50 400 l 1025
450 400 m 1
 500 400 l 1
 500 450 l 1
 450 450 l 1
 450 400 l 1025
50 350 m 1
 200 350 l 1
 200 400 l 1
 50 400 l 1
 50 350 l 1025
400 350 m 1
 450 350 l 1
 450 400 l 1
 400 400 l 1
 400 350 l 1025
100 300 m 1
 200 300 l 1
 200 350 l 1
 100 350 l 1
 100 300 l 1025
400 300 m 1
 450 300 l 1
 450 350 l 1
 400 350 l 1
 400 300 l 1025
100 250 m 1
 200 250 l 1
 200 300 l 1
 100 300 l 1
 100 250 l 1025
350 250 m 1
 400 250 l 1
 400 300 l 1
 350 300 l 1
 350 250 l 1025
150 200 m 1
 250 200 l 1
 250 250 l 1
 150 250 l 1
 150 200 l 1025
350 200 m 1
 400 200 l 1
 400 250 l 1
 350 250 l 1
 350 200 l 1025
150 150 m 1
 250 150 l 1
 250 200 l 1
 150 200 l 1
 150 150 l 1025
300 150 m 1
 400 150 l 1
 400 200 l 1
 300 200 l 1
 300 150 l 1025
150 100 m 1
 350 100 l 1
 350 150 l 1
 150 150 l 1
 150 100 l 1025
200 50 m 1
 350 50 l 1
 350 100 l 1
 200 100 l 1
 200 50 l 1025
200 0 m 1
 300 0 l 1
 300 50 l 1
 200 50 l 1
 200 0 l 1
EndSplineSet
EndChar

StartChar: w
Encoding: 119 119 88
Width: 900
VWidth: 0
Flags: HW
LayerCount: 2
Back
Fore
SplineSet
0 500 m 1
 100 500 l 1
 100 550 l 1
 0 550 l 1
 0 500 l 1025
550 500 m 1
 600 500 l 1
 600 550 l 1
 550 550 l 1
 550 500 l 1025
0 450 m 1
 100 450 l 1
 100 500 l 1
 0 500 l 1
 0 450 l 1025
250 450 m 1
 350 450 l 1
 350 500 l 1
 250 500 l 1
 250 450 l 1025
550 450 m 1
 600 450 l 1
 600 500 l 1
 550 500 l 1
 550 450 l 1025
0 400 m 1
 100 400 l 1
 100 450 l 1
 0 450 l 1
 0 400 l 1025
250 400 m 1
 350 400 l 1
 350 450 l 1
 250 450 l 1
 250 400 l 1025
500 400 m 1
 550 400 l 1
 550 450 l 1
 500 450 l 1
 500 400 l 1025
50 350 m 1
 150 350 l 1
 150 400 l 1
 50 400 l 1
 50 350 l 1025
250 350 m 1
 350 350 l 1
 350 400 l 1
 250 400 l 1
 250 350 l 1025
500 350 m 1
 550 350 l 1
 550 400 l 1
 500 400 l 1
 500 350 l 1025
50 300 m 1
 150 300 l 1
 150 350 l 1
 50 350 l 1
 50 300 l 1025
200 300 m 1
 250 300 l 1
 250 350 l 1
 200 350 l 1
 200 300 l 1025
350 300 m 1
 400 300 l 1
 400 350 l 1
 350 350 l 1
 350 300 l 1025
500 300 m 1
 550 300 l 1
 550 350 l 1
 500 350 l 1
 500 300 l 1025
50 250 m 1
 150 250 l 1
 150 300 l 1
 50 300 l 1
 50 250 l 1025
200 250 m 1
 250 250 l 1
 250 300 l 1
 200 300 l 1
 200 250 l 1025
350 250 m 1
 400 250 l 1
 400 300 l 1
 350 300 l 1
 350 250 l 1025
500 250 m 1
 550 250 l 1
 550 300 l 1
 500 300 l 1
 500 250 l 1025
50 200 m 1
 150 200 l 1
 150 250 l 1
 50 250 l 1
 50 200 l 1025
200 200 m 1
 250 200 l 1
 250 250 l 1
 200 250 l 1
 200 200 l 1025
350 200 m 1
 400 200 l 1
 400 250 l 1
 350 250 l 1
 350 200 l 1025
450 200 m 1
 550 200 l 1
 550 250 l 1
 450 250 l 1
 450 200 l 1025
50 150 m 1
 150 150 l 1
 150 200 l 1
 50 200 l 1
 50 150 l 1025
200 150 m 1
 250 150 l 1
 250 200 l 1
 200 200 l 1
 200 150 l 1025
350 150 m 1
 400 150 l 1
 400 200 l 1
 350 200 l 1
 350 150 l 1025
450 150 m 1
 500 150 l 1
 500 200 l 1
 450 200 l 1
 450 150 l 1025
50 100 m 1
 200 100 l 1
 200 150 l 1
 50 150 l 1
 50 100 l 1025
350 100 m 1
 500 100 l 1
 500 150 l 1
 350 150 l 1
 350 100 l 1025
100 50 m 1
 200 50 l 1
 200 100 l 1
 100 100 l 1
 100 50 l 1025
400 50 m 1
 500 50 l 1
 500 100 l 1
 400 100 l 1
 400 50 l 1025
100 0 m 1
 200 0 l 1
 200 50 l 1
 100 50 l 1
 100 0 l 1025
400 0 m 1
 500 0 l 1
 500 50 l 1
 400 50 l 1
 400 0 l 1
EndSplineSet
EndChar

StartChar: x
Encoding: 120 120 89
Width: 900
VWidth: 0
Flags: HW
LayerCount: 2
Back
Fore
SplineSet
50 500 m 1
 200 500 l 1
 200 550 l 1
 50 550 l 1
 50 500 l 1025
450 500 m 1
 500 500 l 1
 500 550 l 1
 450 550 l 1
 450 500 l 1025
100 450 m 1
 200 450 l 1
 200 500 l 1
 100 500 l 1
 100 450 l 1025
400 450 m 1
 450 450 l 1
 450 500 l 1
 400 500 l 1
 400 450 l 1025
150 400 m 1
 250 400 l 1
 250 450 l 1
 150 450 l 1
 150 400 l 1025
400 400 m 1
 450 400 l 1
 450 450 l 1
 400 450 l 1
 400 400 l 1025
150 350 m 1
 300 350 l 1
 300 400 l 1
 150 400 l 1
 150 350 l 1025
350 350 m 1
 400 350 l 1
 400 400 l 1
 350 400 l 1
 350 350 l 1025
200 300 m 1
 350 300 l 1
 350 350 l 1
 200 350 l 1
 200 300 l 1025
250 250 m 1
 350 250 l 1
 350 300 l 1
 250 300 l 1
 250 250 l 1025
200 200 m 1
 400 200 l 1
 400 250 l 1
 200 250 l 1
 200 200 l 1025
200 150 m 1
 250 150 l 1
 250 200 l 1
 200 200 l 1
 200 150 l 1025
300 150 m 1
 450 150 l 1
 450 200 l 1
 300 200 l 1
 300 150 l 1025
150 100 m 1
 200 100 l 1
 200 150 l 1
 150 150 l 1
 150 100 l 1025
350 100 m 1
 450 100 l 1
 450 150 l 1
 350 150 l 1
 350 100 l 1025
100 50 m 1
 200 50 l 1
 200 100 l 1
 100 100 l 1
 100 50 l 1025
400 50 m 1
 500 50 l 1
 500 100 l 1
 400 100 l 1
 400 50 l 1025
50 0 m 1
 150 0 l 1
 150 50 l 1
 50 50 l 1
 50 0 l 1025
400 0 m 1
 550 0 l 1
 550 50 l 1
 400 50 l 1
 400 0 l 1
EndSplineSet
EndChar

StartChar: y
Encoding: 121 121 90
Width: 900
VWidth: 0
Flags: HW
LayerCount: 2
Back
Fore
SplineSet
50 500 m 1
 150 500 l 1
 150 550 l 1
 50 550 l 1
 50 500 l 1025
500 500 m 1
 600 500 l 1
 600 550 l 1
 500 550 l 1
 500 500 l 1025
100 450 m 1
 200 450 l 1
 200 500 l 1
 100 500 l 1
 100 450 l 1025
500 450 m 1
 550 450 l 1
 550 500 l 1
 500 500 l 1
 500 450 l 1025
100 400 m 1
 200 400 l 1
 200 450 l 1
 100 450 l 1
 100 400 l 1025
500 400 m 1
 550 400 l 1
 550 450 l 1
 500 450 l 1
 500 400 l 1025
100 350 m 1
 250 350 l 1
 250 400 l 1
 100 400 l 1
 100 350 l 1025
450 350 m 1
 500 350 l 1
 500 400 l 1
 450 400 l 1
 450 350 l 1025
150 300 m 1
 250 300 l 1
 250 350 l 1
 150 350 l 1
 150 300 l 1025
450 300 m 1
 500 300 l 1
 500 350 l 1
 450 350 l 1
 450 300 l 1025
150 250 m 1
 250 250 l 1
 250 300 l 1
 150 300 l 1
 150 250 l 1025
400 250 m 1
 450 250 l 1
 450 300 l 1
 400 300 l 1
 400 250 l 1025
200 200 m 1
 300 200 l 1
 300 250 l 1
 200 250 l 1
 200 200 l 1025
400 200 m 1
 450 200 l 1
 450 250 l 1
 400 250 l 1
 400 200 l 1025
200 150 m 1
 300 150 l 1
 300 200 l 1
 200 200 l 1
 200 150 l 1025
350 150 m 1
 400 150 l 1
 400 200 l 1
 350 200 l 1
 350 150 l 1025
250 100 m 1
 400 100 l 1
 400 150 l 1
 250 150 l 1
 250 100 l 1025
250 50 m 1
 400 50 l 1
 400 100 l 1
 250 100 l 1
 250 50 l 1025
250 0 m 1
 350 0 l 1
 350 50 l 1
 250 50 l 1
 250 0 l 1025
300 -50 m 1
 350 -50 l 1
 350 0 l 1
 300 0 l 1
 300 -50 l 1025
250 -100 m 1
 300 -100 l 1
 300 -50 l 1
 250 -50 l 1
 250 -100 l 1025
200 -150 m 1
 300 -150 l 1
 300 -100 l 1
 200 -100 l 1
 200 -150 l 1025
100 -200 m 1
 250 -200 l 1
 250 -150 l 1
 100 -150 l 1
 100 -200 l 1
EndSplineSet
EndChar

StartChar: z
Encoding: 122 122 91
Width: 900
VWidth: 0
Flags: HW
LayerCount: 2
Back
Fore
SplineSet
50 500 m 1
 500 500 l 1
 500 550 l 1
 50 550 l 1
 50 500 l 1025
400 450 m 1
 450 450 l 1
 450 500 l 1
 400 500 l 1
 400 450 l 1025
350 400 m 1
 400 400 l 1
 400 450 l 1
 350 450 l 1
 350 400 l 1025
300 350 m 1
 400 350 l 1
 400 400 l 1
 300 400 l 1
 300 350 l 1025
300 300 m 1
 350 300 l 1
 350 350 l 1
 300 350 l 1
 300 300 l 1025
250 250 m 1
 300 250 l 1
 300 300 l 1
 250 300 l 1
 250 250 l 1025
200 200 m 1
 250 200 l 1
 250 250 l 1
 200 250 l 1
 200 200 l 1025
150 150 m 1
 200 150 l 1
 200 200 l 1
 150 200 l 1
 150 150 l 1025
100 100 m 1
 200 100 l 1
 200 150 l 1
 100 150 l 1
 100 100 l 1025
100 50 m 1
 150 50 l 1
 150 100 l 1
 100 100 l 1
 100 50 l 1025
50 0 m 1
 500 0 l 1
 500 50 l 1
 50 50 l 1
 50 0 l 1
EndSplineSet
EndChar

StartChar: braceleft
Encoding: 123 123 92
Width: 900
VWidth: 0
Flags: HW
LayerCount: 2
Back
Fore
SplineSet
300 650 m 1
 500 650 l 1
 500 700 l 1
 300 700 l 1
 300 650 l 1025
250 600 m 1
 350 600 l 1
 350 650 l 1
 250 650 l 1
 250 600 l 1025
250 550 m 1
 350 550 l 1
 350 600 l 1
 250 600 l 1
 250 550 l 1025
250 500 m 1
 350 500 l 1
 350 550 l 1
 250 550 l 1
 250 500 l 1025
300 450 m 1
 350 450 l 1
 350 500 l 1
 300 500 l 1
 300 450 l 1025
300 400 m 1
 350 400 l 1
 350 450 l 1
 300 450 l 1
 300 400 l 1025
300 350 m 1
 350 350 l 1
 350 400 l 1
 300 400 l 1
 300 350 l 1025
250 300 m 1
 350 300 l 1
 350 350 l 1
 250 350 l 1
 250 300 l 1025
100 250 m 1
 250 250 l 1
 250 300 l 1
 100 300 l 1
 100 250 l 1025
250 200 m 1
 350 200 l 1
 350 250 l 1
 250 250 l 1
 250 200 l 1025
300 150 m 1
 350 150 l 1
 350 200 l 1
 300 200 l 1
 300 150 l 1025
300 100 m 1
 350 100 l 1
 350 150 l 1
 300 150 l 1
 300 100 l 1025
250 50 m 1
 350 50 l 1
 350 100 l 1
 250 100 l 1
 250 50 l 1025
250 0 m 1
 350 0 l 1
 350 50 l 1
 250 50 l 1
 250 0 l 1025
250 -50 m 1
 350 -50 l 1
 350 0 l 1
 250 0 l 1
 250 -50 l 1025
250 -100 m 1
 350 -100 l 1
 350 -50 l 1
 250 -50 l 1
 250 -100 l 1025
300 -150 m 1
 500 -150 l 1
 500 -100 l 1
 300 -100 l 1
 300 -150 l 1
EndSplineSet
EndChar

StartChar: bar
Encoding: 124 124 93
Width: 900
VWidth: 0
Flags: HW
LayerCount: 2
Back
Fore
SplineSet
250 650 m 1
 300 650 l 1
 300 700 l 1
 250 700 l 1
 250 650 l 1025
250 600 m 1
 300 600 l 1
 300 650 l 1
 250 650 l 1
 250 600 l 1025
250 550 m 1
 300 550 l 1
 300 600 l 1
 250 600 l 1
 250 550 l 1025
250 500 m 1
 300 500 l 1
 300 550 l 1
 250 550 l 1
 250 500 l 1025
250 450 m 1
 300 450 l 1
 300 500 l 1
 250 500 l 1
 250 450 l 1025
250 400 m 1
 300 400 l 1
 300 450 l 1
 250 450 l 1
 250 400 l 1025
250 350 m 1
 300 350 l 1
 300 400 l 1
 250 400 l 1
 250 350 l 1025
250 300 m 1
 300 300 l 1
 300 350 l 1
 250 350 l 1
 250 300 l 1025
250 250 m 1
 300 250 l 1
 300 300 l 1
 250 300 l 1
 250 250 l 1025
250 200 m 1
 300 200 l 1
 300 250 l 1
 250 250 l 1
 250 200 l 1025
250 150 m 1
 300 150 l 1
 300 200 l 1
 250 200 l 1
 250 150 l 1025
250 100 m 1
 300 100 l 1
 300 150 l 1
 250 150 l 1
 250 100 l 1025
250 50 m 1
 300 50 l 1
 300 100 l 1
 250 100 l 1
 250 50 l 1025
250 0 m 1
 300 0 l 1
 300 50 l 1
 250 50 l 1
 250 0 l 1025
250 -50 m 1
 300 -50 l 1
 300 0 l 1
 250 0 l 1
 250 -50 l 1025
250 -100 m 1
 300 -100 l 1
 300 -50 l 1
 250 -50 l 1
 250 -100 l 1025
250 -150 m 1
 300 -150 l 1
 300 -100 l 1
 250 -100 l 1
 250 -150 l 1
EndSplineSet
EndChar

StartChar: braceright
Encoding: 125 125 94
Width: 900
VWidth: 0
Flags: HW
LayerCount: 2
Back
Fore
SplineSet
100 650 m 1
 300 650 l 1
 300 700 l 1
 100 700 l 1
 100 650 l 1025
250 600 m 1
 350 600 l 1
 350 650 l 1
 250 650 l 1
 250 600 l 1025
250 550 m 1
 350 550 l 1
 350 600 l 1
 250 600 l 1
 250 550 l 1025
250 500 m 1
 350 500 l 1
 350 550 l 1
 250 550 l 1
 250 500 l 1025
250 450 m 1
 350 450 l 1
 350 500 l 1
 250 500 l 1
 250 450 l 1025
250 400 m 1
 300 400 l 1
 300 450 l 1
 250 450 l 1
 250 400 l 1025
250 350 m 1
 300 350 l 1
 300 400 l 1
 250 400 l 1
 250 350 l 1025
250 300 m 1
 350 300 l 1
 350 350 l 1
 250 350 l 1
 250 300 l 1025
300 250 m 1
 450 250 l 1
 450 300 l 1
 300 300 l 1
 300 250 l 1025
250 200 m 1
 350 200 l 1
 350 250 l 1
 250 250 l 1
 250 200 l 1025
250 150 m 1
 300 150 l 1
 300 200 l 1
 250 200 l 1
 250 150 l 1025
250 100 m 1
 300 100 l 1
 300 150 l 1
 250 150 l 1
 250 100 l 1025
250 50 m 1
 350 50 l 1
 350 100 l 1
 250 100 l 1
 250 50 l 1025
250 0 m 1
 350 0 l 1
 350 50 l 1
 250 50 l 1
 250 0 l 1025
250 -50 m 1
 350 -50 l 1
 350 0 l 1
 250 0 l 1
 250 -50 l 1025
250 -100 m 1
 350 -100 l 1
 350 -50 l 1
 250 -50 l 1
 250 -100 l 1025
100 -150 m 1
 300 -150 l 1
 300 -100 l 1
 100 -100 l 1
 100 -150 l 1
EndSplineSet
EndChar

StartChar: asciitilde
Encoding: 126 126 95
Width: 900
VWidth: 0
Flags: HW
LayerCount: 2
Back
Fore
SplineSet
100 350 m 1
 250 350 l 1
 250 400 l 1
 100 400 l 1
 100 350 l 1025
500 350 m 1
 550 350 l 1
 550 400 l 1
 500 400 l 1
 500 350 l 1025
100 300 m 1
 150 300 l 1
 150 350 l 1
 100 350 l 1
 100 300 l 1025
200 300 m 1
 300 300 l 1
 300 350 l 1
 200 350 l 1
 200 300 l 1025
500 300 m 1
 550 300 l 1
 550 350 l 1
 500 350 l 1
 500 300 l 1025
50 250 m 1
 100 250 l 1
 100 300 l 1
 50 300 l 1
 50 250 l 1025
250 250 m 1
 350 250 l 1
 350 300 l 1
 250 300 l 1
 250 250 l 1025
500 250 m 1
 550 250 l 1
 550 300 l 1
 500 300 l 1
 500 250 l 1025
50 200 m 1
 100 200 l 1
 100 250 l 1
 50 250 l 1
 50 200 l 1025
300 200 m 1
 400 200 l 1
 400 250 l 1
 300 250 l 1
 300 200 l 1025
450 200 m 1
 500 200 l 1
 500 250 l 1
 450 250 l 1
 450 200 l 1025
50 150 m 1
 100 150 l 1
 100 200 l 1
 50 200 l 1
 50 150 l 1025
350 150 m 1
 500 150 l 1
 500 200 l 1
 350 200 l 1
 350 150 l 1
EndSplineSet
EndChar

StartChar: exclamdown
Encoding: 161 161 97
Width: 900
VWidth: 0
Flags: HW
LayerCount: 2
Back
Fore
SplineSet
250 500 m 1
 300 500 l 1
 300 550 l 1
 250 550 l 1
 250 500 l 1025
250 450 m 1
 300 450 l 1
 300 500 l 1
 250 500 l 1
 250 450 l 1025
250 300 m 1
 300 300 l 1
 300 350 l 1
 250 350 l 1
 250 300 l 1025
250 250 m 1
 300 250 l 1
 300 300 l 1
 250 300 l 1
 250 250 l 1025
250 200 m 1
 300 200 l 1
 300 250 l 1
 250 250 l 1
 250 200 l 1025
250 150 m 1
 300 150 l 1
 300 200 l 1
 250 200 l 1
 250 150 l 1025
250 100 m 1
 350 100 l 1
 350 150 l 1
 250 150 l 1
 250 100 l 1025
250 50 m 1
 350 50 l 1
 350 100 l 1
 250 100 l 1
 250 50 l 1025
250 0 m 1
 350 0 l 1
 350 50 l 1
 250 50 l 1
 250 0 l 1025
250 -50 m 1
 350 -50 l 1
 350 0 l 1
 250 0 l 1
 250 -50 l 1025
250 -100 m 1
 350 -100 l 1
 350 -50 l 1
 250 -50 l 1
 250 -100 l 1025
250 -150 m 1
 350 -150 l 1
 350 -100 l 1
 250 -100 l 1
 250 -150 l 1025
250 -200 m 1
 350 -200 l 1
 350 -150 l 1
 250 -150 l 1
 250 -200 l 1
EndSplineSet
EndChar

StartChar: cent
Encoding: 162 162 98
Width: 900
VWidth: 0
Flags: HW
LayerCount: 2
Back
Fore
SplineSet
300 650 m 1
 350 650 l 1
 350 700 l 1
 300 700 l 1
 300 650 l 1025
300 600 m 1
 350 600 l 1
 350 650 l 1
 300 650 l 1
 300 600 l 1025
200 550 m 1
 500 550 l 1
 500 600 l 1
 200 600 l 1
 200 550 l 1025
150 500 m 1
 250 500 l 1
 250 550 l 1
 150 550 l 1
 150 500 l 1025
300 500 m 1
 350 500 l 1
 350 550 l 1
 300 550 l 1
 300 500 l 1025
450 500 m 1
 500 500 l 1
 500 550 l 1
 450 550 l 1
 450 500 l 1025
100 450 m 1
 250 450 l 1
 250 500 l 1
 100 500 l 1
 100 450 l 1025
300 450 m 1
 350 450 l 1
 350 500 l 1
 300 500 l 1
 300 450 l 1025
100 400 m 1
 200 400 l 1
 200 450 l 1
 100 450 l 1
 100 400 l 1025
300 400 m 1
 350 400 l 1
 350 450 l 1
 300 450 l 1
 300 400 l 1025
100 350 m 1
 200 350 l 1
 200 400 l 1
 100 400 l 1
 100 350 l 1025
300 350 m 1
 350 350 l 1
 350 400 l 1
 300 400 l 1
 300 350 l 1025
100 300 m 1
 200 300 l 1
 200 350 l 1
 100 350 l 1
 100 300 l 1025
300 300 m 1
 350 300 l 1
 350 350 l 1
 300 350 l 1
 300 300 l 1025
100 250 m 1
 200 250 l 1
 200 300 l 1
 100 300 l 1
 100 250 l 1025
300 250 m 1
 350 250 l 1
 350 300 l 1
 300 300 l 1
 300 250 l 1025
150 200 m 1
 200 200 l 1
 200 250 l 1
 150 250 l 1
 150 200 l 1025
300 200 m 1
 350 200 l 1
 350 250 l 1
 300 250 l 1
 300 200 l 1025
150 150 m 1
 250 150 l 1
 250 200 l 1
 150 200 l 1
 150 150 l 1025
300 150 m 1
 350 150 l 1
 350 200 l 1
 300 200 l 1
 300 150 l 1025
450 150 m 1
 500 150 l 1
 500 200 l 1
 450 200 l 1
 450 150 l 1025
200 100 m 1
 500 100 l 1
 500 150 l 1
 200 150 l 1
 200 100 l 1025
300 50 m 1
 350 50 l 1
 350 100 l 1
 300 100 l 1
 300 50 l 1025
300 0 m 1
 350 0 l 1
 350 50 l 1
 300 50 l 1
 300 0 l 1
EndSplineSet
EndChar

StartChar: sterling
Encoding: 163 163 99
Width: 900
VWidth: 0
Flags: HW
LayerCount: 2
Back
Fore
SplineSet
300 650 m 1
 500 650 l 1
 500 700 l 1
 300 700 l 1
 300 650 l 1025
250 600 m 1
 300 600 l 1
 300 650 l 1
 250 650 l 1
 250 600 l 1025
200 550 m 1
 300 550 l 1
 300 600 l 1
 200 600 l 1
 200 550 l 1025
200 500 m 1
 300 500 l 1
 300 550 l 1
 200 550 l 1
 200 500 l 1025
200 450 m 1
 300 450 l 1
 300 500 l 1
 200 500 l 1
 200 450 l 1025
200 400 m 1
 300 400 l 1
 300 450 l 1
 200 450 l 1
 200 400 l 1025
100 350 m 1
 400 350 l 1
 400 400 l 1
 100 400 l 1
 100 350 l 1025
200 300 m 1
 300 300 l 1
 300 350 l 1
 200 350 l 1
 200 300 l 1025
200 250 m 1
 300 250 l 1
 300 300 l 1
 200 300 l 1
 200 250 l 1025
200 200 m 1
 300 200 l 1
 300 250 l 1
 200 250 l 1
 200 200 l 1025
200 150 m 1
 300 150 l 1
 300 200 l 1
 200 200 l 1
 200 150 l 1025
150 100 m 1
 250 100 l 1
 250 150 l 1
 150 150 l 1
 150 100 l 1025
100 50 m 1
 250 50 l 1
 250 100 l 1
 100 100 l 1
 100 50 l 1025
100 0 m 1
 500 0 l 1
 500 50 l 1
 100 50 l 1
 100 0 l 1
EndSplineSet
EndChar

StartChar: currency
Encoding: 164 164 100
Width: 900
VWidth: 0
Flags: HW
LayerCount: 2
Back
Fore
SplineSet
50 550 m 1
 100 550 l 1
 100 600 l 1
 50 600 l 1
 50 550 l 1025
500 550 m 1
 550 550 l 1
 550 600 l 1
 500 600 l 1
 500 550 l 1025
100 500 m 1
 500 500 l 1
 500 550 l 1
 100 550 l 1
 100 500 l 1025
100 450 m 1
 200 450 l 1
 200 500 l 1
 100 500 l 1
 100 450 l 1025
400 450 m 1
 500 450 l 1
 500 500 l 1
 400 500 l 1
 400 450 l 1025
100 400 m 1
 150 400 l 1
 150 450 l 1
 100 450 l 1
 100 400 l 1025
450 400 m 1
 500 400 l 1
 500 450 l 1
 450 450 l 1
 450 400 l 1025
100 350 m 1
 150 350 l 1
 150 400 l 1
 100 400 l 1
 100 350 l 1025
450 350 m 1
 500 350 l 1
 500 400 l 1
 450 400 l 1
 450 350 l 1025
100 300 m 1
 150 300 l 1
 150 350 l 1
 100 350 l 1
 100 300 l 1025
450 300 m 1
 500 300 l 1
 500 350 l 1
 450 350 l 1
 450 300 l 1025
100 250 m 1
 150 250 l 1
 150 300 l 1
 100 300 l 1
 100 250 l 1025
450 250 m 1
 500 250 l 1
 500 300 l 1
 450 300 l 1
 450 250 l 1025
100 200 m 1
 200 200 l 1
 200 250 l 1
 100 250 l 1
 100 200 l 1025
400 200 m 1
 500 200 l 1
 500 250 l 1
 400 250 l 1
 400 200 l 1025
100 150 m 1
 500 150 l 1
 500 200 l 1
 100 200 l 1
 100 150 l 1025
50 100 m 1
 100 100 l 1
 100 150 l 1
 50 150 l 1
 50 100 l 1025
500 100 m 1
 550 100 l 1
 550 150 l 1
 500 150 l 1
 500 100 l 1
EndSplineSet
EndChar

StartChar: yen
Encoding: 165 165 101
Width: 900
VWidth: 0
Flags: HW
LayerCount: 2
Back
Fore
SplineSet
0 650 m 1
 150 650 l 1
 150 700 l 1
 0 700 l 1
 0 650 l 1025
500 650 m 1
 600 650 l 1
 600 700 l 1
 500 700 l 1
 500 650 l 1025
50 600 m 1
 150 600 l 1
 150 650 l 1
 50 650 l 1
 50 600 l 1025
450 600 m 1
 550 600 l 1
 550 650 l 1
 450 650 l 1
 450 600 l 1025
100 550 m 1
 200 550 l 1
 200 600 l 1
 100 600 l 1
 100 550 l 1025
450 550 m 1
 500 550 l 1
 500 600 l 1
 450 600 l 1
 450 550 l 1025
100 500 m 1
 250 500 l 1
 250 550 l 1
 100 550 l 1
 100 500 l 1025
400 500 m 1
 450 500 l 1
 450 550 l 1
 400 550 l 1
 400 500 l 1025
150 450 m 1
 300 450 l 1
 300 500 l 1
 150 500 l 1
 150 450 l 1025
350 450 m 1
 450 450 l 1
 450 500 l 1
 350 500 l 1
 350 450 l 1025
200 400 m 1
 300 400 l 1
 300 450 l 1
 200 450 l 1
 200 400 l 1025
350 400 m 1
 400 400 l 1
 400 450 l 1
 350 450 l 1
 350 400 l 1025
250 350 m 1
 350 350 l 1
 350 400 l 1
 250 400 l 1
 250 350 l 1025
100 300 m 1
 500 300 l 1
 500 350 l 1
 100 350 l 1
 100 300 l 1025
250 250 m 1
 350 250 l 1
 350 300 l 1
 250 300 l 1
 250 250 l 1025
100 200 m 1
 500 200 l 1
 500 250 l 1
 100 250 l 1
 100 200 l 1025
250 150 m 1
 350 150 l 1
 350 200 l 1
 250 200 l 1
 250 150 l 1025
250 100 m 1
 350 100 l 1
 350 150 l 1
 250 150 l 1
 250 100 l 1025
250 50 m 1
 350 50 l 1
 350 100 l 1
 250 100 l 1
 250 50 l 1025
250 0 m 1
 350 0 l 1
 350 50 l 1
 250 50 l 1
 250 0 l 1
EndSplineSet
EndChar

StartChar: brokenbar
Encoding: 166 166 102
Width: 900
VWidth: 0
Flags: HW
LayerCount: 2
Back
Fore
SplineSet
250 650 m 1
 300 650 l 1
 300 700 l 1
 250 700 l 1
 250 650 l 1025
250 600 m 1
 300 600 l 1
 300 650 l 1
 250 650 l 1
 250 600 l 1025
250 550 m 1
 300 550 l 1
 300 600 l 1
 250 600 l 1
 250 550 l 1025
250 500 m 1
 300 500 l 1
 300 550 l 1
 250 550 l 1
 250 500 l 1025
250 450 m 1
 300 450 l 1
 300 500 l 1
 250 500 l 1
 250 450 l 1025
250 400 m 1
 300 400 l 1
 300 450 l 1
 250 450 l 1
 250 400 l 1025
250 350 m 1
 300 350 l 1
 300 400 l 1
 250 400 l 1
 250 350 l 1025
250 150 m 1
 300 150 l 1
 300 200 l 1
 250 200 l 1
 250 150 l 1025
250 100 m 1
 300 100 l 1
 300 150 l 1
 250 150 l 1
 250 100 l 1025
250 50 m 1
 300 50 l 1
 300 100 l 1
 250 100 l 1
 250 50 l 1025
250 0 m 1
 300 0 l 1
 300 50 l 1
 250 50 l 1
 250 0 l 1025
250 -50 m 1
 300 -50 l 1
 300 0 l 1
 250 0 l 1
 250 -50 l 1025
250 -100 m 1
 300 -100 l 1
 300 -50 l 1
 250 -50 l 1
 250 -100 l 1025
250 -150 m 1
 300 -150 l 1
 300 -100 l 1
 250 -100 l 1
 250 -150 l 1
EndSplineSet
EndChar

StartChar: section
Encoding: 167 167 103
Width: 900
VWidth: 0
Flags: HW
LayerCount: 2
Back
Fore
SplineSet
200 650 m 1
 450 650 l 1
 450 700 l 1
 200 700 l 1
 200 650 l 1025
150 600 m 1
 200 600 l 1
 200 650 l 1
 150 650 l 1
 150 600 l 1025
400 600 m 1
 450 600 l 1
 450 650 l 1
 400 650 l 1
 400 600 l 1025
100 550 m 1
 150 550 l 1
 150 600 l 1
 100 600 l 1
 100 550 l 1025
100 500 m 1
 150 500 l 1
 150 550 l 1
 100 550 l 1
 100 500 l 1025
100 450 m 1
 250 450 l 1
 250 500 l 1
 100 500 l 1
 100 450 l 1025
100 400 m 1
 350 400 l 1
 350 450 l 1
 100 450 l 1
 100 400 l 1025
100 350 m 1
 400 350 l 1
 400 400 l 1
 100 400 l 1
 100 350 l 1025
100 300 m 1
 150 300 l 1
 150 350 l 1
 100 350 l 1
 100 300 l 1025
300 300 m 1
 450 300 l 1
 450 350 l 1
 300 350 l 1
 300 300 l 1025
100 250 m 1
 150 250 l 1
 150 300 l 1
 100 300 l 1
 100 250 l 1025
400 250 m 1
 450 250 l 1
 450 300 l 1
 400 300 l 1
 400 250 l 1025
100 200 m 1
 200 200 l 1
 200 250 l 1
 100 250 l 1
 100 200 l 1025
400 200 m 1
 450 200 l 1
 450 250 l 1
 400 250 l 1
 400 200 l 1025
100 150 m 1
 300 150 l 1
 300 200 l 1
 100 200 l 1
 100 150 l 1025
400 150 m 1
 450 150 l 1
 450 200 l 1
 400 200 l 1
 400 150 l 1025
150 100 m 1
 400 100 l 1
 400 150 l 1
 150 150 l 1
 150 100 l 1025
250 50 m 1
 450 50 l 1
 450 100 l 1
 250 100 l 1
 250 50 l 1025
350 0 m 1
 500 0 l 1
 500 50 l 1
 350 50 l 1
 350 0 l 1025
400 -50 m 1
 500 -50 l 1
 500 0 l 1
 400 0 l 1
 400 -50 l 1025
400 -100 m 1
 500 -100 l 1
 500 -50 l 1
 400 -50 l 1
 400 -100 l 1025
100 -150 m 1
 150 -150 l 1
 150 -100 l 1
 100 -100 l 1
 100 -150 l 1025
350 -150 m 1
 450 -150 l 1
 450 -100 l 1
 350 -100 l 1
 350 -150 l 1025
100 -200 m 1
 400 -200 l 1
 400 -150 l 1
 100 -150 l 1
 100 -200 l 1
EndSplineSet
EndChar

StartChar: dieresis
Encoding: 168 168 104
Width: 900
VWidth: 0
Flags: HW
LayerCount: 2
Back
Fore
SplineSet
150 650 m 1
 250 650 l 1
 250 700 l 1
 150 700 l 1
 150 650 l 1025
350 650 m 1
 450 650 l 1
 450 700 l 1
 350 700 l 1
 350 650 l 1
EndSplineSet
EndChar

StartChar: copyright
Encoding: 169 169 105
Width: 900
VWidth: 0
Flags: HW
LayerCount: 2
Back
Fore
SplineSet
150 650 m 1
 400 650 l 1
 400 700 l 1
 150 700 l 1
 150 650 l 1025
100 600 m 1
 150 600 l 1
 150 650 l 1
 100 650 l 1
 100 600 l 1025
400 600 m 1
 500 600 l 1
 500 650 l 1
 400 650 l 1
 400 600 l 1025
50 550 m 1
 100 550 l 1
 100 600 l 1
 50 600 l 1
 50 550 l 1025
450 550 m 1
 500 550 l 1
 500 600 l 1
 450 600 l 1
 450 550 l 1025
0 500 m 1
 50 500 l 1
 50 550 l 1
 0 550 l 1
 0 500 l 1025
200 500 m 1
 400 500 l 1
 400 550 l 1
 200 550 l 1
 200 500 l 1025
500 500 m 1
 550 500 l 1
 550 550 l 1
 500 550 l 1
 500 500 l 1025
0 450 m 1
 50 450 l 1
 50 500 l 1
 0 500 l 1
 0 450 l 1025
150 450 m 1
 200 450 l 1
 200 500 l 1
 150 500 l 1
 150 450 l 1025
350 450 m 1
 400 450 l 1
 400 500 l 1
 350 500 l 1
 350 450 l 1025
500 450 m 1
 550 450 l 1
 550 500 l 1
 500 500 l 1
 500 450 l 1025
0 400 m 1
 50 400 l 1
 50 450 l 1
 0 450 l 1
 0 400 l 1025
100 400 m 1
 150 400 l 1
 150 450 l 1
 100 450 l 1
 100 400 l 1025
500 400 m 1
 550 400 l 1
 550 450 l 1
 500 450 l 1
 500 400 l 1025
0 350 m 1
 50 350 l 1
 50 400 l 1
 0 400 l 1
 0 350 l 1025
100 350 m 1
 150 350 l 1
 150 400 l 1
 100 400 l 1
 100 350 l 1025
500 350 m 1
 550 350 l 1
 550 400 l 1
 500 400 l 1
 500 350 l 1025
0 300 m 1
 50 300 l 1
 50 350 l 1
 0 350 l 1
 0 300 l 1025
100 300 m 1
 150 300 l 1
 150 350 l 1
 100 350 l 1
 100 300 l 1025
500 300 m 1
 550 300 l 1
 550 350 l 1
 500 350 l 1
 500 300 l 1025
0 250 m 1
 50 250 l 1
 50 300 l 1
 0 300 l 1
 0 250 l 1025
100 250 m 1
 150 250 l 1
 150 300 l 1
 100 300 l 1
 100 250 l 1025
500 250 m 1
 550 250 l 1
 550 300 l 1
 500 300 l 1
 500 250 l 1025
0 200 m 1
 50 200 l 1
 50 250 l 1
 0 250 l 1
 0 200 l 1025
150 200 m 1
 200 200 l 1
 200 250 l 1
 150 250 l 1
 150 200 l 1025
350 200 m 1
 400 200 l 1
 400 250 l 1
 350 250 l 1
 350 200 l 1025
500 200 m 1
 550 200 l 1
 550 250 l 1
 500 250 l 1
 500 200 l 1025
0 150 m 1
 50 150 l 1
 50 200 l 1
 0 200 l 1
 0 150 l 1025
200 150 m 1
 400 150 l 1
 400 200 l 1
 200 200 l 1
 200 150 l 1025
500 150 m 1
 550 150 l 1
 550 200 l 1
 500 200 l 1
 500 150 l 1025
50 100 m 1
 100 100 l 1
 100 150 l 1
 50 150 l 1
 50 100 l 1025
450 100 m 1
 500 100 l 1
 500 150 l 1
 450 150 l 1
 450 100 l 1025
50 50 m 1
 150 50 l 1
 150 100 l 1
 50 100 l 1
 50 50 l 1025
400 50 m 1
 450 50 l 1
 450 100 l 1
 400 100 l 1
 400 50 l 1025
150 0 m 1
 400 0 l 1
 400 50 l 1
 150 50 l 1
 150 0 l 1
EndSplineSet
EndChar

StartChar: ordfeminine
Encoding: 170 170 106
Width: 900
VWidth: 0
Flags: HW
LayerCount: 2
Back
Fore
SplineSet
200 650 m 1
 400 650 l 1
 400 700 l 1
 200 700 l 1
 200 650 l 1025
150 600 m 1
 250 600 l 1
 250 650 l 1
 150 650 l 1
 150 600 l 1025
400 600 m 1
 450 600 l 1
 450 650 l 1
 400 650 l 1
 400 600 l 1025
400 550 m 1
 450 550 l 1
 450 600 l 1
 400 600 l 1
 400 550 l 1025
200 500 m 1
 450 500 l 1
 450 550 l 1
 200 550 l 1
 200 500 l 1025
150 450 m 1
 200 450 l 1
 200 500 l 1
 150 500 l 1
 150 450 l 1025
400 450 m 1
 450 450 l 1
 450 500 l 1
 400 500 l 1
 400 450 l 1025
150 400 m 1
 200 400 l 1
 200 450 l 1
 150 450 l 1
 150 400 l 1025
400 400 m 1
 450 400 l 1
 450 450 l 1
 400 450 l 1
 400 400 l 1025
200 350 m 1
 500 350 l 1
 500 400 l 1
 200 400 l 1
 200 350 l 1
EndSplineSet
EndChar

StartChar: guillemotleft
Encoding: 171 171 107
Width: 900
VWidth: 0
Flags: HW
LayerCount: 2
Back
Fore
SplineSet
250 450 m 1
 300 450 l 1
 300 500 l 1
 250 500 l 1
 250 450 l 1025
500 450 m 1
 550 450 l 1
 550 500 l 1
 500 500 l 1
 500 450 l 1025
200 400 m 1
 300 400 l 1
 300 450 l 1
 200 450 l 1
 200 400 l 1025
450 400 m 1
 500 400 l 1
 500 450 l 1
 450 450 l 1
 450 400 l 1025
150 350 m 1
 250 350 l 1
 250 400 l 1
 150 400 l 1
 150 350 l 1025
400 350 m 1
 450 350 l 1
 450 400 l 1
 400 400 l 1
 400 350 l 1025
100 300 m 1
 200 300 l 1
 200 350 l 1
 100 350 l 1
 100 300 l 1025
350 300 m 1
 400 300 l 1
 400 350 l 1
 350 350 l 1
 350 300 l 1025
50 250 m 1
 150 250 l 1
 150 300 l 1
 50 300 l 1
 50 250 l 1025
300 250 m 1
 350 250 l 1
 350 300 l 1
 300 300 l 1
 300 250 l 1025
100 200 m 1
 200 200 l 1
 200 250 l 1
 100 250 l 1
 100 200 l 1025
350 200 m 1
 400 200 l 1
 400 250 l 1
 350 250 l 1
 350 200 l 1025
150 150 m 1
 250 150 l 1
 250 200 l 1
 150 200 l 1
 150 150 l 1025
400 150 m 1
 450 150 l 1
 450 200 l 1
 400 200 l 1
 400 150 l 1025
200 100 m 1
 300 100 l 1
 300 150 l 1
 200 150 l 1
 200 100 l 1025
450 100 m 1
 500 100 l 1
 500 150 l 1
 450 150 l 1
 450 100 l 1025
250 50 m 1
 300 50 l 1
 300 100 l 1
 250 100 l 1
 250 50 l 1025
500 50 m 1
 550 50 l 1
 550 100 l 1
 500 100 l 1
 500 50 l 1
EndSplineSet
EndChar

StartChar: logicalnot
Encoding: 172 172 108
Width: 900
VWidth: 0
Flags: HW
LayerCount: 2
Back
Fore
SplineSet
50 350 m 1
 550 350 l 1
 550 400 l 1
 50 400 l 1
 50 350 l 1025
500 300 m 1
 550 300 l 1
 550 350 l 1
 500 350 l 1
 500 300 l 1025
500 250 m 1
 550 250 l 1
 550 300 l 1
 500 300 l 1
 500 250 l 1025
500 200 m 1
 550 200 l 1
 550 250 l 1
 500 250 l 1
 500 200 l 1025
500 150 m 1
 550 150 l 1
 550 200 l 1
 500 200 l 1
 500 150 l 1
EndSplineSet
EndChar

StartChar: hyphen
Encoding: 45 45 109
Width: 900
VWidth: 0
Flags: HW
LayerCount: 2
Back
Fore
SplineSet
100 300 m 1
 500 300 l 1
 500 350 l 1
 100 350 l 1
 100 300 l 1
EndSplineSet
EndChar

StartChar: registered
Encoding: 174 174 110
Width: 900
VWidth: 0
Flags: HW
LayerCount: 2
Back
Fore
SplineSet
250 650 m 1
 400 650 l 1
 400 700 l 1
 250 700 l 1
 250 650 l 1025
200 600 m 1
 250 600 l 1
 250 650 l 1
 200 650 l 1
 200 600 l 1025
400 600 m 1
 450 600 l 1
 450 650 l 1
 400 650 l 1
 400 600 l 1025
150 550 m 1
 200 550 l 1
 200 600 l 1
 150 600 l 1
 150 550 l 1025
250 550 m 1
 400 550 l 1
 400 600 l 1
 250 600 l 1
 250 550 l 1025
450 550 m 1
 500 550 l 1
 500 600 l 1
 450 600 l 1
 450 550 l 1025
150 500 m 1
 200 500 l 1
 200 550 l 1
 150 550 l 1
 150 500 l 1025
250 500 m 1
 400 500 l 1
 400 550 l 1
 250 550 l 1
 250 500 l 1025
450 500 m 1
 500 500 l 1
 500 550 l 1
 450 550 l 1
 450 500 l 1025
150 450 m 1
 200 450 l 1
 200 500 l 1
 150 500 l 1
 150 450 l 1025
250 450 m 1
 350 450 l 1
 350 500 l 1
 250 500 l 1
 250 450 l 1025
450 450 m 1
 500 450 l 1
 500 500 l 1
 450 500 l 1
 450 450 l 1025
150 400 m 1
 200 400 l 1
 200 450 l 1
 150 450 l 1
 150 400 l 1025
250 400 m 1
 300 400 l 1
 300 450 l 1
 250 450 l 1
 250 400 l 1025
350 400 m 1
 400 400 l 1
 400 450 l 1
 350 450 l 1
 350 400 l 1025
450 400 m 1
 500 400 l 1
 500 450 l 1
 450 450 l 1
 450 400 l 1025
200 350 m 1
 250 350 l 1
 250 400 l 1
 200 400 l 1
 200 350 l 1025
400 350 m 1
 450 350 l 1
 450 400 l 1
 400 400 l 1
 400 350 l 1025
250 300 m 1
 400 300 l 1
 400 350 l 1
 250 350 l 1
 250 300 l 1
EndSplineSet
EndChar

StartChar: macron
Encoding: 175 175 111
Width: 900
VWidth: 0
Flags: HW
LayerCount: 2
Back
Fore
SplineSet
150 650 m 1
 450 650 l 1
 450 700 l 1
 150 700 l 1
 150 650 l 1
EndSplineSet
EndChar

StartChar: degree
Encoding: 176 176 112
Width: 900
VWidth: 0
Flags: HW
LayerCount: 2
Back
Fore
SplineSet
200 650 m 1
 350 650 l 1
 350 700 l 1
 200 700 l 1
 200 650 l 1025
200 600 m 1
 250 600 l 1
 250 650 l 1
 200 650 l 1
 200 600 l 1025
300 600 m 1
 350 600 l 1
 350 650 l 1
 300 650 l 1
 300 600 l 1025
200 550 m 1
 350 550 l 1
 350 600 l 1
 200 600 l 1
 200 550 l 1
EndSplineSet
EndChar

StartChar: plusminus
Encoding: 177 177 113
Width: 900
VWidth: 0
Flags: HW
LayerCount: 2
Back
Fore
SplineSet
250 500 m 1
 300 500 l 1
 300 550 l 1
 250 550 l 1
 250 500 l 1025
250 450 m 1
 300 450 l 1
 300 500 l 1
 250 500 l 1
 250 450 l 1025
250 400 m 1
 300 400 l 1
 300 450 l 1
 250 450 l 1
 250 400 l 1025
250 350 m 1
 300 350 l 1
 300 400 l 1
 250 400 l 1
 250 350 l 1025
50 300 m 1
 500 300 l 1
 500 350 l 1
 50 350 l 1
 50 300 l 1025
250 250 m 1
 300 250 l 1
 300 300 l 1
 250 300 l 1
 250 250 l 1025
250 200 m 1
 300 200 l 1
 300 250 l 1
 250 250 l 1
 250 200 l 1025
250 150 m 1
 300 150 l 1
 300 200 l 1
 250 200 l 1
 250 150 l 1025
50 0 m 1
 500 0 l 1
 500 50 l 1
 50 50 l 1
 50 0 l 1
EndSplineSet
EndChar

StartChar: twosuperior
Encoding: 178 178 114
Width: 900
VWidth: 0
Flags: HW
LayerCount: 2
Back
Fore
SplineSet
-100 650 m 1
 50 650 l 1
 50 700 l 1
 -100 700 l 1
 -100 650 l 1025
-100 600 m 1
 -50 600 l 1
 -50 650 l 1
 -100 650 l 1
 -100 600 l 1025
50 600 m 1
 100 600 l 1
 100 650 l 1
 50 650 l 1
 50 600 l 1025
50 550 m 1
 100 550 l 1
 100 600 l 1
 50 600 l 1
 50 550 l 1025
0 500 m 1
 50 500 l 1
 50 550 l 1
 0 550 l 1
 0 500 l 1025
-50 450 m 1
 0 450 l 1
 0 500 l 1
 -50 500 l 1
 -50 450 l 1025
-100 400 m 1
 -50 400 l 1
 -50 450 l 1
 -100 450 l 1
 -100 400 l 1025
-100 350 m 1
 100 350 l 1
 100 400 l 1
 -100 400 l 1
 -100 350 l 1
EndSplineSet
EndChar

StartChar: threesuperior
Encoding: 179 179 115
Width: 900
VWidth: 0
Flags: HW
LayerCount: 2
Back
Fore
SplineSet
-100 650 m 1
 50 650 l 1
 50 700 l 1
 -100 700 l 1
 -100 650 l 1025
50 600 m 1
 100 600 l 1
 100 650 l 1
 50 650 l 1
 50 600 l 1025
50 550 m 1
 100 550 l 1
 100 600 l 1
 50 600 l 1
 50 550 l 1025
-50 500 m 1
 50 500 l 1
 50 550 l 1
 -50 550 l 1
 -50 500 l 1025
50 450 m 1
 100 450 l 1
 100 500 l 1
 50 500 l 1
 50 450 l 1025
50 400 m 1
 100 400 l 1
 100 450 l 1
 50 450 l 1
 50 400 l 1025
-100 350 m 1
 50 350 l 1
 50 400 l 1
 -100 400 l 1
 -100 350 l 1
EndSplineSet
EndChar

StartChar: acute
Encoding: 180 180 116
Width: 900
VWidth: 0
Flags: HW
LayerCount: 2
Back
Fore
SplineSet
300 650 m 1
 400 650 l 1
 400 700 l 1
 300 700 l 1
 300 650 l 1025
250 600 m 1
 350 600 l 1
 350 650 l 1
 250 650 l 1
 250 600 l 1025
200 550 m 1
 300 550 l 1
 300 600 l 1
 200 600 l 1
 200 550 l 1
EndSplineSet
EndChar

StartChar: mu
Encoding: 181 181 117
Width: 900
VWidth: 0
Flags: HW
LayerCount: 2
Back
Fore
SplineSet
50 500 m 1
 150 500 l 1
 150 550 l 1
 50 550 l 1
 50 500 l 1025
400 500 m 1
 500 500 l 1
 500 550 l 1
 400 550 l 1
 400 500 l 1025
50 450 m 1
 150 450 l 1
 150 500 l 1
 50 500 l 1
 50 450 l 1025
400 450 m 1
 500 450 l 1
 500 500 l 1
 400 500 l 1
 400 450 l 1025
50 400 m 1
 150 400 l 1
 150 450 l 1
 50 450 l 1
 50 400 l 1025
400 400 m 1
 500 400 l 1
 500 450 l 1
 400 450 l 1
 400 400 l 1025
50 350 m 1
 150 350 l 1
 150 400 l 1
 50 400 l 1
 50 350 l 1025
400 350 m 1
 500 350 l 1
 500 400 l 1
 400 400 l 1
 400 350 l 1025
50 300 m 1
 150 300 l 1
 150 350 l 1
 50 350 l 1
 50 300 l 1025
400 300 m 1
 500 300 l 1
 500 350 l 1
 400 350 l 1
 400 300 l 1025
50 250 m 1
 150 250 l 1
 150 300 l 1
 50 300 l 1
 50 250 l 1025
400 250 m 1
 500 250 l 1
 500 300 l 1
 400 300 l 1
 400 250 l 1025
50 200 m 1
 150 200 l 1
 150 250 l 1
 50 250 l 1
 50 200 l 1025
400 200 m 1
 500 200 l 1
 500 250 l 1
 400 250 l 1
 400 200 l 1025
50 150 m 1
 150 150 l 1
 150 200 l 1
 50 200 l 1
 50 150 l 1025
350 150 m 1
 500 150 l 1
 500 200 l 1
 350 200 l 1
 350 150 l 1025
50 100 m 1
 150 100 l 1
 150 150 l 1
 50 150 l 1
 50 100 l 1025
300 100 m 1
 500 100 l 1
 500 150 l 1
 300 150 l 1
 300 100 l 1025
50 50 m 1
 350 50 l 1
 350 100 l 1
 50 100 l 1
 50 50 l 1025
400 50 m 1
 500 50 l 1
 500 100 l 1
 400 100 l 1
 400 50 l 1025
50 0 m 1
 300 0 l 1
 300 50 l 1
 50 50 l 1
 50 0 l 1025
400 0 m 1
 500 0 l 1
 500 50 l 1
 400 50 l 1
 400 0 l 1025
50 -50 m 1
 150 -50 l 1
 150 0 l 1
 50 0 l 1
 50 -50 l 1025
50 -100 m 1
 150 -100 l 1
 150 -50 l 1
 50 -50 l 1
 50 -100 l 1025
50 -150 m 1
 150 -150 l 1
 150 -100 l 1
 50 -100 l 1
 50 -150 l 1
EndSplineSet
EndChar

StartChar: paragraph
Encoding: 182 182 118
Width: 900
VWidth: 0
Flags: HW
LayerCount: 2
Back
Fore
SplineSet
100 650 m 1
 450 650 l 1
 450 700 l 1
 100 700 l 1
 100 650 l 1025
50 600 m 1
 300 600 l 1
 300 650 l 1
 50 650 l 1
 50 600 l 1025
400 600 m 1
 450 600 l 1
 450 650 l 1
 400 650 l 1
 400 600 l 1025
50 550 m 1
 300 550 l 1
 300 600 l 1
 50 600 l 1
 50 550 l 1025
400 550 m 1
 450 550 l 1
 450 600 l 1
 400 600 l 1
 400 550 l 1025
50 500 m 1
 300 500 l 1
 300 550 l 1
 50 550 l 1
 50 500 l 1025
400 500 m 1
 450 500 l 1
 450 550 l 1
 400 550 l 1
 400 500 l 1025
50 450 m 1
 300 450 l 1
 300 500 l 1
 50 500 l 1
 50 450 l 1025
400 450 m 1
 450 450 l 1
 450 500 l 1
 400 500 l 1
 400 450 l 1025
100 400 m 1
 300 400 l 1
 300 450 l 1
 100 450 l 1
 100 400 l 1025
400 400 m 1
 450 400 l 1
 450 450 l 1
 400 450 l 1
 400 400 l 1025
150 350 m 1
 300 350 l 1
 300 400 l 1
 150 400 l 1
 150 350 l 1025
400 350 m 1
 450 350 l 1
 450 400 l 1
 400 400 l 1
 400 350 l 1025
250 300 m 1
 300 300 l 1
 300 350 l 1
 250 350 l 1
 250 300 l 1025
400 300 m 1
 450 300 l 1
 450 350 l 1
 400 350 l 1
 400 300 l 1025
250 250 m 1
 300 250 l 1
 300 300 l 1
 250 300 l 1
 250 250 l 1025
400 250 m 1
 450 250 l 1
 450 300 l 1
 400 300 l 1
 400 250 l 1025
250 200 m 1
 300 200 l 1
 300 250 l 1
 250 250 l 1
 250 200 l 1025
400 200 m 1
 450 200 l 1
 450 250 l 1
 400 250 l 1
 400 200 l 1025
250 150 m 1
 300 150 l 1
 300 200 l 1
 250 200 l 1
 250 150 l 1025
400 150 m 1
 450 150 l 1
 450 200 l 1
 400 200 l 1
 400 150 l 1025
250 100 m 1
 300 100 l 1
 300 150 l 1
 250 150 l 1
 250 100 l 1025
400 100 m 1
 450 100 l 1
 450 150 l 1
 400 150 l 1
 400 100 l 1025
250 50 m 1
 300 50 l 1
 300 100 l 1
 250 100 l 1
 250 50 l 1025
400 50 m 1
 450 50 l 1
 450 100 l 1
 400 100 l 1
 400 50 l 1025
250 0 m 1
 300 0 l 1
 300 50 l 1
 250 50 l 1
 250 0 l 1025
400 0 m 1
 450 0 l 1
 450 50 l 1
 400 50 l 1
 400 0 l 1025
250 -50 m 1
 300 -50 l 1
 300 0 l 1
 250 0 l 1
 250 -50 l 1025
400 -50 m 1
 450 -50 l 1
 450 0 l 1
 400 0 l 1
 400 -50 l 1025
250 -100 m 1
 300 -100 l 1
 300 -50 l 1
 250 -50 l 1
 250 -100 l 1025
400 -100 m 1
 450 -100 l 1
 450 -50 l 1
 400 -50 l 1
 400 -100 l 1025
250 -150 m 1
 300 -150 l 1
 300 -100 l 1
 250 -100 l 1
 250 -150 l 1025
400 -150 m 1
 450 -150 l 1
 450 -100 l 1
 400 -100 l 1
 400 -150 l 1
EndSplineSet
EndChar

StartChar: periodcentered
Encoding: 183 183 119
Width: 900
VWidth: 0
Flags: HW
LayerCount: 2
Back
Fore
SplineSet
250 300 m 1
 350 300 l 1
 350 350 l 1
 250 350 l 1
 250 300 l 1025
250 250 m 1
 350 250 l 1
 350 300 l 1
 250 300 l 1
 250 250 l 1
EndSplineSet
EndChar

StartChar: cedilla
Encoding: 184 184 120
Width: 900
VWidth: 0
Flags: HW
LayerCount: 2
Back
Fore
SplineSet
250 0 m 1
 350 0 l 1
 350 50 l 1
 250 50 l 1
 250 0 l 1025
300 -50 m 1
 350 -50 l 1
 350 0 l 1
 300 0 l 1
 300 -50 l 1025
350 -100 m 1
 400 -100 l 1
 400 -50 l 1
 350 -50 l 1
 350 -100 l 1025
350 -150 m 1
 400 -150 l 1
 400 -100 l 1
 350 -100 l 1
 350 -150 l 1025
250 -200 m 1
 400 -200 l 1
 400 -150 l 1
 250 -150 l 1
 250 -200 l 1
EndSplineSet
EndChar

StartChar: onesuperior
Encoding: 185 185 121
Width: 900
VWidth: 0
Flags: HW
LayerCount: 2
Back
Fore
SplineSet
-50 650 m 1
 100 650 l 1
 100 700 l 1
 -50 700 l 1
 -50 650 l 1025
-50 600 m 1
 0 600 l 1
 0 650 l 1
 -50 650 l 1
 -50 600 l 1025
50 600 m 1
 100 600 l 1
 100 650 l 1
 50 650 l 1
 50 600 l 1025
50 550 m 1
 100 550 l 1
 100 600 l 1
 50 600 l 1
 50 550 l 1025
50 500 m 1
 100 500 l 1
 100 550 l 1
 50 550 l 1
 50 500 l 1025
50 450 m 1
 100 450 l 1
 100 500 l 1
 50 500 l 1
 50 450 l 1025
50 400 m 1
 100 400 l 1
 100 450 l 1
 50 450 l 1
 50 400 l 1025
-50 350 m 1
 200 350 l 1
 200 400 l 1
 -50 400 l 1
 -50 350 l 1
EndSplineSet
EndChar

StartChar: ordmasculine
Encoding: 186 186 122
Width: 900
VWidth: 0
Flags: HW
LayerCount: 2
Back
Fore
SplineSet
200 650 m 1
 400 650 l 1
 400 700 l 1
 200 700 l 1
 200 650 l 1025
150 600 m 1
 250 600 l 1
 250 650 l 1
 150 650 l 1
 150 600 l 1025
350 600 m 1
 450 600 l 1
 450 650 l 1
 350 650 l 1
 350 600 l 1025
100 550 m 1
 200 550 l 1
 200 600 l 1
 100 600 l 1
 100 550 l 1025
400 550 m 1
 500 550 l 1
 500 600 l 1
 400 600 l 1
 400 550 l 1025
100 500 m 1
 200 500 l 1
 200 550 l 1
 100 550 l 1
 100 500 l 1025
400 500 m 1
 500 500 l 1
 500 550 l 1
 400 550 l 1
 400 500 l 1025
100 450 m 1
 200 450 l 1
 200 500 l 1
 100 500 l 1
 100 450 l 1025
400 450 m 1
 500 450 l 1
 500 500 l 1
 400 500 l 1
 400 450 l 1025
150 400 m 1
 250 400 l 1
 250 450 l 1
 150 450 l 1
 150 400 l 1025
350 400 m 1
 450 400 l 1
 450 450 l 1
 350 450 l 1
 350 400 l 1025
200 350 m 1
 400 350 l 1
 400 400 l 1
 200 400 l 1
 200 350 l 1
EndSplineSet
EndChar

StartChar: guillemotright
Encoding: 187 187 123
Width: 900
VWidth: 0
Flags: HW
LayerCount: 2
Back
Fore
SplineSet
50 450 m 1
 100 450 l 1
 100 500 l 1
 50 500 l 1
 50 450 l 1025
300 450 m 1
 350 450 l 1
 350 500 l 1
 300 500 l 1
 300 450 l 1025
100 400 m 1
 150 400 l 1
 150 450 l 1
 100 450 l 1
 100 400 l 1025
300 400 m 1
 400 400 l 1
 400 450 l 1
 300 450 l 1
 300 400 l 1025
150 350 m 1
 200 350 l 1
 200 400 l 1
 150 400 l 1
 150 350 l 1025
350 350 m 1
 450 350 l 1
 450 400 l 1
 350 400 l 1
 350 350 l 1025
200 300 m 1
 250 300 l 1
 250 350 l 1
 200 350 l 1
 200 300 l 1025
400 300 m 1
 500 300 l 1
 500 350 l 1
 400 350 l 1
 400 300 l 1025
250 250 m 1
 300 250 l 1
 300 300 l 1
 250 300 l 1
 250 250 l 1025
450 250 m 1
 550 250 l 1
 550 300 l 1
 450 300 l 1
 450 250 l 1025
200 200 m 1
 250 200 l 1
 250 250 l 1
 200 250 l 1
 200 200 l 1025
400 200 m 1
 500 200 l 1
 500 250 l 1
 400 250 l 1
 400 200 l 1025
150 150 m 1
 200 150 l 1
 200 200 l 1
 150 200 l 1
 150 150 l 1025
350 150 m 1
 450 150 l 1
 450 200 l 1
 350 200 l 1
 350 150 l 1025
100 100 m 1
 150 100 l 1
 150 150 l 1
 100 150 l 1
 100 100 l 1025
300 100 m 1
 400 100 l 1
 400 150 l 1
 300 150 l 1
 300 100 l 1025
50 50 m 1
 100 50 l 1
 100 100 l 1
 50 100 l 1
 50 50 l 1025
300 50 m 1
 350 50 l 1
 350 100 l 1
 300 100 l 1
 300 50 l 1
EndSplineSet
EndChar

StartChar: onequarter
Encoding: 188 188 124
Width: 900
VWidth: 0
Flags: HW
LayerCount: 2
Back
Fore
SplineSet
100 650 m 1
 250 650 l 1
 250 700 l 1
 100 700 l 1
 100 650 l 1025
600 650 m 1
 700 650 l 1
 700 700 l 1
 600 700 l 1
 600 650 l 1025
100 600 m 1
 150 600 l 1
 150 650 l 1
 100 650 l 1
 100 600 l 1025
200 600 m 1
 250 600 l 1
 250 650 l 1
 200 650 l 1
 200 600 l 1025
550 600 m 1
 650 600 l 1
 650 650 l 1
 550 650 l 1
 550 600 l 1025
200 550 m 1
 250 550 l 1
 250 600 l 1
 200 600 l 1
 200 550 l 1025
550 550 m 1
 600 550 l 1
 600 600 l 1
 550 600 l 1
 550 550 l 1025
200 500 m 1
 250 500 l 1
 250 550 l 1
 200 550 l 1
 200 500 l 1025
500 500 m 1
 550 500 l 1
 550 550 l 1
 500 550 l 1
 500 500 l 1025
200 450 m 1
 250 450 l 1
 250 500 l 1
 200 500 l 1
 200 450 l 1025
450 450 m 1
 500 450 l 1
 500 500 l 1
 450 500 l 1
 450 450 l 1025
200 400 m 1
 250 400 l 1
 250 450 l 1
 200 450 l 1
 200 400 l 1025
400 400 m 1
 500 400 l 1
 500 450 l 1
 400 450 l 1
 400 400 l 1025
100 350 m 1
 350 350 l 1
 350 400 l 1
 100 400 l 1
 100 350 l 1025
400 350 m 1
 450 350 l 1
 450 400 l 1
 400 400 l 1
 400 350 l 1025
350 300 m 1
 400 300 l 1
 400 350 l 1
 350 350 l 1
 350 300 l 1025
550 300 m 1
 650 300 l 1
 650 350 l 1
 550 350 l 1
 550 300 l 1025
300 250 m 1
 350 250 l 1
 350 300 l 1
 300 300 l 1
 300 250 l 1025
550 250 m 1
 650 250 l 1
 650 300 l 1
 550 300 l 1
 550 250 l 1025
300 200 m 1
 350 200 l 1
 350 250 l 1
 300 250 l 1
 300 200 l 1025
500 200 m 1
 550 200 l 1
 550 250 l 1
 500 250 l 1
 500 200 l 1025
600 200 m 1
 650 200 l 1
 650 250 l 1
 600 250 l 1
 600 200 l 1025
250 150 m 1
 300 150 l 1
 300 200 l 1
 250 200 l 1
 250 150 l 1025
450 150 m 1
 500 150 l 1
 500 200 l 1
 450 200 l 1
 450 150 l 1025
600 150 m 1
 650 150 l 1
 650 200 l 1
 600 200 l 1
 600 150 l 1025
200 100 m 1
 250 100 l 1
 250 150 l 1
 200 150 l 1
 200 100 l 1025
450 100 m 1
 700 100 l 1
 700 150 l 1
 450 150 l 1
 450 100 l 1025
150 50 m 1
 250 50 l 1
 250 100 l 1
 150 100 l 1
 150 50 l 1025
600 50 m 1
 650 50 l 1
 650 100 l 1
 600 100 l 1
 600 50 l 1025
100 0 m 1
 200 0 l 1
 200 50 l 1
 100 50 l 1
 100 0 l 1025
600 0 m 1
 650 0 l 1
 650 50 l 1
 600 50 l 1
 600 0 l 1
EndSplineSet
EndChar

StartChar: onehalf
Encoding: 189 189 125
Width: 900
VWidth: 0
Flags: HW
LayerCount: 2
Back
Fore
SplineSet
100 650 m 1
 250 650 l 1
 250 700 l 1
 100 700 l 1
 100 650 l 1025
600 650 m 1
 700 650 l 1
 700 700 l 1
 600 700 l 1
 600 650 l 1025
100 600 m 1
 150 600 l 1
 150 650 l 1
 100 650 l 1
 100 600 l 1025
200 600 m 1
 250 600 l 1
 250 650 l 1
 200 650 l 1
 200 600 l 1025
550 600 m 1
 650 600 l 1
 650 650 l 1
 550 650 l 1
 550 600 l 1025
200 550 m 1
 250 550 l 1
 250 600 l 1
 200 600 l 1
 200 550 l 1025
550 550 m 1
 600 550 l 1
 600 600 l 1
 550 600 l 1
 550 550 l 1025
200 500 m 1
 250 500 l 1
 250 550 l 1
 200 550 l 1
 200 500 l 1025
500 500 m 1
 550 500 l 1
 550 550 l 1
 500 550 l 1
 500 500 l 1025
200 450 m 1
 250 450 l 1
 250 500 l 1
 200 500 l 1
 200 450 l 1025
450 450 m 1
 500 450 l 1
 500 500 l 1
 450 500 l 1
 450 450 l 1025
200 400 m 1
 250 400 l 1
 250 450 l 1
 200 450 l 1
 200 400 l 1025
400 400 m 1
 500 400 l 1
 500 450 l 1
 400 450 l 1
 400 400 l 1025
100 350 m 1
 350 350 l 1
 350 400 l 1
 100 400 l 1
 100 350 l 1025
400 350 m 1
 450 350 l 1
 450 400 l 1
 400 400 l 1
 400 350 l 1025
350 300 m 1
 400 300 l 1
 400 350 l 1
 350 350 l 1
 350 300 l 1025
500 300 m 1
 650 300 l 1
 650 350 l 1
 500 350 l 1
 500 300 l 1025
300 250 m 1
 350 250 l 1
 350 300 l 1
 300 300 l 1
 300 250 l 1025
500 250 m 1
 550 250 l 1
 550 300 l 1
 500 300 l 1
 500 250 l 1025
650 250 m 1
 700 250 l 1
 700 300 l 1
 650 300 l 1
 650 250 l 1025
300 200 m 1
 350 200 l 1
 350 250 l 1
 300 250 l 1
 300 200 l 1025
650 200 m 1
 700 200 l 1
 700 250 l 1
 650 250 l 1
 650 200 l 1025
250 150 m 1
 300 150 l 1
 300 200 l 1
 250 200 l 1
 250 150 l 1025
600 150 m 1
 650 150 l 1
 650 200 l 1
 600 200 l 1
 600 150 l 1025
200 100 m 1
 250 100 l 1
 250 150 l 1
 200 150 l 1
 200 100 l 1025
550 100 m 1
 600 100 l 1
 600 150 l 1
 550 150 l 1
 550 100 l 1025
150 50 m 1
 250 50 l 1
 250 100 l 1
 150 100 l 1
 150 50 l 1025
500 50 m 1
 550 50 l 1
 550 100 l 1
 500 100 l 1
 500 50 l 1025
100 0 m 1
 200 0 l 1
 200 50 l 1
 100 50 l 1
 100 0 l 1025
500 0 m 1
 700 0 l 1
 700 50 l 1
 500 50 l 1
 500 0 l 1
EndSplineSet
EndChar

StartChar: threequarters
Encoding: 190 190 126
Width: 900
VWidth: 0
Flags: HW
LayerCount: 2
Back
Fore
SplineSet
100 650 m 1
 250 650 l 1
 250 700 l 1
 100 700 l 1
 100 650 l 1025
600 650 m 1
 700 650 l 1
 700 700 l 1
 600 700 l 1
 600 650 l 1025
250 600 m 1
 300 600 l 1
 300 650 l 1
 250 650 l 1
 250 600 l 1025
550 600 m 1
 650 600 l 1
 650 650 l 1
 550 650 l 1
 550 600 l 1025
250 550 m 1
 300 550 l 1
 300 600 l 1
 250 600 l 1
 250 550 l 1025
550 550 m 1
 600 550 l 1
 600 600 l 1
 550 600 l 1
 550 550 l 1025
150 500 m 1
 250 500 l 1
 250 550 l 1
 150 550 l 1
 150 500 l 1025
500 500 m 1
 550 500 l 1
 550 550 l 1
 500 550 l 1
 500 500 l 1025
250 450 m 1
 300 450 l 1
 300 500 l 1
 250 500 l 1
 250 450 l 1025
450 450 m 1
 500 450 l 1
 500 500 l 1
 450 500 l 1
 450 450 l 1025
250 400 m 1
 300 400 l 1
 300 450 l 1
 250 450 l 1
 250 400 l 1025
400 400 m 1
 500 400 l 1
 500 450 l 1
 400 450 l 1
 400 400 l 1025
100 350 m 1
 250 350 l 1
 250 400 l 1
 100 400 l 1
 100 350 l 1025
400 350 m 1
 450 350 l 1
 450 400 l 1
 400 400 l 1
 400 350 l 1025
350 300 m 1
 400 300 l 1
 400 350 l 1
 350 350 l 1
 350 300 l 1025
550 300 m 1
 650 300 l 1
 650 350 l 1
 550 350 l 1
 550 300 l 1025
300 250 m 1
 350 250 l 1
 350 300 l 1
 300 300 l 1
 300 250 l 1025
550 250 m 1
 650 250 l 1
 650 300 l 1
 550 300 l 1
 550 250 l 1025
300 200 m 1
 350 200 l 1
 350 250 l 1
 300 250 l 1
 300 200 l 1025
500 200 m 1
 550 200 l 1
 550 250 l 1
 500 250 l 1
 500 200 l 1025
600 200 m 1
 650 200 l 1
 650 250 l 1
 600 250 l 1
 600 200 l 1025
250 150 m 1
 300 150 l 1
 300 200 l 1
 250 200 l 1
 250 150 l 1025
450 150 m 1
 500 150 l 1
 500 200 l 1
 450 200 l 1
 450 150 l 1025
600 150 m 1
 650 150 l 1
 650 200 l 1
 600 200 l 1
 600 150 l 1025
200 100 m 1
 250 100 l 1
 250 150 l 1
 200 150 l 1
 200 100 l 1025
450 100 m 1
 700 100 l 1
 700 150 l 1
 450 150 l 1
 450 100 l 1025
150 50 m 1
 250 50 l 1
 250 100 l 1
 150 100 l 1
 150 50 l 1025
600 50 m 1
 650 50 l 1
 650 100 l 1
 600 100 l 1
 600 50 l 1025
100 0 m 1
 200 0 l 1
 200 50 l 1
 100 50 l 1
 100 0 l 1025
600 0 m 1
 650 0 l 1
 650 50 l 1
 600 50 l 1
 600 0 l 1
EndSplineSet
EndChar

StartChar: questiondown
Encoding: 191 191 127
Width: 900
VWidth: 0
Flags: HW
LayerCount: 2
Back
Fore
SplineSet
250 500 m 1
 350 500 l 1
 350 550 l 1
 250 550 l 1
 250 500 l 1025
250 450 m 1
 350 450 l 1
 350 500 l 1
 250 500 l 1
 250 450 l 1025
250 300 m 1
 350 300 l 1
 350 350 l 1
 250 350 l 1
 250 300 l 1025
250 250 m 1
 350 250 l 1
 350 300 l 1
 250 300 l 1
 250 250 l 1025
250 200 m 1
 350 200 l 1
 350 250 l 1
 250 250 l 1
 250 200 l 1025
200 150 m 1
 300 150 l 1
 300 200 l 1
 200 200 l 1
 200 150 l 1025
150 100 m 1
 250 100 l 1
 250 150 l 1
 150 150 l 1
 150 100 l 1025
100 50 m 1
 200 50 l 1
 200 100 l 1
 100 100 l 1
 100 50 l 1025
50 0 m 1
 150 0 l 1
 150 50 l 1
 50 50 l 1
 50 0 l 1025
50 -50 m 1
 150 -50 l 1
 150 0 l 1
 50 0 l 1
 50 -50 l 1025
50 -100 m 1
 150 -100 l 1
 150 -50 l 1
 50 -50 l 1
 50 -100 l 1025
450 -100 m 1
 500 -100 l 1
 500 -50 l 1
 450 -50 l 1
 450 -100 l 1025
100 -150 m 1
 200 -150 l 1
 200 -100 l 1
 100 -100 l 1
 100 -150 l 1025
450 -150 m 1
 500 -150 l 1
 500 -100 l 1
 450 -100 l 1
 450 -150 l 1025
150 -200 m 1
 500 -200 l 1
 500 -150 l 1
 150 -150 l 1
 150 -200 l 1
EndSplineSet
EndChar

StartChar: Agrave
Encoding: 192 192 128
Width: 900
VWidth: 0
Flags: HW
LayerCount: 2
Back
Fore
SplineSet
200 850 m 1
 300 850 l 1
 300 900 l 1
 200 900 l 1
 200 850 l 1025
250 800 m 1
 350 800 l 1
 350 850 l 1
 250 850 l 1
 250 800 l 1025
300 750 m 1
 400 750 l 1
 400 800 l 1
 300 800 l 1
 300 750 l 1025
250 650 m 1
 350 650 l 1
 350 700 l 1
 250 700 l 1
 250 650 l 1025
250 600 m 1
 400 600 l 1
 400 650 l 1
 250 650 l 1
 250 600 l 1025
200 550 m 1
 250 550 l 1
 250 600 l 1
 200 600 l 1
 200 550 l 1025
300 550 m 1
 400 550 l 1
 400 600 l 1
 300 600 l 1
 300 550 l 1025
200 500 m 1
 250 500 l 1
 250 550 l 1
 200 550 l 1
 200 500 l 1025
300 500 m 1
 400 500 l 1
 400 550 l 1
 300 550 l 1
 300 500 l 1025
200 450 m 1
 250 450 l 1
 250 500 l 1
 200 500 l 1
 200 450 l 1025
350 450 m 1
 450 450 l 1
 450 500 l 1
 350 500 l 1
 350 450 l 1025
150 400 m 1
 200 400 l 1
 200 450 l 1
 150 450 l 1
 150 400 l 1025
350 400 m 1
 450 400 l 1
 450 450 l 1
 350 450 l 1
 350 400 l 1025
150 350 m 1
 200 350 l 1
 200 400 l 1
 150 400 l 1
 150 350 l 1025
350 350 m 1
 450 350 l 1
 450 400 l 1
 350 400 l 1
 350 350 l 1025
150 300 m 1
 200 300 l 1
 200 350 l 1
 150 350 l 1
 150 300 l 1025
400 300 m 1
 500 300 l 1
 500 350 l 1
 400 350 l 1
 400 300 l 1025
100 250 m 1
 150 250 l 1
 150 300 l 1
 100 300 l 1
 100 250 l 1025
400 250 m 1
 500 250 l 1
 500 300 l 1
 400 300 l 1
 400 250 l 1025
100 200 m 1
 500 200 l 1
 500 250 l 1
 100 250 l 1
 100 200 l 1025
100 150 m 1
 150 150 l 1
 150 200 l 1
 100 200 l 1
 100 150 l 1025
450 150 m 1
 550 150 l 1
 550 200 l 1
 450 200 l 1
 450 150 l 1025
50 100 m 1
 100 100 l 1
 100 150 l 1
 50 150 l 1
 50 100 l 1025
450 100 m 1
 550 100 l 1
 550 150 l 1
 450 150 l 1
 450 100 l 1025
50 50 m 1
 100 50 l 1
 100 100 l 1
 50 100 l 1
 50 50 l 1025
450 50 m 1
 600 50 l 1
 600 100 l 1
 450 100 l 1
 450 50 l 1025
0 0 m 1
 100 0 l 1
 100 50 l 1
 0 50 l 1
 0 0 l 1025
500 0 m 1
 600 0 l 1
 600 50 l 1
 500 50 l 1
 500 0 l 1
EndSplineSet
EndChar

StartChar: Aacute
Encoding: 193 193 129
Width: 900
VWidth: 0
Flags: HW
LayerCount: 2
Back
Fore
SplineSet
300 850 m 1
 400 850 l 1
 400 900 l 1
 300 900 l 1
 300 850 l 1025
250 800 m 1
 350 800 l 1
 350 850 l 1
 250 850 l 1
 250 800 l 1025
200 750 m 1
 300 750 l 1
 300 800 l 1
 200 800 l 1
 200 750 l 1025
250 650 m 1
 350 650 l 1
 350 700 l 1
 250 700 l 1
 250 650 l 1025
250 600 m 1
 400 600 l 1
 400 650 l 1
 250 650 l 1
 250 600 l 1025
200 550 m 1
 250 550 l 1
 250 600 l 1
 200 600 l 1
 200 550 l 1025
300 550 m 1
 400 550 l 1
 400 600 l 1
 300 600 l 1
 300 550 l 1025
200 500 m 1
 250 500 l 1
 250 550 l 1
 200 550 l 1
 200 500 l 1025
300 500 m 1
 400 500 l 1
 400 550 l 1
 300 550 l 1
 300 500 l 1025
200 450 m 1
 250 450 l 1
 250 500 l 1
 200 500 l 1
 200 450 l 1025
350 450 m 1
 450 450 l 1
 450 500 l 1
 350 500 l 1
 350 450 l 1025
150 400 m 1
 200 400 l 1
 200 450 l 1
 150 450 l 1
 150 400 l 1025
350 400 m 1
 450 400 l 1
 450 450 l 1
 350 450 l 1
 350 400 l 1025
150 350 m 1
 200 350 l 1
 200 400 l 1
 150 400 l 1
 150 350 l 1025
350 350 m 1
 450 350 l 1
 450 400 l 1
 350 400 l 1
 350 350 l 1025
150 300 m 1
 200 300 l 1
 200 350 l 1
 150 350 l 1
 150 300 l 1025
400 300 m 1
 500 300 l 1
 500 350 l 1
 400 350 l 1
 400 300 l 1025
100 250 m 1
 150 250 l 1
 150 300 l 1
 100 300 l 1
 100 250 l 1025
400 250 m 1
 500 250 l 1
 500 300 l 1
 400 300 l 1
 400 250 l 1025
100 200 m 1
 500 200 l 1
 500 250 l 1
 100 250 l 1
 100 200 l 1025
100 150 m 1
 150 150 l 1
 150 200 l 1
 100 200 l 1
 100 150 l 1025
450 150 m 1
 550 150 l 1
 550 200 l 1
 450 200 l 1
 450 150 l 1025
50 100 m 1
 100 100 l 1
 100 150 l 1
 50 150 l 1
 50 100 l 1025
450 100 m 1
 550 100 l 1
 550 150 l 1
 450 150 l 1
 450 100 l 1025
50 50 m 1
 100 50 l 1
 100 100 l 1
 50 100 l 1
 50 50 l 1025
450 50 m 1
 600 50 l 1
 600 100 l 1
 450 100 l 1
 450 50 l 1025
0 0 m 1
 100 0 l 1
 100 50 l 1
 0 50 l 1
 0 0 l 1025
500 0 m 1
 600 0 l 1
 600 50 l 1
 500 50 l 1
 500 0 l 1
EndSplineSet
EndChar

StartChar: Acircumflex
Encoding: 194 194 130
Width: 900
VWidth: 0
Flags: HW
LayerCount: 2
Back
Fore
SplineSet
250 850 m 1
 400 850 l 1
 400 900 l 1
 250 900 l 1
 250 850 l 1025
200 800 m 1
 300 800 l 1
 300 850 l 1
 200 850 l 1
 200 800 l 1025
350 800 m 1
 450 800 l 1
 450 850 l 1
 350 850 l 1
 350 800 l 1025
150 750 m 1
 250 750 l 1
 250 800 l 1
 150 800 l 1
 150 750 l 1025
400 750 m 1
 500 750 l 1
 500 800 l 1
 400 800 l 1
 400 750 l 1025
250 650 m 1
 350 650 l 1
 350 700 l 1
 250 700 l 1
 250 650 l 1025
250 600 m 1
 400 600 l 1
 400 650 l 1
 250 650 l 1
 250 600 l 1025
200 550 m 1
 250 550 l 1
 250 600 l 1
 200 600 l 1
 200 550 l 1025
300 550 m 1
 400 550 l 1
 400 600 l 1
 300 600 l 1
 300 550 l 1025
200 500 m 1
 250 500 l 1
 250 550 l 1
 200 550 l 1
 200 500 l 1025
300 500 m 1
 400 500 l 1
 400 550 l 1
 300 550 l 1
 300 500 l 1025
200 450 m 1
 250 450 l 1
 250 500 l 1
 200 500 l 1
 200 450 l 1025
350 450 m 1
 450 450 l 1
 450 500 l 1
 350 500 l 1
 350 450 l 1025
150 400 m 1
 200 400 l 1
 200 450 l 1
 150 450 l 1
 150 400 l 1025
350 400 m 1
 450 400 l 1
 450 450 l 1
 350 450 l 1
 350 400 l 1025
150 350 m 1
 200 350 l 1
 200 400 l 1
 150 400 l 1
 150 350 l 1025
350 350 m 1
 450 350 l 1
 450 400 l 1
 350 400 l 1
 350 350 l 1025
150 300 m 1
 200 300 l 1
 200 350 l 1
 150 350 l 1
 150 300 l 1025
400 300 m 1
 500 300 l 1
 500 350 l 1
 400 350 l 1
 400 300 l 1025
100 250 m 1
 150 250 l 1
 150 300 l 1
 100 300 l 1
 100 250 l 1025
400 250 m 1
 500 250 l 1
 500 300 l 1
 400 300 l 1
 400 250 l 1025
100 200 m 1
 500 200 l 1
 500 250 l 1
 100 250 l 1
 100 200 l 1025
100 150 m 1
 150 150 l 1
 150 200 l 1
 100 200 l 1
 100 150 l 1025
450 150 m 1
 550 150 l 1
 550 200 l 1
 450 200 l 1
 450 150 l 1025
50 100 m 1
 100 100 l 1
 100 150 l 1
 50 150 l 1
 50 100 l 1025
450 100 m 1
 550 100 l 1
 550 150 l 1
 450 150 l 1
 450 100 l 1025
50 50 m 1
 100 50 l 1
 100 100 l 1
 50 100 l 1
 50 50 l 1025
450 50 m 1
 600 50 l 1
 600 100 l 1
 450 100 l 1
 450 50 l 1025
0 0 m 1
 100 0 l 1
 100 50 l 1
 0 50 l 1
 0 0 l 1025
500 0 m 1
 600 0 l 1
 600 50 l 1
 500 50 l 1
 500 0 l 1
EndSplineSet
EndChar

StartChar: Atilde
Encoding: 195 195 131
Width: 900
VWidth: 0
Flags: HW
LayerCount: 2
Back
Fore
SplineSet
150 800 m 1
 350 800 l 1
 350 850 l 1
 150 850 l 1
 150 800 l 1025
400 800 m 1
 500 800 l 1
 500 850 l 1
 400 850 l 1
 400 800 l 1025
150 750 m 1
 250 750 l 1
 250 800 l 1
 150 800 l 1
 150 750 l 1025
300 750 m 1
 500 750 l 1
 500 800 l 1
 300 800 l 1
 300 750 l 1025
250 650 m 1
 350 650 l 1
 350 700 l 1
 250 700 l 1
 250 650 l 1025
250 600 m 1
 400 600 l 1
 400 650 l 1
 250 650 l 1
 250 600 l 1025
200 550 m 1
 250 550 l 1
 250 600 l 1
 200 600 l 1
 200 550 l 1025
300 550 m 1
 400 550 l 1
 400 600 l 1
 300 600 l 1
 300 550 l 1025
200 500 m 1
 250 500 l 1
 250 550 l 1
 200 550 l 1
 200 500 l 1025
300 500 m 1
 400 500 l 1
 400 550 l 1
 300 550 l 1
 300 500 l 1025
200 450 m 1
 250 450 l 1
 250 500 l 1
 200 500 l 1
 200 450 l 1025
350 450 m 1
 450 450 l 1
 450 500 l 1
 350 500 l 1
 350 450 l 1025
150 400 m 1
 200 400 l 1
 200 450 l 1
 150 450 l 1
 150 400 l 1025
350 400 m 1
 450 400 l 1
 450 450 l 1
 350 450 l 1
 350 400 l 1025
150 350 m 1
 200 350 l 1
 200 400 l 1
 150 400 l 1
 150 350 l 1025
350 350 m 1
 450 350 l 1
 450 400 l 1
 350 400 l 1
 350 350 l 1025
150 300 m 1
 200 300 l 1
 200 350 l 1
 150 350 l 1
 150 300 l 1025
400 300 m 1
 500 300 l 1
 500 350 l 1
 400 350 l 1
 400 300 l 1025
100 250 m 1
 150 250 l 1
 150 300 l 1
 100 300 l 1
 100 250 l 1025
400 250 m 1
 500 250 l 1
 500 300 l 1
 400 300 l 1
 400 250 l 1025
100 200 m 1
 500 200 l 1
 500 250 l 1
 100 250 l 1
 100 200 l 1025
100 150 m 1
 150 150 l 1
 150 200 l 1
 100 200 l 1
 100 150 l 1025
450 150 m 1
 550 150 l 1
 550 200 l 1
 450 200 l 1
 450 150 l 1025
50 100 m 1
 100 100 l 1
 100 150 l 1
 50 150 l 1
 50 100 l 1025
450 100 m 1
 550 100 l 1
 550 150 l 1
 450 150 l 1
 450 100 l 1025
50 50 m 1
 100 50 l 1
 100 100 l 1
 50 100 l 1
 50 50 l 1025
450 50 m 1
 600 50 l 1
 600 100 l 1
 450 100 l 1
 450 50 l 1025
0 0 m 1
 100 0 l 1
 100 50 l 1
 0 50 l 1
 0 0 l 1025
500 0 m 1
 600 0 l 1
 600 50 l 1
 500 50 l 1
 500 0 l 1
EndSplineSet
EndChar

StartChar: Adieresis
Encoding: 196 196 132
Width: 900
VWidth: 0
Flags: HW
LayerCount: 2
Back
Fore
SplineSet
150 750 m 1
 250 750 l 1
 250 800 l 1
 150 800 l 1
 150 750 l 1025
350 750 m 1
 450 750 l 1
 450 800 l 1
 350 800 l 1
 350 750 l 1025
250 650 m 1
 350 650 l 1
 350 700 l 1
 250 700 l 1
 250 650 l 1025
250 600 m 1
 400 600 l 1
 400 650 l 1
 250 650 l 1
 250 600 l 1025
200 550 m 1
 250 550 l 1
 250 600 l 1
 200 600 l 1
 200 550 l 1025
300 550 m 1
 400 550 l 1
 400 600 l 1
 300 600 l 1
 300 550 l 1025
200 500 m 1
 250 500 l 1
 250 550 l 1
 200 550 l 1
 200 500 l 1025
300 500 m 1
 400 500 l 1
 400 550 l 1
 300 550 l 1
 300 500 l 1025
200 450 m 1
 250 450 l 1
 250 500 l 1
 200 500 l 1
 200 450 l 1025
350 450 m 1
 450 450 l 1
 450 500 l 1
 350 500 l 1
 350 450 l 1025
150 400 m 1
 200 400 l 1
 200 450 l 1
 150 450 l 1
 150 400 l 1025
350 400 m 1
 450 400 l 1
 450 450 l 1
 350 450 l 1
 350 400 l 1025
150 350 m 1
 200 350 l 1
 200 400 l 1
 150 400 l 1
 150 350 l 1025
350 350 m 1
 450 350 l 1
 450 400 l 1
 350 400 l 1
 350 350 l 1025
150 300 m 1
 200 300 l 1
 200 350 l 1
 150 350 l 1
 150 300 l 1025
400 300 m 1
 500 300 l 1
 500 350 l 1
 400 350 l 1
 400 300 l 1025
100 250 m 1
 150 250 l 1
 150 300 l 1
 100 300 l 1
 100 250 l 1025
400 250 m 1
 500 250 l 1
 500 300 l 1
 400 300 l 1
 400 250 l 1025
100 200 m 1
 500 200 l 1
 500 250 l 1
 100 250 l 1
 100 200 l 1025
100 150 m 1
 150 150 l 1
 150 200 l 1
 100 200 l 1
 100 150 l 1025
450 150 m 1
 550 150 l 1
 550 200 l 1
 450 200 l 1
 450 150 l 1025
50 100 m 1
 100 100 l 1
 100 150 l 1
 50 150 l 1
 50 100 l 1025
450 100 m 1
 550 100 l 1
 550 150 l 1
 450 150 l 1
 450 100 l 1025
50 50 m 1
 100 50 l 1
 100 100 l 1
 50 100 l 1
 50 50 l 1025
450 50 m 1
 600 50 l 1
 600 100 l 1
 450 100 l 1
 450 50 l 1025
0 0 m 1
 100 0 l 1
 100 50 l 1
 0 50 l 1
 0 0 l 1025
500 0 m 1
 600 0 l 1
 600 50 l 1
 500 50 l 1
 500 0 l 1
EndSplineSet
EndChar

StartChar: Aring
Encoding: 197 197 133
Width: 900
VWidth: 0
Flags: HW
LayerCount: 2
Back
Fore
SplineSet
200 850 m 1
 350 850 l 1
 350 900 l 1
 200 900 l 1
 200 850 l 1025
200 800 m 1
 250 800 l 1
 250 850 l 1
 200 850 l 1
 200 800 l 1025
300 800 m 1
 350 800 l 1
 350 850 l 1
 300 850 l 1
 300 800 l 1025
200 750 m 1
 350 750 l 1
 350 800 l 1
 200 800 l 1
 200 750 l 1025
250 650 m 1
 350 650 l 1
 350 700 l 1
 250 700 l 1
 250 650 l 1025
250 600 m 1
 400 600 l 1
 400 650 l 1
 250 650 l 1
 250 600 l 1025
200 550 m 1
 250 550 l 1
 250 600 l 1
 200 600 l 1
 200 550 l 1025
300 550 m 1
 400 550 l 1
 400 600 l 1
 300 600 l 1
 300 550 l 1025
200 500 m 1
 250 500 l 1
 250 550 l 1
 200 550 l 1
 200 500 l 1025
300 500 m 1
 400 500 l 1
 400 550 l 1
 300 550 l 1
 300 500 l 1025
200 450 m 1
 250 450 l 1
 250 500 l 1
 200 500 l 1
 200 450 l 1025
350 450 m 1
 450 450 l 1
 450 500 l 1
 350 500 l 1
 350 450 l 1025
150 400 m 1
 200 400 l 1
 200 450 l 1
 150 450 l 1
 150 400 l 1025
350 400 m 1
 450 400 l 1
 450 450 l 1
 350 450 l 1
 350 400 l 1025
150 350 m 1
 200 350 l 1
 200 400 l 1
 150 400 l 1
 150 350 l 1025
350 350 m 1
 450 350 l 1
 450 400 l 1
 350 400 l 1
 350 350 l 1025
150 300 m 1
 200 300 l 1
 200 350 l 1
 150 350 l 1
 150 300 l 1025
400 300 m 1
 500 300 l 1
 500 350 l 1
 400 350 l 1
 400 300 l 1025
100 250 m 1
 150 250 l 1
 150 300 l 1
 100 300 l 1
 100 250 l 1025
400 250 m 1
 500 250 l 1
 500 300 l 1
 400 300 l 1
 400 250 l 1025
100 200 m 1
 500 200 l 1
 500 250 l 1
 100 250 l 1
 100 200 l 1025
100 150 m 1
 150 150 l 1
 150 200 l 1
 100 200 l 1
 100 150 l 1025
450 150 m 1
 550 150 l 1
 550 200 l 1
 450 200 l 1
 450 150 l 1025
50 100 m 1
 100 100 l 1
 100 150 l 1
 50 150 l 1
 50 100 l 1025
450 100 m 1
 550 100 l 1
 550 150 l 1
 450 150 l 1
 450 100 l 1025
50 50 m 1
 100 50 l 1
 100 100 l 1
 50 100 l 1
 50 50 l 1025
450 50 m 1
 600 50 l 1
 600 100 l 1
 450 100 l 1
 450 50 l 1025
0 0 m 1
 100 0 l 1
 100 50 l 1
 0 50 l 1
 0 0 l 1025
500 0 m 1
 600 0 l 1
 600 50 l 1
 500 50 l 1
 500 0 l 1
EndSplineSet
EndChar

StartChar: AE
Encoding: 198 198 134
Width: 900
VWidth: 0
Flags: HW
LayerCount: 2
Back
Fore
SplineSet
300 650 m 1
 550 650 l 1
 550 700 l 1
 300 700 l 1
 300 650 l 1025
250 600 m 1
 400 600 l 1
 400 650 l 1
 250 650 l 1
 250 600 l 1025
250 550 m 1
 400 550 l 1
 400 600 l 1
 250 600 l 1
 250 550 l 1025
250 500 m 1
 400 500 l 1
 400 550 l 1
 250 550 l 1
 250 500 l 1025
200 450 m 1
 250 450 l 1
 250 500 l 1
 200 500 l 1
 200 450 l 1025
300 450 m 1
 400 450 l 1
 400 500 l 1
 300 500 l 1
 300 450 l 1025
200 400 m 1
 250 400 l 1
 250 450 l 1
 200 450 l 1
 200 400 l 1025
300 400 m 1
 400 400 l 1
 400 450 l 1
 300 450 l 1
 300 400 l 1025
150 350 m 1
 200 350 l 1
 200 400 l 1
 150 400 l 1
 150 350 l 1025
300 350 m 1
 400 350 l 1
 400 400 l 1
 300 400 l 1
 300 350 l 1025
150 300 m 1
 200 300 l 1
 200 350 l 1
 150 350 l 1
 150 300 l 1025
300 300 m 1
 550 300 l 1
 550 350 l 1
 300 350 l 1
 300 300 l 1025
150 250 m 1
 200 250 l 1
 200 300 l 1
 150 300 l 1
 150 250 l 1025
300 250 m 1
 400 250 l 1
 400 300 l 1
 300 300 l 1
 300 250 l 1025
100 200 m 1
 150 200 l 1
 150 250 l 1
 100 250 l 1
 100 200 l 1025
300 200 m 1
 400 200 l 1
 400 250 l 1
 300 250 l 1
 300 200 l 1025
100 150 m 1
 400 150 l 1
 400 200 l 1
 100 200 l 1
 100 150 l 1025
50 100 m 1
 100 100 l 1
 100 150 l 1
 50 150 l 1
 50 100 l 1025
300 100 m 1
 400 100 l 1
 400 150 l 1
 300 150 l 1
 300 100 l 1025
50 50 m 1
 100 50 l 1
 100 100 l 1
 50 100 l 1
 50 50 l 1025
300 50 m 1
 400 50 l 1
 400 100 l 1
 300 100 l 1
 300 50 l 1025
0 0 m 1
 100 0 l 1
 100 50 l 1
 0 50 l 1
 0 0 l 1025
300 0 m 1
 600 0 l 1
 600 50 l 1
 300 50 l 1
 300 0 l 1
EndSplineSet
EndChar

StartChar: Ccedilla
Encoding: 199 199 135
Width: 900
VWidth: 0
Flags: HW
LayerCount: 2
Back
Fore
SplineSet
250 650 m 1
 550 650 l 1
 550 700 l 1
 250 700 l 1
 250 650 l 1025
150 600 m 1
 300 600 l 1
 300 650 l 1
 150 650 l 1
 150 600 l 1025
500 600 m 1
 550 600 l 1
 550 650 l 1
 500 650 l 1
 500 600 l 1025
100 550 m 1
 200 550 l 1
 200 600 l 1
 100 600 l 1
 100 550 l 1025
100 500 m 1
 200 500 l 1
 200 550 l 1
 100 550 l 1
 100 500 l 1025
50 450 m 1
 150 450 l 1
 150 500 l 1
 50 500 l 1
 50 450 l 1025
50 400 m 1
 150 400 l 1
 150 450 l 1
 50 450 l 1
 50 400 l 1025
50 350 m 1
 150 350 l 1
 150 400 l 1
 50 400 l 1
 50 350 l 1025
50 300 m 1
 150 300 l 1
 150 350 l 1
 50 350 l 1
 50 300 l 1025
50 250 m 1
 150 250 l 1
 150 300 l 1
 50 300 l 1
 50 250 l 1025
50 200 m 1
 150 200 l 1
 150 250 l 1
 50 250 l 1
 50 200 l 1025
100 150 m 1
 200 150 l 1
 200 200 l 1
 100 200 l 1
 100 150 l 1025
100 100 m 1
 200 100 l 1
 200 150 l 1
 100 150 l 1
 100 100 l 1025
150 50 m 1
 300 50 l 1
 300 100 l 1
 150 100 l 1
 150 50 l 1025
500 50 m 1
 550 50 l 1
 550 100 l 1
 500 100 l 1
 500 50 l 1025
250 0 m 1
 550 0 l 1
 550 50 l 1
 250 50 l 1
 250 0 l 1025
300 -50 m 1
 350 -50 l 1
 350 0 l 1
 300 0 l 1
 300 -50 l 1025
350 -100 m 1
 400 -100 l 1
 400 -50 l 1
 350 -50 l 1
 350 -100 l 1025
350 -150 m 1
 400 -150 l 1
 400 -100 l 1
 350 -100 l 1
 350 -150 l 1025
250 -200 m 1
 400 -200 l 1
 400 -150 l 1
 250 -150 l 1
 250 -200 l 1
EndSplineSet
EndChar

StartChar: Egrave
Encoding: 200 200 136
Width: 900
VWidth: 0
Flags: HW
LayerCount: 2
Back
Fore
SplineSet
200 850 m 1
 300 850 l 1
 300 900 l 1
 200 900 l 1
 200 850 l 1025
250 800 m 1
 350 800 l 1
 350 850 l 1
 250 850 l 1
 250 800 l 1025
300 750 m 1
 400 750 l 1
 400 800 l 1
 300 800 l 1
 300 750 l 1025
100 650 m 1
 550 650 l 1
 550 700 l 1
 100 700 l 1
 100 650 l 1025
100 600 m 1
 200 600 l 1
 200 650 l 1
 100 650 l 1
 100 600 l 1025
100 550 m 1
 200 550 l 1
 200 600 l 1
 100 600 l 1
 100 550 l 1025
100 500 m 1
 200 500 l 1
 200 550 l 1
 100 550 l 1
 100 500 l 1025
100 450 m 1
 200 450 l 1
 200 500 l 1
 100 500 l 1
 100 450 l 1025
100 400 m 1
 200 400 l 1
 200 450 l 1
 100 450 l 1
 100 400 l 1025
100 350 m 1
 500 350 l 1
 500 400 l 1
 100 400 l 1
 100 350 l 1025
100 300 m 1
 200 300 l 1
 200 350 l 1
 100 350 l 1
 100 300 l 1025
100 250 m 1
 200 250 l 1
 200 300 l 1
 100 300 l 1
 100 250 l 1025
100 200 m 1
 200 200 l 1
 200 250 l 1
 100 250 l 1
 100 200 l 1025
100 150 m 1
 200 150 l 1
 200 200 l 1
 100 200 l 1
 100 150 l 1025
100 100 m 1
 200 100 l 1
 200 150 l 1
 100 150 l 1
 100 100 l 1025
100 50 m 1
 200 50 l 1
 200 100 l 1
 100 100 l 1
 100 50 l 1025
100 0 m 1
 550 0 l 1
 550 50 l 1
 100 50 l 1
 100 0 l 1
EndSplineSet
EndChar

StartChar: Eacute
Encoding: 201 201 137
Width: 900
VWidth: 0
Flags: HW
LayerCount: 2
Back
Fore
SplineSet
300 850 m 1
 400 850 l 1
 400 900 l 1
 300 900 l 1
 300 850 l 1025
250 800 m 1
 350 800 l 1
 350 850 l 1
 250 850 l 1
 250 800 l 1025
200 750 m 1
 300 750 l 1
 300 800 l 1
 200 800 l 1
 200 750 l 1025
100 650 m 1
 550 650 l 1
 550 700 l 1
 100 700 l 1
 100 650 l 1025
100 600 m 1
 200 600 l 1
 200 650 l 1
 100 650 l 1
 100 600 l 1025
100 550 m 1
 200 550 l 1
 200 600 l 1
 100 600 l 1
 100 550 l 1025
100 500 m 1
 200 500 l 1
 200 550 l 1
 100 550 l 1
 100 500 l 1025
100 450 m 1
 200 450 l 1
 200 500 l 1
 100 500 l 1
 100 450 l 1025
100 400 m 1
 200 400 l 1
 200 450 l 1
 100 450 l 1
 100 400 l 1025
100 350 m 1
 500 350 l 1
 500 400 l 1
 100 400 l 1
 100 350 l 1025
100 300 m 1
 200 300 l 1
 200 350 l 1
 100 350 l 1
 100 300 l 1025
100 250 m 1
 200 250 l 1
 200 300 l 1
 100 300 l 1
 100 250 l 1025
100 200 m 1
 200 200 l 1
 200 250 l 1
 100 250 l 1
 100 200 l 1025
100 150 m 1
 200 150 l 1
 200 200 l 1
 100 200 l 1
 100 150 l 1025
100 100 m 1
 200 100 l 1
 200 150 l 1
 100 150 l 1
 100 100 l 1025
100 50 m 1
 200 50 l 1
 200 100 l 1
 100 100 l 1
 100 50 l 1025
100 0 m 1
 550 0 l 1
 550 50 l 1
 100 50 l 1
 100 0 l 1
EndSplineSet
EndChar

StartChar: Ecircumflex
Encoding: 202 202 138
Width: 900
VWidth: 0
Flags: HW
LayerCount: 2
Back
Fore
SplineSet
250 850 m 1
 400 850 l 1
 400 900 l 1
 250 900 l 1
 250 850 l 1025
200 800 m 1
 300 800 l 1
 300 850 l 1
 200 850 l 1
 200 800 l 1025
350 800 m 1
 450 800 l 1
 450 850 l 1
 350 850 l 1
 350 800 l 1025
150 750 m 1
 250 750 l 1
 250 800 l 1
 150 800 l 1
 150 750 l 1025
400 750 m 1
 500 750 l 1
 500 800 l 1
 400 800 l 1
 400 750 l 1025
100 650 m 1
 550 650 l 1
 550 700 l 1
 100 700 l 1
 100 650 l 1025
100 600 m 1
 200 600 l 1
 200 650 l 1
 100 650 l 1
 100 600 l 1025
100 550 m 1
 200 550 l 1
 200 600 l 1
 100 600 l 1
 100 550 l 1025
100 500 m 1
 200 500 l 1
 200 550 l 1
 100 550 l 1
 100 500 l 1025
100 450 m 1
 200 450 l 1
 200 500 l 1
 100 500 l 1
 100 450 l 1025
100 400 m 1
 200 400 l 1
 200 450 l 1
 100 450 l 1
 100 400 l 1025
100 350 m 1
 500 350 l 1
 500 400 l 1
 100 400 l 1
 100 350 l 1025
100 300 m 1
 200 300 l 1
 200 350 l 1
 100 350 l 1
 100 300 l 1025
100 250 m 1
 200 250 l 1
 200 300 l 1
 100 300 l 1
 100 250 l 1025
100 200 m 1
 200 200 l 1
 200 250 l 1
 100 250 l 1
 100 200 l 1025
100 150 m 1
 200 150 l 1
 200 200 l 1
 100 200 l 1
 100 150 l 1025
100 100 m 1
 200 100 l 1
 200 150 l 1
 100 150 l 1
 100 100 l 1025
100 50 m 1
 200 50 l 1
 200 100 l 1
 100 100 l 1
 100 50 l 1025
100 0 m 1
 550 0 l 1
 550 50 l 1
 100 50 l 1
 100 0 l 1
EndSplineSet
EndChar

StartChar: Edieresis
Encoding: 203 203 139
Width: 900
VWidth: 0
Flags: HW
LayerCount: 2
Back
Fore
SplineSet
150 750 m 1
 250 750 l 1
 250 800 l 1
 150 800 l 1
 150 750 l 1025
350 750 m 1
 450 750 l 1
 450 800 l 1
 350 800 l 1
 350 750 l 1025
100 650 m 1
 550 650 l 1
 550 700 l 1
 100 700 l 1
 100 650 l 1025
100 600 m 1
 200 600 l 1
 200 650 l 1
 100 650 l 1
 100 600 l 1025
100 550 m 1
 200 550 l 1
 200 600 l 1
 100 600 l 1
 100 550 l 1025
100 500 m 1
 200 500 l 1
 200 550 l 1
 100 550 l 1
 100 500 l 1025
100 450 m 1
 200 450 l 1
 200 500 l 1
 100 500 l 1
 100 450 l 1025
100 400 m 1
 200 400 l 1
 200 450 l 1
 100 450 l 1
 100 400 l 1025
100 350 m 1
 500 350 l 1
 500 400 l 1
 100 400 l 1
 100 350 l 1025
100 300 m 1
 200 300 l 1
 200 350 l 1
 100 350 l 1
 100 300 l 1025
100 250 m 1
 200 250 l 1
 200 300 l 1
 100 300 l 1
 100 250 l 1025
100 200 m 1
 200 200 l 1
 200 250 l 1
 100 250 l 1
 100 200 l 1025
100 150 m 1
 200 150 l 1
 200 200 l 1
 100 200 l 1
 100 150 l 1025
100 100 m 1
 200 100 l 1
 200 150 l 1
 100 150 l 1
 100 100 l 1025
100 50 m 1
 200 50 l 1
 200 100 l 1
 100 100 l 1
 100 50 l 1025
100 0 m 1
 550 0 l 1
 550 50 l 1
 100 50 l 1
 100 0 l 1
EndSplineSet
EndChar

StartChar: Igrave
Encoding: 204 204 140
Width: 900
VWidth: 0
Flags: HW
LayerCount: 2
Back
Fore
SplineSet
200 850 m 1
 300 850 l 1
 300 900 l 1
 200 900 l 1
 200 850 l 1025
250 800 m 1
 350 800 l 1
 350 850 l 1
 250 850 l 1
 250 800 l 1025
300 750 m 1
 400 750 l 1
 400 800 l 1
 300 800 l 1
 300 750 l 1025
100 650 m 1
 500 650 l 1
 500 700 l 1
 100 700 l 1
 100 650 l 1025
250 600 m 1
 350 600 l 1
 350 650 l 1
 250 650 l 1
 250 600 l 1025
250 550 m 1
 350 550 l 1
 350 600 l 1
 250 600 l 1
 250 550 l 1025
250 500 m 1
 350 500 l 1
 350 550 l 1
 250 550 l 1
 250 500 l 1025
250 450 m 1
 350 450 l 1
 350 500 l 1
 250 500 l 1
 250 450 l 1025
250 400 m 1
 350 400 l 1
 350 450 l 1
 250 450 l 1
 250 400 l 1025
250 350 m 1
 350 350 l 1
 350 400 l 1
 250 400 l 1
 250 350 l 1025
250 300 m 1
 350 300 l 1
 350 350 l 1
 250 350 l 1
 250 300 l 1025
250 250 m 1
 350 250 l 1
 350 300 l 1
 250 300 l 1
 250 250 l 1025
250 200 m 1
 350 200 l 1
 350 250 l 1
 250 250 l 1
 250 200 l 1025
250 150 m 1
 350 150 l 1
 350 200 l 1
 250 200 l 1
 250 150 l 1025
250 100 m 1
 350 100 l 1
 350 150 l 1
 250 150 l 1
 250 100 l 1025
250 50 m 1
 350 50 l 1
 350 100 l 1
 250 100 l 1
 250 50 l 1025
100 0 m 1
 500 0 l 1
 500 50 l 1
 100 50 l 1
 100 0 l 1
EndSplineSet
EndChar

StartChar: Iacute
Encoding: 205 205 141
Width: 900
VWidth: 0
Flags: HW
LayerCount: 2
Back
Fore
SplineSet
300 850 m 1
 400 850 l 1
 400 900 l 1
 300 900 l 1
 300 850 l 1025
250 800 m 1
 350 800 l 1
 350 850 l 1
 250 850 l 1
 250 800 l 1025
200 750 m 1
 300 750 l 1
 300 800 l 1
 200 800 l 1
 200 750 l 1025
100 650 m 1
 500 650 l 1
 500 700 l 1
 100 700 l 1
 100 650 l 1025
250 600 m 1
 350 600 l 1
 350 650 l 1
 250 650 l 1
 250 600 l 1025
250 550 m 1
 350 550 l 1
 350 600 l 1
 250 600 l 1
 250 550 l 1025
250 500 m 1
 350 500 l 1
 350 550 l 1
 250 550 l 1
 250 500 l 1025
250 450 m 1
 350 450 l 1
 350 500 l 1
 250 500 l 1
 250 450 l 1025
250 400 m 1
 350 400 l 1
 350 450 l 1
 250 450 l 1
 250 400 l 1025
250 350 m 1
 350 350 l 1
 350 400 l 1
 250 400 l 1
 250 350 l 1025
250 300 m 1
 350 300 l 1
 350 350 l 1
 250 350 l 1
 250 300 l 1025
250 250 m 1
 350 250 l 1
 350 300 l 1
 250 300 l 1
 250 250 l 1025
250 200 m 1
 350 200 l 1
 350 250 l 1
 250 250 l 1
 250 200 l 1025
250 150 m 1
 350 150 l 1
 350 200 l 1
 250 200 l 1
 250 150 l 1025
250 100 m 1
 350 100 l 1
 350 150 l 1
 250 150 l 1
 250 100 l 1025
250 50 m 1
 350 50 l 1
 350 100 l 1
 250 100 l 1
 250 50 l 1025
100 0 m 1
 500 0 l 1
 500 50 l 1
 100 50 l 1
 100 0 l 1
EndSplineSet
EndChar

StartChar: Icircumflex
Encoding: 206 206 142
Width: 900
VWidth: 0
Flags: HW
LayerCount: 2
Back
Fore
SplineSet
200 850 m 1
 350 850 l 1
 350 900 l 1
 200 900 l 1
 200 850 l 1025
150 800 m 1
 250 800 l 1
 250 850 l 1
 150 850 l 1
 150 800 l 1025
300 800 m 1
 400 800 l 1
 400 850 l 1
 300 850 l 1
 300 800 l 1025
100 750 m 1
 200 750 l 1
 200 800 l 1
 100 800 l 1
 100 750 l 1025
350 750 m 1
 450 750 l 1
 450 800 l 1
 350 800 l 1
 350 750 l 1025
100 650 m 1
 500 650 l 1
 500 700 l 1
 100 700 l 1
 100 650 l 1025
250 600 m 1
 350 600 l 1
 350 650 l 1
 250 650 l 1
 250 600 l 1025
250 550 m 1
 350 550 l 1
 350 600 l 1
 250 600 l 1
 250 550 l 1025
250 500 m 1
 350 500 l 1
 350 550 l 1
 250 550 l 1
 250 500 l 1025
250 450 m 1
 350 450 l 1
 350 500 l 1
 250 500 l 1
 250 450 l 1025
250 400 m 1
 350 400 l 1
 350 450 l 1
 250 450 l 1
 250 400 l 1025
250 350 m 1
 350 350 l 1
 350 400 l 1
 250 400 l 1
 250 350 l 1025
250 300 m 1
 350 300 l 1
 350 350 l 1
 250 350 l 1
 250 300 l 1025
250 250 m 1
 350 250 l 1
 350 300 l 1
 250 300 l 1
 250 250 l 1025
250 200 m 1
 350 200 l 1
 350 250 l 1
 250 250 l 1
 250 200 l 1025
250 150 m 1
 350 150 l 1
 350 200 l 1
 250 200 l 1
 250 150 l 1025
250 100 m 1
 350 100 l 1
 350 150 l 1
 250 150 l 1
 250 100 l 1025
250 50 m 1
 350 50 l 1
 350 100 l 1
 250 100 l 1
 250 50 l 1025
100 0 m 1
 500 0 l 1
 500 50 l 1
 100 50 l 1
 100 0 l 1
EndSplineSet
EndChar

StartChar: Idieresis
Encoding: 207 207 143
Width: 900
VWidth: 0
Flags: HW
LayerCount: 2
Back
Fore
SplineSet
150 750 m 1
 250 750 l 1
 250 800 l 1
 150 800 l 1
 150 750 l 1025
350 750 m 1
 450 750 l 1
 450 800 l 1
 350 800 l 1
 350 750 l 1025
100 650 m 1
 500 650 l 1
 500 700 l 1
 100 700 l 1
 100 650 l 1025
250 600 m 1
 350 600 l 1
 350 650 l 1
 250 650 l 1
 250 600 l 1025
250 550 m 1
 350 550 l 1
 350 600 l 1
 250 600 l 1
 250 550 l 1025
250 500 m 1
 350 500 l 1
 350 550 l 1
 250 550 l 1
 250 500 l 1025
250 450 m 1
 350 450 l 1
 350 500 l 1
 250 500 l 1
 250 450 l 1025
250 400 m 1
 350 400 l 1
 350 450 l 1
 250 450 l 1
 250 400 l 1025
250 350 m 1
 350 350 l 1
 350 400 l 1
 250 400 l 1
 250 350 l 1025
250 300 m 1
 350 300 l 1
 350 350 l 1
 250 350 l 1
 250 300 l 1025
250 250 m 1
 350 250 l 1
 350 300 l 1
 250 300 l 1
 250 250 l 1025
250 200 m 1
 350 200 l 1
 350 250 l 1
 250 250 l 1
 250 200 l 1025
250 150 m 1
 350 150 l 1
 350 200 l 1
 250 200 l 1
 250 150 l 1025
250 100 m 1
 350 100 l 1
 350 150 l 1
 250 150 l 1
 250 100 l 1025
250 50 m 1
 350 50 l 1
 350 100 l 1
 250 100 l 1
 250 50 l 1025
100 0 m 1
 500 0 l 1
 500 50 l 1
 100 50 l 1
 100 0 l 1
EndSplineSet
EndChar

StartChar: Eth
Encoding: 208 208 144
Width: 900
VWidth: 0
Flags: HW
LayerCount: 2
Back
Fore
SplineSet
50 650 m 1
 400 650 l 1
 400 700 l 1
 50 700 l 1
 50 650 l 1025
50 600 m 1
 150 600 l 1
 150 650 l 1
 50 650 l 1
 50 600 l 1025
350 600 m 1
 450 600 l 1
 450 650 l 1
 350 650 l 1
 350 600 l 1025
50 550 m 1
 150 550 l 1
 150 600 l 1
 50 600 l 1
 50 550 l 1025
400 550 m 1
 500 550 l 1
 500 600 l 1
 400 600 l 1
 400 550 l 1025
50 500 m 1
 150 500 l 1
 150 550 l 1
 50 550 l 1
 50 500 l 1025
450 500 m 1
 550 500 l 1
 550 550 l 1
 450 550 l 1
 450 500 l 1025
50 450 m 1
 150 450 l 1
 150 500 l 1
 50 500 l 1
 50 450 l 1025
450 450 m 1
 550 450 l 1
 550 500 l 1
 450 500 l 1
 450 450 l 1025
50 400 m 1
 150 400 l 1
 150 450 l 1
 50 450 l 1
 50 400 l 1025
450 400 m 1
 550 400 l 1
 550 450 l 1
 450 450 l 1
 450 400 l 1025
0 350 m 1
 250 350 l 1
 250 400 l 1
 0 400 l 1
 0 350 l 1025
450 350 m 1
 550 350 l 1
 550 400 l 1
 450 400 l 1
 450 350 l 1025
50 300 m 1
 150 300 l 1
 150 350 l 1
 50 350 l 1
 50 300 l 1025
450 300 m 1
 550 300 l 1
 550 350 l 1
 450 350 l 1
 450 300 l 1025
50 250 m 1
 150 250 l 1
 150 300 l 1
 50 300 l 1
 50 250 l 1025
450 250 m 1
 550 250 l 1
 550 300 l 1
 450 300 l 1
 450 250 l 1025
50 200 m 1
 150 200 l 1
 150 250 l 1
 50 250 l 1
 50 200 l 1025
450 200 m 1
 550 200 l 1
 550 250 l 1
 450 250 l 1
 450 200 l 1025
50 150 m 1
 150 150 l 1
 150 200 l 1
 50 200 l 1
 50 150 l 1025
400 150 m 1
 500 150 l 1
 500 200 l 1
 400 200 l 1
 400 150 l 1025
50 100 m 1
 150 100 l 1
 150 150 l 1
 50 150 l 1
 50 100 l 1025
400 100 m 1
 500 100 l 1
 500 150 l 1
 400 150 l 1
 400 100 l 1025
50 50 m 1
 150 50 l 1
 150 100 l 1
 50 100 l 1
 50 50 l 1025
350 50 m 1
 450 50 l 1
 450 100 l 1
 350 100 l 1
 350 50 l 1025
50 0 m 1
 400 0 l 1
 400 50 l 1
 50 50 l 1
 50 0 l 1
EndSplineSet
EndChar

StartChar: Ntilde
Encoding: 209 209 145
Width: 900
VWidth: 0
Flags: HW
LayerCount: 2
Back
Fore
SplineSet
100 800 m 1
 300 800 l 1
 300 850 l 1
 100 850 l 1
 100 800 l 1025
350 800 m 1
 450 800 l 1
 450 850 l 1
 350 850 l 1
 350 800 l 1025
100 750 m 1
 200 750 l 1
 200 800 l 1
 100 800 l 1
 100 750 l 1025
250 750 m 1
 450 750 l 1
 450 800 l 1
 250 800 l 1
 250 750 l 1025
50 650 m 1
 150 650 l 1
 150 700 l 1
 50 700 l 1
 50 650 l 1025
450 650 m 1
 500 650 l 1
 500 700 l 1
 450 700 l 1
 450 650 l 1025
50 600 m 1
 200 600 l 1
 200 650 l 1
 50 650 l 1
 50 600 l 1025
450 600 m 1
 500 600 l 1
 500 650 l 1
 450 650 l 1
 450 600 l 1025
50 550 m 1
 200 550 l 1
 200 600 l 1
 50 600 l 1
 50 550 l 1025
450 550 m 1
 500 550 l 1
 500 600 l 1
 450 600 l 1
 450 550 l 1025
50 500 m 1
 250 500 l 1
 250 550 l 1
 50 550 l 1
 50 500 l 1025
450 500 m 1
 500 500 l 1
 500 550 l 1
 450 550 l 1
 450 500 l 1025
50 450 m 1
 100 450 l 1
 100 500 l 1
 50 500 l 1
 50 450 l 1025
150 450 m 1
 250 450 l 1
 250 500 l 1
 150 500 l 1
 150 450 l 1025
450 450 m 1
 500 450 l 1
 500 500 l 1
 450 500 l 1
 450 450 l 1025
50 400 m 1
 100 400 l 1
 100 450 l 1
 50 450 l 1
 50 400 l 1025
200 400 m 1
 300 400 l 1
 300 450 l 1
 200 450 l 1
 200 400 l 1025
450 400 m 1
 500 400 l 1
 500 450 l 1
 450 450 l 1
 450 400 l 1025
50 350 m 1
 100 350 l 1
 100 400 l 1
 50 400 l 1
 50 350 l 1025
200 350 m 1
 300 350 l 1
 300 400 l 1
 200 400 l 1
 200 350 l 1025
450 350 m 1
 500 350 l 1
 500 400 l 1
 450 400 l 1
 450 350 l 1025
50 300 m 1
 100 300 l 1
 100 350 l 1
 50 350 l 1
 50 300 l 1025
250 300 m 1
 350 300 l 1
 350 350 l 1
 250 350 l 1
 250 300 l 1025
450 300 m 1
 500 300 l 1
 500 350 l 1
 450 350 l 1
 450 300 l 1025
50 250 m 1
 100 250 l 1
 100 300 l 1
 50 300 l 1
 50 250 l 1025
250 250 m 1
 400 250 l 1
 400 300 l 1
 250 300 l 1
 250 250 l 1025
450 250 m 1
 500 250 l 1
 500 300 l 1
 450 300 l 1
 450 250 l 1025
50 200 m 1
 100 200 l 1
 100 250 l 1
 50 250 l 1
 50 200 l 1025
300 200 m 1
 400 200 l 1
 400 250 l 1
 300 250 l 1
 300 200 l 1025
450 200 m 1
 500 200 l 1
 500 250 l 1
 450 250 l 1
 450 200 l 1025
50 150 m 1
 100 150 l 1
 100 200 l 1
 50 200 l 1
 50 150 l 1025
300 150 m 1
 500 150 l 1
 500 200 l 1
 300 200 l 1
 300 150 l 1025
50 100 m 1
 100 100 l 1
 100 150 l 1
 50 150 l 1
 50 100 l 1025
350 100 m 1
 500 100 l 1
 500 150 l 1
 350 150 l 1
 350 100 l 1025
50 50 m 1
 100 50 l 1
 100 100 l 1
 50 100 l 1
 50 50 l 1025
400 50 m 1
 500 50 l 1
 500 100 l 1
 400 100 l 1
 400 50 l 1025
50 0 m 1
 100 0 l 1
 100 50 l 1
 50 50 l 1
 50 0 l 1025
400 0 m 1
 500 0 l 1
 500 50 l 1
 400 50 l 1
 400 0 l 1
EndSplineSet
EndChar

StartChar: Ograve
Encoding: 210 210 146
Width: 900
VWidth: 0
Flags: HW
LayerCount: 2
Back
Fore
SplineSet
200 850 m 1
 300 850 l 1
 300 900 l 1
 200 900 l 1
 200 850 l 1025
250 800 m 1
 350 800 l 1
 350 850 l 1
 250 850 l 1
 250 800 l 1025
300 750 m 1
 400 750 l 1
 400 800 l 1
 300 800 l 1
 300 750 l 1025
150 650 m 1
 400 650 l 1
 400 700 l 1
 150 700 l 1
 150 650 l 1025
100 600 m 1
 200 600 l 1
 200 650 l 1
 100 650 l 1
 100 600 l 1025
350 600 m 1
 450 600 l 1
 450 650 l 1
 350 650 l 1
 350 600 l 1025
50 550 m 1
 150 550 l 1
 150 600 l 1
 50 600 l 1
 50 550 l 1025
400 550 m 1
 500 550 l 1
 500 600 l 1
 400 600 l 1
 400 550 l 1025
50 500 m 1
 150 500 l 1
 150 550 l 1
 50 550 l 1
 50 500 l 1025
400 500 m 1
 500 500 l 1
 500 550 l 1
 400 550 l 1
 400 500 l 1025
0 450 m 1
 100 450 l 1
 100 500 l 1
 0 500 l 1
 0 450 l 1025
450 450 m 1
 550 450 l 1
 550 500 l 1
 450 500 l 1
 450 450 l 1025
0 400 m 1
 100 400 l 1
 100 450 l 1
 0 450 l 1
 0 400 l 1025
450 400 m 1
 550 400 l 1
 550 450 l 1
 450 450 l 1
 450 400 l 1025
0 350 m 1
 100 350 l 1
 100 400 l 1
 0 400 l 1
 0 350 l 1025
450 350 m 1
 550 350 l 1
 550 400 l 1
 450 400 l 1
 450 350 l 1025
0 300 m 1
 100 300 l 1
 100 350 l 1
 0 350 l 1
 0 300 l 1025
450 300 m 1
 550 300 l 1
 550 350 l 1
 450 350 l 1
 450 300 l 1025
0 250 m 1
 100 250 l 1
 100 300 l 1
 0 300 l 1
 0 250 l 1025
450 250 m 1
 550 250 l 1
 550 300 l 1
 450 300 l 1
 450 250 l 1025
0 200 m 1
 100 200 l 1
 100 250 l 1
 0 250 l 1
 0 200 l 1025
450 200 m 1
 550 200 l 1
 550 250 l 1
 450 250 l 1
 450 200 l 1025
50 150 m 1
 150 150 l 1
 150 200 l 1
 50 200 l 1
 50 150 l 1025
400 150 m 1
 500 150 l 1
 500 200 l 1
 400 200 l 1
 400 150 l 1025
50 100 m 1
 150 100 l 1
 150 150 l 1
 50 150 l 1
 50 100 l 1025
400 100 m 1
 500 100 l 1
 500 150 l 1
 400 150 l 1
 400 100 l 1025
100 50 m 1
 200 50 l 1
 200 100 l 1
 100 100 l 1
 100 50 l 1025
350 50 m 1
 450 50 l 1
 450 100 l 1
 350 100 l 1
 350 50 l 1025
150 0 m 1
 400 0 l 1
 400 50 l 1
 150 50 l 1
 150 0 l 1
EndSplineSet
EndChar

StartChar: Oacute
Encoding: 211 211 147
Width: 900
VWidth: 0
Flags: HW
LayerCount: 2
Back
Fore
SplineSet
250 850 m 1
 350 850 l 1
 350 900 l 1
 250 900 l 1
 250 850 l 1025
200 800 m 1
 300 800 l 1
 300 850 l 1
 200 850 l 1
 200 800 l 1025
150 750 m 1
 250 750 l 1
 250 800 l 1
 150 800 l 1
 150 750 l 1025
150 650 m 1
 400 650 l 1
 400 700 l 1
 150 700 l 1
 150 650 l 1025
100 600 m 1
 200 600 l 1
 200 650 l 1
 100 650 l 1
 100 600 l 1025
350 600 m 1
 450 600 l 1
 450 650 l 1
 350 650 l 1
 350 600 l 1025
50 550 m 1
 150 550 l 1
 150 600 l 1
 50 600 l 1
 50 550 l 1025
400 550 m 1
 500 550 l 1
 500 600 l 1
 400 600 l 1
 400 550 l 1025
50 500 m 1
 150 500 l 1
 150 550 l 1
 50 550 l 1
 50 500 l 1025
400 500 m 1
 500 500 l 1
 500 550 l 1
 400 550 l 1
 400 500 l 1025
0 450 m 1
 100 450 l 1
 100 500 l 1
 0 500 l 1
 0 450 l 1025
450 450 m 1
 550 450 l 1
 550 500 l 1
 450 500 l 1
 450 450 l 1025
0 400 m 1
 100 400 l 1
 100 450 l 1
 0 450 l 1
 0 400 l 1025
450 400 m 1
 550 400 l 1
 550 450 l 1
 450 450 l 1
 450 400 l 1025
0 350 m 1
 100 350 l 1
 100 400 l 1
 0 400 l 1
 0 350 l 1025
450 350 m 1
 550 350 l 1
 550 400 l 1
 450 400 l 1
 450 350 l 1025
0 300 m 1
 100 300 l 1
 100 350 l 1
 0 350 l 1
 0 300 l 1025
450 300 m 1
 550 300 l 1
 550 350 l 1
 450 350 l 1
 450 300 l 1025
0 250 m 1
 100 250 l 1
 100 300 l 1
 0 300 l 1
 0 250 l 1025
450 250 m 1
 550 250 l 1
 550 300 l 1
 450 300 l 1
 450 250 l 1025
0 200 m 1
 100 200 l 1
 100 250 l 1
 0 250 l 1
 0 200 l 1025
450 200 m 1
 550 200 l 1
 550 250 l 1
 450 250 l 1
 450 200 l 1025
50 150 m 1
 150 150 l 1
 150 200 l 1
 50 200 l 1
 50 150 l 1025
400 150 m 1
 500 150 l 1
 500 200 l 1
 400 200 l 1
 400 150 l 1025
50 100 m 1
 150 100 l 1
 150 150 l 1
 50 150 l 1
 50 100 l 1025
400 100 m 1
 500 100 l 1
 500 150 l 1
 400 150 l 1
 400 100 l 1025
100 50 m 1
 200 50 l 1
 200 100 l 1
 100 100 l 1
 100 50 l 1025
350 50 m 1
 450 50 l 1
 450 100 l 1
 350 100 l 1
 350 50 l 1025
150 0 m 1
 400 0 l 1
 400 50 l 1
 150 50 l 1
 150 0 l 1
EndSplineSet
EndChar

